<svg viewBox="0 0 140 140" xmlns="http://www.w3.org/2000/svg">
	<path d="M23.6528 120.598C23.2404 120.598 22.6346 120.635 21.834 120.709V128.266C22.4763 127.826 23.0455 127.606 23.5433 127.606C24.2464 127.606 24.84 127.859 25.3256 128.368C25.8096 128.876 26.0531 129.503 26.0531 130.248C26.0531 130.969 25.7959 131.584 25.2799 132.092C24.7639 132.6 24.1368 132.854 23.3987 132.854C21.665 132.854 20.799 131.637 20.799 129.203V114.215H14V129.46C14 132.261 14.7275 134.542 16.1811 136.302C17.0167 137.317 18.0806 138.125 19.3713 138.724C20.662 139.323 21.9862 139.622 23.3439 139.622C26.047 139.622 28.3255 138.705 30.1794 136.87C32.0332 135.036 32.9617 132.779 32.9617 130.1C32.9617 127.483 32.05 125.245 30.225 123.386C28.4001 121.527 26.2099 120.598 23.6528 120.598ZM44.3968 120.598C41.7667 120.598 39.5339 121.521 37.6968 123.369C35.8612 125.216 34.9419 127.466 34.9419 130.12C34.9419 132.848 35.8505 135.116 37.6694 136.927C39.4867 138.738 41.7607 139.642 44.4867 139.642C44.9478 139.642 45.4562 139.593 46.0133 139.495V132.395C45.5049 132.713 44.9524 132.872 44.3588 132.872C43.6313 132.872 43.0316 132.628 42.5582 132.138C42.0849 131.65 41.8489 131.025 41.8489 130.268C41.8489 129.546 42.1092 128.922 42.6313 128.397C43.1518 127.872 43.7698 127.607 44.4851 127.607C45.2735 127.607 45.9006 127.895 46.3664 128.469C46.8321 129.043 47.0665 129.814 47.0665 130.78V139.257H53.8655V130.286C53.8655 127.29 53.0208 124.926 51.3298 123.195C49.6418 121.463 47.3298 120.598 44.3968 120.598ZM65.9232 120.58C63.6569 120.58 61.7421 121.397 60.1775 123.029C58.6128 124.662 57.832 126.671 57.832 129.054V139.254H64.631V128.925C64.631 127.873 65.0556 127.348 65.9034 127.348C66.7634 127.348 67.1941 127.873 67.1941 128.925V139.254H73.9931V129.604C73.9931 126.962 73.3812 124.901 72.1575 123.422C70.5959 121.527 68.5168 120.58 65.9232 120.58ZM81.3766 112.801C80.4557 112.801 79.6582 113.128 78.9854 113.782C78.3127 114.436 77.9763 115.21 77.9763 116.103C77.9763 117.056 78.2944 117.84 78.9306 118.451C79.5668 119.062 80.3827 119.368 81.3766 119.368C82.3705 119.368 83.1863 119.062 83.8225 118.451C84.4587 117.84 84.7768 117.056 84.7768 116.103C84.7768 115.21 84.4404 114.436 83.7677 113.782C83.095 113.128 82.2974 112.801 81.3766 112.801ZM77.9596 139.255H84.7585V120.965H77.9596V139.255ZM96.8482 120.58C94.5819 120.58 92.6671 121.397 91.1025 123.029C89.5378 124.662 88.757 126.671 88.757 129.056V139.255H95.556V128.927C95.556 127.875 95.9806 127.349 96.8284 127.349C97.6884 127.349 98.1191 127.875 98.1191 128.927V139.255H104.918V129.606C104.918 126.964 104.306 124.903 103.083 123.424C101.521 121.527 99.4418 120.58 96.8482 120.58ZM123.241 123.754C121.405 121.89 119.134 125.569 120.139 126.62C121.143 127.67 121.647 128.956 121.647 130.478C121.647 131.975 121.139 133.255 120.122 134.317C119.105 135.38 117.878 135.912 116.443 135.912C115.031 135.912 113.816 135.38 112.799 134.317C111.783 133.255 111.274 131.975 111.274 130.478C111.274 128.956 111.776 127.67 112.783 126.62C113.787 125.569 111.592 121.871 109.726 123.699C107.86 125.528 106.926 127.781 106.926 130.46C106.926 133.089 107.859 135.336 109.726 137.202C111.592 139.066 113.84 140 116.472 140C119.102 140 121.347 139.071 123.209 137.211C125.069 135.353 126 133.101 126 130.46C125.994 127.853 125.076 125.619 123.241 123.754ZM114.652 121.807V129.604C114.652 130.616 115.466 131.438 116.469 131.438C117.472 131.438 118.286 130.616 118.286 129.604V121.807C118.286 120.795 117.472 119.973 116.469 119.973C115.466 119.973 114.652 120.793 114.652 121.807ZM51.8062 3.48733C53.9447 4.98783 55.9538 6.7018 57.6128 8.73676C59.4073 10.913 60.7832 13.4072 61.8959 15.9966C61.9232 16.1594 62.2018 16.1179 62.1805 15.9536C62.1911 10.7794 62.1805 5.60369 62.185 0.429522C62.1866 0.286691 62.1881 0.0793594 62.0115 0.0394281C61.5108 -0.0634716 61.0009 0.0624658 60.5001 0.107004C59.8883 0.199153 59.2673 0.231406 58.6645 0.375772C56.281 0.893343 53.9751 1.71961 51.7209 2.64878C51.5733 2.71175 51.4196 2.83 51.415 3.00662C51.4242 3.23853 51.6403 3.36447 51.8062 3.48733ZM67.704 92.1301C61.494 91.7615 55.383 89.8233 50.0863 86.5321C44.7256 83.2162 40.1975 78.5427 37.0362 73.0568C34.2204 68.1913 32.4914 62.69 32.015 57.0751C31.8613 55.5915 31.945 54.0987 31.9237 52.6089C31.9237 40.2471 31.9221 27.8838 31.9237 15.522C34.0347 15.3991 36.1747 15.4851 38.2371 15.9812C39.8611 16.3713 41.4395 17.0332 42.7774 18.053C43.9402 18.933 44.8976 20.0849 45.5582 21.3904C46.6617 23.5574 46.9767 26.047 46.8824 28.4567C46.8763 37.1094 46.8854 45.7653 46.8763 54.4181C46.8717 58.2715 47.8306 62.0757 49.7469 65.4084C49.8138 65.5251 49.8838 65.6434 49.9523 65.7586C51.7103 68.7074 54.1425 71.2384 56.9933 73.1244C62.9202 77.0822 70.6781 78.1327 77.4055 75.7844C82.859 73.9199 87.5454 69.9206 90.3506 64.8079C92.8635 61.2694 92.9594 58.4112 93.1268 54.9848C93.3551 50.9886 92.5499 46.9356 90.7889 43.3479C88.7387 39.1383 85.3993 35.5844 81.3446 33.2929C80.9367 33.0687 80.5303 32.7984 80.0554 32.7569C79.1787 32.6433 78.2685 33.1916 77.955 34.0271C77.7891 34.4248 77.8165 34.8625 77.818 35.2834C77.8195 41.9488 77.818 48.6142 77.818 55.2797C77.8195 56 77.7008 56.7203 77.4664 57.4007C76.7754 59.454 75.0037 61.0943 72.9124 61.5996C71.8211 61.8852 70.6872 61.7762 69.5731 61.7977C68.6157 61.8131 67.6385 61.7992 66.7177 61.4936C64.5716 60.8332 62.8426 58.9641 62.3509 56.7541C62.1318 55.8863 62.1911 54.9848 62.1835 54.0971C62.1835 44.3585 62.1835 34.6184 62.1835 24.8797C62.179 22.3149 61.5169 19.8085 60.7132 17.3942C59.5001 13.8004 57.3084 10.6135 54.6996 7.90742C52.7742 6.1228 50.6053 4.61002 48.2979 3.37215C45.2051 1.72575 41.7774 0.616893 38.2615 0.52628C35.776 0.523208 33.2905 0.475598 30.8034 0.435667C26.9755 0.434131 23.149 0.435667 19.3226 0.435667C18.3378 0.415701 17.3683 0.928664 16.8173 1.75033C16.5129 2.17575 16.3714 2.68564 16.28 3.19553V56.1259C16.3546 56.3993 16.4109 56.6788 16.417 56.963C16.828 64.2458 18.7473 71.4304 21.9816 77.9499C24.9588 83.9503 29.0546 89.3795 33.9845 93.8809C40.8916 100.207 49.4592 104.675 58.5808 106.656C63.1272 103.031 66.4057 97.8295 67.704 92.1301ZM79.2883 16.3652C82.7784 17.2483 86.1436 18.6305 89.2486 20.4658C94.8452 23.7617 99.5848 28.5227 102.877 34.1545C105.98 39.4362 107.79 45.4827 108.107 51.6137C108.396 56.963 107.573 62.3721 105.675 67.3773C104.262 71.114 102.264 74.6233 99.7827 77.7426C95.8756 82.6633 90.7615 86.6042 85.0173 89.0907C80.0767 91.2393 74.678 92.2975 69.3006 92.1915C68.0206 97.9201 64.8669 103.191 60.4697 107.032C70.331 108.832 80.6886 107.791 89.9898 104.022C96.4038 101.434 102.306 97.573 107.277 92.7367C112.519 87.6455 116.726 81.47 119.542 74.6986C122.95 66.5449 124.289 57.5404 123.49 48.7325C122.696 39.7526 119.607 30.9954 114.614 23.5205C111.081 18.2174 106.615 13.55 101.487 9.80415C95.3596 5.31803 88.2806 2.16346 80.8621 0.635321C80.3781 0.541636 79.8819 0.388056 79.3903 0.517065C78.4938 0.707506 77.7997 1.57678 77.8226 2.50288C77.8211 6.46221 77.8226 10.4215 77.8211 14.3809C77.7937 15.2809 78.4268 16.1425 79.2883 16.3652Z"/>
</svg>
