<svg id="svg" version="1.1" xmlns="http://www.w3.org/2000/svg" xmlns:xlink="http://www.w3.org/1999/xlink" width="400" height="384.5272206303725" viewBox="0, 0, 400,384.5272206303725"><g id="svgg"><path id="path0" d="M119.771 127.090 C 118.904 127.306,117.823 127.488,117.369 127.495 C 116.915 127.502,116.141 127.751,115.650 128.049 C 115.158 128.348,114.325 128.683,113.797 128.795 C 111.663 129.246,105.123 132.454,104.155 133.524 C 103.870 133.839,103.515 134.097,103.367 134.097 C 101.646 134.097,93.824 143.739,91.784 148.375 C 91.390 149.269,90.759 150.620,90.380 151.377 C 86.920 158.303,87.504 175.029,91.408 180.802 C 91.675 181.196,92.214 182.163,92.607 182.951 C 95.588 188.933,103.108 196.288,108.166 198.171 C 108.481 198.288,109.191 198.673,109.742 199.026 C 114.705 202.202,129.871 203.639,135.568 201.473 C 135.966 201.321,137.185 200.978,138.275 200.710 C 141.254 199.979,147.313 196.655,150.143 194.201 C 152.035 192.560,154.287 190.378,154.752 189.735 C 154.975 189.427,155.886 188.225,156.775 187.066 C 158.664 184.603,160.954 180.134,161.892 177.077 C 162.254 175.895,162.734 174.348,162.958 173.639 C 164.233 169.595,164.064 158.358,162.658 153.725 C 160.881 147.869,156.619 140.976,152.519 137.324 C 151.322 136.259,149.957 135.032,149.485 134.599 C 149.012 134.165,148.516 133.811,148.382 133.811 C 148.249 133.811,147.655 133.378,147.064 132.848 C 146.472 132.319,145.503 131.728,144.909 131.535 C 144.316 131.342,143.105 130.748,142.218 130.214 C 141.332 129.680,139.932 129.047,139.109 128.808 C 138.285 128.568,137.449 128.178,137.252 127.940 C 137.027 127.670,136.395 127.505,135.567 127.503 C 134.837 127.500,133.467 127.311,132.521 127.083 C 130.250 126.535,121.977 126.539,119.771 127.090 M9.742 145.484 C 9.742 145.821,10.512 146.478,11.461 146.951 C 12.886 147.660,13.953 148.294,14.903 148.997 C 15.436 149.391,16.347 149.971,16.927 150.287 C 18.496 151.139,20.409 152.591,23.441 155.229 C 24.935 156.529,26.318 157.593,26.514 157.593 C 26.710 157.593,27.562 158.440,28.407 159.474 C 29.251 160.509,31.379 162.797,33.134 164.560 C 34.889 166.323,36.488 168.087,36.688 168.481 C 37.025 169.145,38.637 171.274,39.472 172.157 C 39.670 172.366,39.980 172.818,40.161 173.160 C 40.342 173.502,41.033 174.427,41.696 175.215 C 42.359 176.003,43.054 176.940,43.241 177.298 C 43.427 177.656,44.411 179.075,45.428 180.450 C 47.567 183.346,48.118 184.142,49.337 186.103 C 49.827 186.891,50.710 188.245,51.299 189.112 C 51.888 189.979,52.571 191.171,52.818 191.762 C 53.064 192.353,53.576 193.256,53.954 193.768 C 54.649 194.707,57.283 199.547,58.828 202.722 C 59.288 203.668,59.842 204.764,60.058 205.158 C 61.322 207.463,64.245 213.618,64.889 215.330 C 65.305 216.433,65.815 217.596,66.024 217.915 C 66.476 218.604,67.128 220.159,68.909 224.785 C 69.637 226.676,70.480 228.804,70.782 229.513 C 71.965 232.293,73.468 236.348,74.075 238.399 C 74.426 239.583,75.044 241.388,75.449 242.410 C 77.016 246.365,80.613 258.381,82.397 265.616 C 82.610 266.483,83.121 268.352,83.531 269.771 C 83.942 271.189,84.734 274.219,85.292 276.504 C 85.850 278.789,86.623 281.473,87.009 282.468 C 87.396 283.463,87.955 285.204,88.252 286.336 C 89.410 290.748,92.538 299.246,95.178 305.158 C 96.874 308.953,101.558 318.491,102.004 319.054 C 102.129 319.212,102.688 320.207,103.246 321.265 C 104.239 323.145,106.954 327.366,109.014 330.229 C 109.581 331.017,110.261 331.984,110.526 332.378 C 110.790 332.772,111.334 333.495,111.735 333.984 C 112.136 334.474,112.980 335.556,113.610 336.390 C 117.858 342.005,128.121 352.041,133.238 355.582 C 133.789 355.964,134.305 356.347,134.384 356.435 C 135.427 357.589,144.142 363.305,144.879 363.318 C 145.057 363.321,145.376 363.533,145.589 363.790 C 145.985 364.267,156.533 369.544,158.596 370.297 C 159.226 370.527,160.451 371.004,161.318 371.357 C 164.898 372.816,168.563 374.033,174.355 375.686 C 175.458 376.001,176.768 376.435,177.266 376.651 C 177.764 376.866,178.988 377.126,179.988 377.227 C 180.987 377.329,182.579 377.654,183.524 377.950 C 187.042 379.052,197.560 379.798,204.871 379.464 C 213.071 379.090,213.861 378.408,207.326 377.345 C 204.636 376.907,200.554 375.673,196.132 373.960 C 194.221 373.220,189.544 370.947,187.822 369.921 C 187.034 369.452,185.745 368.758,184.957 368.379 C 184.169 368.001,182.450 366.934,181.137 366.009 C 179.824 365.084,178.011 363.875,177.108 363.324 C 175.721 362.476,173.057 360.601,169.577 358.023 C 169.152 357.708,167.990 356.878,166.995 356.179 C 165.019 354.790,161.249 351.877,159.485 350.377 C 158.871 349.854,157.968 349.169,157.478 348.854 C 156.988 348.539,156.219 347.958,155.770 347.564 C 155.322 347.170,154.226 346.235,153.337 345.485 C 147.187 340.305,143.682 336.928,138.357 331.053 C 136.438 328.937,135.571 327.932,133.447 325.358 C 132.672 324.419,130.131 320.831,128.476 318.338 C 127.901 317.471,127.194 316.419,126.905 315.999 C 125.625 314.137,123.183 309.838,120.958 305.528 C 120.624 304.881,118.244 299.288,117.813 298.138 C 116.620 294.955,114.522 287.224,113.847 283.524 C 112.549 276.417,113.452 260.234,115.341 256.734 C 115.554 256.340,116.487 254.405,117.416 252.436 C 118.344 250.466,119.544 248.313,120.082 247.651 C 120.620 246.990,121.511 245.832,122.063 245.078 C 123.797 242.708,128.393 238.366,130.837 236.789 C 132.128 235.956,133.271 235.135,133.376 234.966 C 133.481 234.796,134.399 234.280,135.416 233.818 C 136.434 233.357,137.602 232.715,138.013 232.392 C 138.423 232.069,138.937 231.805,139.153 231.805 C 139.370 231.805,140.576 231.297,141.833 230.677 C 143.914 229.649,145.654 229.067,148.854 228.330 C 149.484 228.185,150.586 227.819,151.303 227.517 C 152.019 227.215,153.631 226.836,154.884 226.675 C 158.837 226.166,161.374 225.802,164.256 225.332 C 167.590 224.789,176.056 224.915,182.235 225.601 C 188.243 226.267,193.978 227.146,194.356 227.459 C 194.545 227.615,195.666 227.946,196.848 228.196 C 198.030 228.445,199.287 228.729,199.642 228.828 C 200.757 229.137,199.892 226.492,198.339 224.843 C 196.270 222.647,193.777 220.179,193.225 219.783 C 192.886 219.540,191.568 218.532,190.296 217.543 C 189.023 216.555,187.383 215.489,186.651 215.176 C 185.920 214.862,184.938 214.333,184.470 214.000 C 184.003 213.666,182.748 213.099,181.682 212.738 C 180.616 212.378,179.261 211.823,178.669 211.507 C 178.078 211.190,176.672 210.784,175.545 210.606 C 174.418 210.428,172.464 210.085,171.203 209.842 C 168.224 209.271,160.826 209.026,158.596 209.426 C 157.650 209.595,155.523 209.925,153.868 210.159 C 149.697 210.750,144.066 212.385,139.971 214.195 C 139.499 214.403,138.403 214.772,137.536 215.013 C 136.669 215.254,135.057 215.907,133.954 216.464 C 132.851 217.021,131.754 217.477,131.516 217.478 C 131.279 217.478,129.989 217.879,128.651 218.369 C 127.313 218.858,125.702 219.387,125.072 219.543 C 124.441 219.700,122.830 220.105,121.490 220.444 C 115.875 221.865,105.114 221.064,102.579 219.036 C 102.342 218.847,101.835 218.596,101.452 218.479 C 100.586 218.215,95.226 213.053,94.640 211.919 C 94.403 211.462,93.836 210.773,93.380 210.389 C 92.923 210.005,92.550 209.529,92.550 209.331 C 92.550 209.133,92.053 208.202,91.445 207.261 C 90.837 206.320,89.784 204.528,89.105 203.277 C 88.427 202.026,87.570 200.487,87.201 199.857 C 86.832 199.226,86.278 198.187,85.969 197.547 C 85.660 196.906,85.154 196.153,84.845 195.873 C 84.535 195.593,83.853 194.655,83.330 193.790 C 82.806 192.924,81.347 190.930,80.086 189.358 C 78.825 187.787,77.447 186.048,77.022 185.494 C 75.704 183.774,70.416 177.939,68.911 176.543 C 68.123 175.813,66.747 174.473,65.854 173.567 C 64.960 172.661,64.118 171.920,63.983 171.920 C 63.848 171.920,63.290 171.505,62.743 170.999 C 61.379 169.737,59.519 168.320,57.692 167.151 C 56.850 166.612,56.160 166.049,56.160 165.900 C 56.160 165.750,55.612 165.350,54.943 165.011 C 54.273 164.672,53.241 163.960,52.650 163.429 C 52.058 162.898,51.437 162.464,51.269 162.464 C 51.100 162.464,50.372 162.057,49.649 161.560 C 48.926 161.063,47.678 160.407,46.875 160.104 C 46.072 159.800,45.222 159.381,44.986 159.174 C 44.749 158.966,43.718 158.449,42.693 158.025 C 41.669 157.601,39.993 156.819,38.968 156.288 C 36.125 154.815,32.104 153.009,31.667 153.009 C 31.452 153.009,30.896 152.689,30.432 152.298 C 29.434 151.459,27.388 150.541,25.887 150.259 C 25.298 150.149,24.100 149.706,23.225 149.275 C 22.349 148.844,20.926 148.342,20.061 148.160 C 19.196 147.977,18.229 147.660,17.912 147.455 C 17.595 147.250,16.722 146.999,15.972 146.899 C 15.222 146.798,14.320 146.535,13.966 146.315 C 13.613 146.094,12.738 145.840,12.021 145.750 C 11.305 145.660,10.499 145.501,10.231 145.398 C 9.962 145.295,9.742 145.334,9.742 145.484 " stroke="none" fill="#0414f2" fill-rule="evenodd"></path><path id="path1" d="M124.297 126.574 C 125.605 126.628,127.668 126.627,128.882 126.574 C 130.096 126.520,129.026 126.477,126.504 126.477 C 123.983 126.477,122.990 126.521,124.297 126.574 M119.198 126.934 C 118.804 127.060,117.951 127.176,117.302 127.192 C 116.634 127.208,115.827 127.449,115.440 127.748 C 115.064 128.038,114.141 128.428,113.388 128.614 C 107.697 130.020,100.851 134.947,95.696 141.348 C 93.220 144.422,89.072 152.454,89.131 154.059 C 89.141 154.348,89.321 154.069,89.529 153.438 C 89.738 152.808,90.168 151.777,90.485 151.146 C 90.802 150.516,91.385 149.269,91.780 148.375 C 93.838 143.721,101.648 134.097,103.367 134.097 C 103.515 134.097,103.870 133.839,104.155 133.524 C 105.123 132.454,111.663 129.246,113.797 128.795 C 114.325 128.683,115.158 128.348,115.650 128.049 C 116.141 127.751,116.915 127.502,117.369 127.495 C 117.823 127.488,118.904 127.306,119.771 127.090 C 120.638 126.873,121.024 126.698,120.630 126.700 C 120.236 126.703,119.592 126.808,119.198 126.934 M132.521 127.061 C 133.309 127.276,134.615 127.465,135.423 127.480 C 136.356 127.497,137.024 127.665,137.252 127.940 C 137.449 128.178,138.285 128.568,139.109 128.808 C 139.932 129.047,141.332 129.680,142.218 130.214 C 143.105 130.748,144.316 131.342,144.909 131.535 C 145.503 131.728,146.472 132.319,147.064 132.848 C 147.655 133.378,148.249 133.811,148.382 133.811 C 148.516 133.811,149.012 134.165,149.485 134.599 C 149.957 135.032,151.322 136.259,152.519 137.324 C 157.321 141.601,162.055 149.905,163.312 156.257 C 163.472 157.069,163.558 157.214,163.579 156.712 C 163.674 154.469,159.892 145.630,157.473 142.442 C 156.830 141.595,156.046 140.559,155.731 140.140 C 154.568 138.592,149.069 133.524,148.552 133.524 C 148.448 133.524,147.715 133.009,146.923 132.378 C 146.132 131.748,145.278 131.232,145.026 131.232 C 144.773 131.232,143.855 130.793,142.986 130.257 C 142.116 129.721,140.695 129.058,139.828 128.783 C 138.961 128.508,137.994 128.060,137.679 127.788 C 137.302 127.463,136.371 127.233,134.957 127.115 C 133.775 127.017,132.421 126.876,131.948 126.803 C 131.476 126.730,131.734 126.846,132.521 127.061 M9.169 145.148 C 9.169 145.685,9.903 146.486,10.825 146.954 C 11.412 147.252,12.417 147.761,13.060 148.086 C 13.702 148.411,14.404 148.888,14.618 149.147 C 14.833 149.405,15.726 149.997,16.602 150.461 C 18.523 151.478,20.133 152.695,22.714 155.082 C 23.782 156.069,25.246 157.219,25.969 157.636 C 27.110 158.295,29.502 160.749,29.519 161.278 C 29.527 161.522,32.401 164.495,34.613 166.547 C 35.590 167.453,36.390 168.333,36.390 168.503 C 36.390 168.673,37.002 169.598,37.751 170.559 C 40.522 174.118,43.015 177.468,43.326 178.048 C 43.502 178.377,44.249 179.423,44.986 180.372 C 45.722 181.322,46.494 182.419,46.700 182.811 C 46.907 183.203,47.411 183.927,47.821 184.420 C 48.772 185.561,51.525 189.916,52.697 192.134 C 53.193 193.072,54.005 194.484,54.501 195.272 C 54.998 196.060,56.674 199.210,58.226 202.273 C 59.778 205.335,61.157 207.978,61.291 208.147 C 61.425 208.315,61.632 208.775,61.750 209.169 C 61.869 209.563,62.190 210.208,62.464 210.602 C 62.737 210.996,63.446 212.543,64.039 214.040 C 64.633 215.537,65.475 217.471,65.911 218.338 C 66.347 219.205,67.046 220.817,67.464 221.920 C 67.883 223.023,68.344 224.183,68.490 224.499 C 68.812 225.194,70.295 228.968,71.247 231.519 C 71.630 232.543,72.117 233.768,72.330 234.241 C 72.542 234.713,73.000 236.003,73.346 237.106 C 73.693 238.209,74.365 240.143,74.840 241.404 C 75.315 242.665,75.933 244.470,76.215 245.415 C 76.496 246.361,76.859 247.457,77.022 247.851 C 77.445 248.874,79.057 254.391,81.249 262.321 C 81.855 264.513,82.258 265.638,82.122 264.756 C 82.012 264.042,81.855 263.457,79.663 255.587 C 78.311 250.729,76.492 245.044,75.449 242.410 C 75.044 241.388,74.426 239.583,74.075 238.399 C 73.468 236.348,71.965 232.293,70.782 229.513 C 70.480 228.804,69.637 226.676,68.909 224.785 C 67.128 220.159,66.476 218.604,66.024 217.915 C 65.815 217.596,65.305 216.433,64.889 215.330 C 64.245 213.618,61.322 207.463,60.058 205.158 C 59.842 204.764,59.288 203.668,58.828 202.722 C 57.283 199.547,54.649 194.707,53.954 193.768 C 53.576 193.256,53.064 192.353,52.818 191.762 C 52.571 191.171,51.888 189.979,51.299 189.112 C 50.710 188.245,49.827 186.891,49.337 186.103 C 48.118 184.142,47.567 183.346,45.428 180.450 C 44.411 179.075,43.427 177.656,43.241 177.298 C 43.054 176.940,42.359 176.003,41.696 175.215 C 41.033 174.427,40.342 173.502,40.161 173.160 C 39.980 172.818,39.670 172.366,39.472 172.157 C 38.637 171.274,37.025 169.145,36.688 168.481 C 36.488 168.087,34.889 166.323,33.134 164.560 C 31.379 162.797,29.251 160.509,28.407 159.474 C 27.562 158.440,26.710 157.593,26.514 157.593 C 26.318 157.593,24.935 156.529,23.441 155.229 C 20.409 152.591,18.496 151.139,16.927 150.287 C 16.347 149.971,15.436 149.391,14.903 148.997 C 13.877 148.239,12.745 147.573,11.295 146.876 C 9.526 146.025,9.248 145.088,10.905 145.564 C 11.445 145.719,12.211 145.834,12.606 145.821 C 13.001 145.808,12.550 145.623,11.605 145.410 C 9.648 144.969,9.169 144.917,9.169 145.148 M13.914 146.266 C 14.220 146.497,14.663 146.686,14.900 146.686 C 15.149 146.685,15.029 146.513,14.613 146.275 C 13.671 145.737,13.206 145.731,13.914 146.266 M16.303 146.915 C 16.839 146.981,17.550 147.213,17.883 147.431 C 18.216 147.649,19.196 147.977,20.061 148.160 C 20.926 148.342,22.349 148.844,23.225 149.275 C 24.100 149.706,25.298 150.149,25.887 150.259 C 27.388 150.541,29.434 151.459,30.432 152.298 C 30.896 152.689,31.452 153.009,31.667 153.009 C 32.104 153.009,36.125 154.815,38.968 156.288 C 39.993 156.819,41.669 157.601,42.693 158.025 C 43.718 158.449,44.749 158.966,44.986 159.174 C 45.222 159.381,46.072 159.800,46.875 160.104 C 47.678 160.407,48.926 161.063,49.649 161.560 C 50.372 162.057,51.100 162.464,51.269 162.464 C 51.437 162.464,52.058 162.898,52.650 163.429 C 53.241 163.960,54.273 164.672,54.943 165.011 C 55.612 165.350,56.160 165.750,56.160 165.900 C 56.160 166.049,56.850 166.612,57.692 167.151 C 59.519 168.320,61.379 169.737,62.743 170.999 C 63.290 171.505,63.848 171.920,63.983 171.920 C 64.118 171.920,64.960 172.661,65.854 173.567 C 66.747 174.473,68.123 175.813,68.911 176.543 C 70.416 177.939,75.704 183.774,77.022 185.494 C 77.447 186.048,78.825 187.787,80.086 189.358 C 81.347 190.930,82.806 192.924,83.330 193.790 C 83.853 194.655,84.535 195.593,84.845 195.873 C 85.154 196.153,85.660 196.906,85.969 197.547 C 86.278 198.187,86.832 199.226,87.201 199.857 C 87.570 200.487,88.427 202.026,89.105 203.277 C 89.784 204.528,90.837 206.320,91.445 207.261 C 92.053 208.202,92.550 209.133,92.550 209.331 C 92.550 209.529,92.923 210.005,93.380 210.389 C 93.836 210.773,94.403 211.462,94.640 211.919 C 95.226 213.052,100.585 218.214,101.452 218.480 C 101.835 218.598,102.327 218.838,102.545 219.012 C 104.560 220.631,112.655 221.664,118.195 221.009 C 119.716 220.830,118.711 220.773,114.040 220.773 C 107.341 220.774,105.952 220.506,102.077 218.464 C 100.450 217.607,95.847 213.390,95.214 212.178 C 94.967 211.705,94.267 210.773,93.658 210.107 C 93.049 209.440,92.550 208.743,92.550 208.558 C 92.550 208.372,92.246 207.821,91.874 207.334 C 91.294 206.572,87.901 200.603,86.103 197.179 C 85.788 196.579,85.233 195.711,84.870 195.250 C 83.255 193.200,82.521 192.167,82.521 191.940 C 82.521 191.805,81.458 190.396,80.158 188.807 C 78.857 187.219,77.430 185.446,76.986 184.867 C 74.750 181.954,65.024 171.920,64.435 171.920 C 64.309 171.920,63.394 171.191,62.403 170.301 C 61.412 169.410,59.754 168.129,58.719 167.454 C 57.683 166.779,56.660 166.016,56.445 165.757 C 56.231 165.499,55.596 165.053,55.033 164.766 C 54.471 164.479,53.754 163.959,53.438 163.610 C 53.123 163.262,52.350 162.714,51.719 162.394 C 51.089 162.074,50.057 161.462,49.427 161.034 C 48.797 160.605,47.765 160.091,47.135 159.892 C 46.504 159.692,45.731 159.303,45.415 159.027 C 45.100 158.751,44.004 158.195,42.980 157.791 C 41.956 157.387,40.150 156.561,38.968 155.955 C 36.724 154.805,33.975 153.543,31.837 152.681 C 31.145 152.402,30.307 151.927,29.975 151.625 C 29.386 151.089,26.186 149.857,25.386 149.857 C 25.167 149.857,24.231 149.481,23.306 149.023 C 22.382 148.564,21.112 148.099,20.483 147.988 C 19.855 147.878,18.915 147.544,18.393 147.246 C 17.865 146.944,16.978 146.725,16.388 146.751 L 15.330 146.797 16.303 146.915 M241.332 149.768 C 241.608 149.840,242.059 149.840,242.335 149.768 C 242.611 149.696,242.385 149.637,241.834 149.637 C 241.282 149.637,241.057 149.696,241.332 149.768 M88.726 155.371 C 88.633 155.740,88.491 156.809,88.410 157.748 C 88.280 159.263,88.309 159.198,88.670 157.170 C 89.056 155.006,89.090 153.922,88.726 155.371 M163.699 159.169 C 163.701 160.115,163.754 160.467,163.818 159.952 C 163.882 159.437,163.880 158.663,163.815 158.233 C 163.750 157.802,163.697 158.223,163.699 159.169 M88.032 160.458 C 88.032 161.010,88.091 161.236,88.163 160.960 C 88.235 160.684,88.235 160.233,88.163 159.957 C 88.091 159.681,88.032 159.907,88.032 160.458 M87.788 164.900 C 87.789 166.791,87.835 167.527,87.892 166.536 C 87.948 165.545,87.947 163.998,87.890 163.098 C 87.834 162.198,87.788 163.009,87.788 164.900 M163.999 164.613 C 163.998 166.032,164.046 166.648,164.106 165.983 C 164.166 165.318,164.167 164.157,164.108 163.404 C 164.049 162.651,163.999 163.195,163.999 164.613 M163.663 169.234 C 163.634 170.041,163.546 171.137,163.468 171.669 L 163.326 172.636 163.625 171.682 C 163.790 171.157,163.878 170.061,163.821 169.246 L 163.716 167.765 163.663 169.234 M88.038 169.771 C 88.041 170.401,88.100 170.625,88.168 170.269 C 88.237 169.912,88.234 169.397,88.162 169.123 C 88.091 168.849,88.035 169.140,88.038 169.771 M88.319 171.920 C 88.319 172.471,88.378 172.697,88.450 172.421 C 88.522 172.145,88.522 171.694,88.450 171.418 C 88.378 171.143,88.319 171.368,88.319 171.920 M162.797 173.885 C 162.614 174.496,162.473 175.173,162.484 175.391 C 162.495 175.610,162.696 175.162,162.931 174.397 C 163.166 173.631,163.307 172.954,163.244 172.891 C 163.181 172.827,162.979 173.275,162.797 173.885 M88.565 173.352 C 88.555 173.589,88.733 174.298,88.960 174.928 C 89.187 175.559,89.369 175.817,89.364 175.501 C 89.353 174.802,88.589 172.749,88.565 173.352 M161.760 177.587 C 160.892 180.272,158.504 184.812,156.775 187.066 C 155.886 188.225,154.975 189.427,154.752 189.735 C 153.710 191.175,149.440 194.943,147.278 196.330 C 144.603 198.046,140.329 200.189,138.825 200.567 C 138.037 200.766,136.573 201.170,135.572 201.467 C 134.570 201.763,133.216 202.027,132.563 202.054 L 131.375 202.102 132.466 202.215 C 134.003 202.375,140.998 200.400,142.693 199.327 C 143.245 198.978,144.083 198.524,144.556 198.319 C 149.275 196.270,156.236 189.339,159.490 183.450 C 160.842 181.003,162.678 176.336,162.399 176.057 C 162.339 175.997,162.052 176.686,161.760 177.587 M89.405 176.399 C 89.372 178.069,93.802 186.295,96.138 188.902 C 96.528 189.338,96.848 189.814,96.848 189.961 C 96.848 190.807,103.826 196.165,107.307 197.992 C 108.095 198.405,109.077 198.966,109.490 199.237 C 110.375 199.819,112.906 200.726,114.327 200.970 C 114.878 201.065,114.218 200.778,112.860 200.331 C 111.502 199.885,110.019 199.262,109.565 198.947 C 109.111 198.632,108.481 198.280,108.166 198.166 C 103.176 196.351,95.588 188.931,92.607 182.951 C 92.214 182.163,91.662 181.188,91.381 180.785 C 91.099 180.381,90.775 179.672,90.659 179.209 C 90.399 178.164,89.413 175.957,89.405 176.399 M116.189 201.586 C 116.662 201.803,117.307 201.977,117.622 201.974 C 117.937 201.970,117.615 201.785,116.905 201.561 C 115.315 201.060,115.059 201.069,116.189 201.586 M118.911 202.291 C 119.619 202.519,122.270 202.675,122.039 202.476 C 121.973 202.419,121.082 202.302,120.057 202.216 C 118.940 202.122,118.481 202.152,118.911 202.291 M125.788 202.579 L 122.206 202.749 125.501 202.786 C 127.314 202.806,129.377 202.720,130.086 202.593 C 131.627 202.319,131.269 202.318,125.788 202.579 M158.453 209.135 C 157.901 209.233,160.158 209.312,163.467 209.312 C 166.777 209.312,168.904 209.225,168.195 209.119 C 166.612 208.881,159.827 208.892,158.453 209.135 M155.444 209.742 C 154.672 209.939,154.657 209.961,155.301 209.966 C 155.695 209.969,156.340 209.868,156.734 209.742 C 157.697 209.434,156.656 209.434,155.444 209.742 M170.344 209.742 C 171.556 210.051,172.596 210.051,171.633 209.742 C 171.239 209.616,170.595 209.515,170.201 209.518 C 169.557 209.523,169.572 209.546,170.344 209.742 M150.430 210.481 L 149.140 210.877 150.287 210.691 C 150.917 210.588,152.077 210.415,152.865 210.307 L 154.298 210.109 153.009 210.097 C 152.299 210.090,151.139 210.263,150.430 210.481 M172.994 210.231 C 173.349 210.299,173.929 210.299,174.284 210.231 C 174.638 210.163,174.348 210.107,173.639 210.107 C 172.930 210.107,172.640 210.163,172.994 210.231 M175.096 210.420 C 175.161 210.478,175.731 210.604,176.361 210.700 C 177.160 210.822,177.333 210.796,176.934 210.615 C 176.384 210.366,174.849 210.203,175.096 210.420 M145.272 211.943 C 143.775 212.500,141.955 213.123,141.227 213.328 C 140.499 213.534,139.661 213.839,139.364 214.007 C 139.068 214.175,137.794 214.655,136.533 215.075 C 135.272 215.495,133.937 216.075,133.567 216.364 C 133.196 216.654,132.435 216.976,131.875 217.081 C 131.315 217.186,129.813 217.655,128.537 218.122 C 127.261 218.590,125.702 219.100,125.072 219.256 C 124.441 219.412,123.114 219.736,122.122 219.977 C 121.130 220.217,120.372 220.468,120.438 220.534 C 120.504 220.599,121.315 220.466,122.242 220.238 C 123.168 220.009,124.441 219.696,125.072 219.541 C 125.702 219.386,127.313 218.858,128.651 218.369 C 129.989 217.879,131.264 217.479,131.484 217.479 C 131.704 217.479,132.930 216.971,134.208 216.352 C 135.487 215.732,137.178 215.068,137.966 214.878 C 138.754 214.687,139.527 214.432,139.685 214.312 C 139.987 214.080,142.535 213.142,144.699 212.464 C 147.184 211.686,149.135 210.907,148.567 210.919 C 148.252 210.926,146.769 211.387,145.272 211.943 M178.630 211.486 C 179.243 211.814,180.616 212.378,181.682 212.738 C 182.748 213.099,184.003 213.666,184.470 214.000 C 184.938 214.333,185.920 214.862,186.651 215.176 C 187.383 215.489,189.023 216.555,190.296 217.543 C 191.568 218.532,192.886 219.540,193.225 219.783 C 193.899 220.267,197.042 223.402,198.461 225.006 C 199.377 226.040,200.506 228.529,200.199 228.836 C 200.106 228.930,199.617 228.862,199.112 228.686 C 198.608 228.511,197.924 228.376,197.593 228.387 C 197.262 228.399,197.745 228.606,198.666 228.847 C 200.875 229.426,201.095 229.165,200.126 227.119 C 197.891 222.400,187.212 214.023,181.125 212.215 C 180.315 211.974,179.367 211.577,179.017 211.333 C 178.668 211.088,178.187 210.888,177.949 210.888 C 177.711 210.888,178.017 211.157,178.630 211.486 M164.040 225.359 C 162.937 225.576,161.583 225.778,161.032 225.809 C 160.249 225.854,160.181 225.895,160.725 225.997 C 161.108 226.069,162.757 225.909,164.389 225.641 C 167.275 225.168,171.243 225.162,180.516 225.618 L 182.665 225.724 180.659 225.464 C 177.011 224.992,166.260 224.924,164.040 225.359 M182.832 225.893 C 182.898 225.951,183.854 226.065,184.957 226.145 C 186.105 226.229,186.718 226.193,186.390 226.060 C 185.832 225.835,182.593 225.683,182.832 225.893 M157.307 226.363 C 157.013 226.555,157.331 226.586,158.309 226.462 C 159.097 226.362,159.796 226.234,159.862 226.177 C 160.146 225.932,157.694 226.111,157.307 226.363 M187.464 226.559 C 187.740 226.631,188.191 226.631,188.467 226.559 C 188.743 226.486,188.517 226.428,187.966 226.428 C 187.414 226.428,187.188 226.486,187.464 226.559 M153.102 226.947 C 152.444 227.077,151.516 227.385,151.039 227.632 C 150.562 227.878,149.940 228.090,149.656 228.103 C 149.330 228.117,149.278 228.180,149.514 228.275 C 149.720 228.358,150.625 228.149,151.525 227.813 C 152.426 227.476,153.998 227.092,155.020 226.960 C 156.591 226.757,156.678 226.719,155.587 226.715 C 154.878 226.713,153.760 226.817,153.102 226.947 M189.617 226.850 C 189.973 226.919,190.489 226.916,190.763 226.844 C 191.037 226.773,190.745 226.717,190.115 226.720 C 189.484 226.723,189.260 226.782,189.617 226.850 M192.407 227.216 C 193.037 227.332,194.032 227.638,194.618 227.897 C 195.204 228.155,195.978 228.355,196.338 228.341 C 196.815 228.322,196.721 228.241,195.989 228.039 C 195.437 227.888,194.579 227.577,194.083 227.349 C 193.586 227.121,192.748 226.950,192.220 226.970 C 191.267 227.006,191.269 227.007,192.407 227.216 M146.991 228.797 C 146.440 229.009,145.731 229.193,145.415 229.206 C 145.100 229.219,143.643 229.809,142.176 230.517 C 140.710 231.226,139.341 231.805,139.135 231.805 C 138.928 231.805,138.423 232.069,138.013 232.392 C 137.602 232.715,136.434 233.357,135.416 233.818 C 134.399 234.280,133.481 234.796,133.376 234.966 C 133.271 235.135,132.128 235.956,130.837 236.789 C 128.393 238.366,123.797 242.708,122.063 245.078 C 121.511 245.832,120.620 246.990,120.082 247.651 C 119.544 248.313,118.344 250.466,117.416 252.436 C 116.487 254.405,115.541 256.359,115.314 256.778 C 115.086 257.196,114.901 257.712,114.904 257.924 C 114.908 258.331,115.420 257.332,117.728 252.421 C 118.509 250.758,119.578 248.861,120.104 248.206 C 120.630 247.550,121.510 246.396,122.059 245.642 C 123.719 243.361,128.887 238.417,131.057 237.034 C 132.177 236.319,133.417 235.452,133.811 235.106 C 134.205 234.761,135.127 234.258,135.861 233.988 C 136.594 233.719,137.535 233.182,137.953 232.795 C 138.370 232.408,138.888 232.092,139.103 232.092 C 139.319 232.092,140.720 231.511,142.217 230.802 C 143.715 230.093,145.111 229.511,145.321 229.509 C 145.531 229.506,146.476 229.255,147.421 228.951 C 148.367 228.647,148.883 228.400,148.567 228.404 C 148.252 228.407,147.543 228.584,146.991 228.797 M114.196 261.045 C 113.908 262.464,113.729 263.681,113.797 263.749 C 113.866 263.818,114.157 262.712,114.444 261.292 C 114.731 259.872,114.911 258.655,114.843 258.587 C 114.775 258.520,114.485 259.625,114.196 261.045 M113.549 265.473 C 113.551 266.261,113.607 266.549,113.673 266.114 C 113.739 265.678,113.737 265.033,113.669 264.681 C 113.601 264.328,113.547 264.685,113.549 265.473 M82.264 266.099 C 82.248 266.443,82.381 267.088,82.559 267.531 C 82.923 268.438,83.470 270.460,84.985 276.504 C 85.558 278.789,86.342 281.473,86.726 282.468 C 87.111 283.463,87.672 285.243,87.974 286.424 C 88.580 288.793,90.311 293.739,90.477 293.573 C 90.534 293.516,90.175 292.327,89.679 290.932 C 89.183 289.537,88.538 287.469,88.245 286.336 C 87.952 285.204,87.396 283.463,87.009 282.468 C 86.623 281.473,85.850 278.789,85.292 276.504 C 84.734 274.219,83.942 271.189,83.531 269.771 C 83.120 268.352,82.674 266.805,82.539 266.332 C 82.345 265.653,82.287 265.604,82.264 266.099 M113.253 268.052 C 113.256 268.682,113.315 268.906,113.383 268.550 C 113.452 268.193,113.449 267.677,113.377 267.404 C 113.306 267.130,113.250 267.421,113.253 268.052 M113.266 277.937 C 113.266 278.804,113.320 279.158,113.386 278.725 C 113.451 278.292,113.451 277.582,113.386 277.149 C 113.320 276.716,113.266 277.070,113.266 277.937 M113.528 280.516 C 113.519 281.067,113.694 282.421,113.916 283.524 L 114.319 285.530 114.141 283.811 C 113.834 280.854,113.547 279.309,113.528 280.516 M114.375 286.103 C 114.371 286.418,114.478 286.934,114.613 287.249 C 114.927 287.979,114.927 287.226,114.613 286.246 C 114.429 285.671,114.382 285.642,114.375 286.103 M114.914 288.220 C 114.894 288.766,117.020 295.788,117.117 295.497 C 117.160 295.368,116.685 293.589,116.062 291.543 C 115.438 289.496,114.922 288.001,114.914 288.220 M90.553 294.126 C 90.531 294.530,92.910 300.595,93.039 300.466 C 93.097 300.408,92.565 298.893,91.857 297.100 C 91.148 295.307,90.561 293.968,90.553 294.126 M117.207 296.193 C 117.185 296.706,119.893 303.441,120.961 305.528 C 122.990 309.494,125.628 314.142,126.905 315.999 C 127.194 316.419,127.901 317.471,128.476 318.338 C 130.131 320.831,132.672 324.419,133.447 325.358 C 135.571 327.932,136.438 328.937,138.357 331.053 C 143.682 336.928,147.187 340.305,153.337 345.485 C 154.226 346.235,155.322 347.170,155.770 347.564 C 156.219 347.958,156.988 348.539,157.478 348.854 C 157.968 349.169,158.871 349.854,159.485 350.377 C 161.249 351.877,165.019 354.790,166.995 356.179 C 167.990 356.878,169.152 357.708,169.577 358.023 C 173.057 360.601,175.721 362.476,177.108 363.324 C 178.011 363.875,179.824 365.084,181.137 366.009 C 182.450 366.934,184.169 368.001,184.957 368.379 C 185.745 368.758,187.034 369.452,187.822 369.921 C 189.595 370.977,193.680 372.956,196.418 374.086 C 198.066 374.766,201.820 375.926,201.950 375.796 C 202.011 375.735,201.243 375.429,200.243 375.116 C 199.242 374.803,197.457 374.141,196.275 373.644 C 195.093 373.147,193.754 372.602,193.300 372.432 C 192.846 372.263,191.339 371.498,189.952 370.732 C 188.565 369.967,187.313 369.341,187.169 369.341 C 187.026 369.341,186.682 369.090,186.404 368.784 C 186.127 368.478,185.547 368.150,185.116 368.055 C 184.685 367.960,182.699 366.760,180.703 365.388 C 178.708 364.016,176.527 362.549,175.858 362.128 C 175.189 361.707,173.675 360.649,172.493 359.777 C 171.311 358.906,169.477 357.574,168.417 356.818 C 166.493 355.447,162.185 352.123,160.044 350.359 C 159.422 349.846,158.507 349.169,158.011 348.854 C 152.856 345.577,132.378 325.323,132.378 323.500 C 132.378 323.339,131.701 322.315,130.874 321.225 C 130.047 320.135,129.144 318.878,128.869 318.432 C 128.594 317.987,128.014 317.086,127.580 316.431 C 126.206 314.359,123.607 309.959,122.527 307.880 C 121.955 306.777,121.369 305.681,121.226 305.444 C 121.083 305.208,120.683 304.305,120.338 303.438 C 119.993 302.572,119.537 301.476,119.325 301.003 C 119.112 300.530,118.552 299.176,118.080 297.994 C 117.608 296.812,117.215 296.002,117.207 296.193 M93.269 301.433 C 94.197 304.491,102.176 320.501,104.694 324.355 C 112.343 336.066,116.128 340.584,126.677 350.593 C 128.311 352.144,130.624 354.057,132.891 355.732 C 133.318 356.047,134.683 357.079,135.923 358.024 C 138.334 359.861,139.772 360.802,142.883 362.582 C 143.961 363.198,145.036 363.863,145.272 364.059 C 146.814 365.339,160.399 371.570,164.327 372.800 C 165.272 373.096,166.304 373.466,166.619 373.622 C 167.615 374.115,170.592 375.073,171.050 375.048 C 171.447 375.026,169.400 374.255,165.043 372.786 C 164.176 372.493,162.500 371.846,161.318 371.348 C 160.136 370.849,158.911 370.371,158.596 370.285 C 157.424 369.964,145.965 364.244,145.591 363.792 C 145.377 363.535,145.057 363.321,144.879 363.318 C 144.142 363.305,135.427 357.589,134.384 356.435 C 134.305 356.347,133.789 355.964,133.238 355.582 C 128.121 352.041,117.858 342.005,113.610 336.390 C 112.980 335.556,112.136 334.474,111.735 333.984 C 111.334 333.495,110.790 332.772,110.526 332.378 C 110.261 331.984,109.581 331.017,109.014 330.229 C 106.954 327.366,104.239 323.145,103.246 321.265 C 102.688 320.207,102.129 319.212,102.004 319.054 C 101.547 318.476,96.854 308.909,95.117 305.014 C 93.320 300.984,92.867 300.105,93.269 301.433 M172.063 375.274 C 172.378 375.348,173.962 375.857,175.582 376.405 C 177.202 376.953,178.813 377.346,179.163 377.278 C 179.705 377.174,179.684 377.150,179.021 377.116 C 178.593 377.095,177.820 376.895,177.302 376.672 C 175.728 375.993,172.629 375.070,172.043 375.105 C 171.518 375.136,171.519 375.145,172.063 375.274 M203.295 376.504 C 203.926 376.796,204.764 377.031,205.158 377.027 C 205.797 377.020,205.782 376.996,205.014 376.811 C 204.542 376.697,203.873 376.452,203.529 376.268 C 203.185 376.083,202.733 375.941,202.526 375.952 C 202.319 375.964,202.665 376.212,203.295 376.504 M206.662 377.275 C 206.938 377.347,207.389 377.347,207.665 377.275 C 207.941 377.203,207.715 377.144,207.163 377.144 C 206.612 377.144,206.386 377.203,206.662 377.275 M180.444 377.566 C 180.799 377.634,181.379 377.634,181.734 377.566 C 182.088 377.498,181.798 377.442,181.089 377.442 C 180.380 377.442,180.090 377.498,180.444 377.566 M183.194 378.115 C 183.642 378.358,184.738 378.606,185.629 378.665 L 187.249 378.772 185.817 378.529 C 185.029 378.395,184.021 378.142,183.577 377.968 C 182.434 377.518,182.233 377.595,183.194 378.115 M210.883 378.105 C 211.932 378.560,211.727 379.042,210.458 379.101 C 210.129 379.117,210.043 379.192,210.256 379.277 C 210.866 379.522,212.034 379.104,212.034 378.641 C 212.034 378.403,211.704 378.084,211.299 377.930 C 210.127 377.484,209.784 377.629,210.883 378.105 M188.754 378.999 C 189.108 379.067,189.688 379.067,190.043 378.999 C 190.398 378.930,190.107 378.875,189.398 378.875 C 188.689 378.875,188.399 378.930,188.754 378.999 M191.691 379.378 C 192.242 379.524,195.143 379.702,198.138 379.772 L 203.582 379.900 198.805 379.671 C 196.178 379.545,193.277 379.367,192.358 379.277 C 191.010 379.144,190.881 379.164,191.691 379.378 M205.240 379.582 C 206.152 379.639,207.570 379.638,208.392 379.581 C 209.213 379.523,208.467 379.476,206.734 379.477 C 205.000 379.477,204.328 379.525,205.240 379.582 " stroke="none" fill="#3b3a61" fill-rule="evenodd"></path><path id="path2" d="M391.932 24.022 C 391.041 24.442,390.074 24.995,389.783 25.252 C 389.493 25.509,388.804 25.945,388.252 26.222 C 386.261 27.221,376.901 33.344,373.782 35.689 C 372.837 36.399,371.544 37.331,370.909 37.760 C 366.387 40.812,350.437 55.777,347.786 59.456 C 347.218 60.244,346.341 61.275,345.838 61.748 C 344.742 62.776,340.992 67.570,337.318 72.636 C 336.404 73.897,335.376 75.315,335.033 75.788 C 334.690 76.261,333.582 78.066,332.569 79.799 C 331.557 81.533,330.066 84.047,329.256 85.387 C 327.452 88.368,323.894 95.507,322.472 98.997 C 321.895 100.415,321.098 102.218,320.702 103.002 C 320.306 103.787,319.750 105.076,319.467 105.867 C 319.184 106.659,318.675 108.016,318.336 108.883 C 317.997 109.749,317.547 111.103,317.336 111.891 C 317.125 112.679,316.756 113.904,316.515 114.613 C 316.275 115.322,315.808 116.999,315.477 118.338 C 314.194 123.534,313.653 125.459,312.701 128.223 C 312.158 129.799,311.596 131.551,311.453 132.117 C 311.310 132.682,310.739 133.907,310.184 134.839 C 309.629 135.771,308.843 137.207,308.437 138.032 C 308.031 138.856,307.574 139.608,307.420 139.703 C 307.266 139.798,306.834 140.362,306.459 140.955 C 304.416 144.192,296.686 149.413,292.864 150.138 C 292.117 150.280,291.193 150.522,290.810 150.677 C 287.396 152.055,274.748 152.556,267.479 151.601 C 257.648 150.309,251.878 149.856,245.415 149.868 C 238.024 149.881,233.163 150.236,229.943 150.996 C 221.888 152.898,219.025 153.765,216.727 154.997 C 216.121 155.322,215.429 155.587,215.190 155.587 C 214.385 155.587,208.832 158.828,205.222 161.404 C 198.941 165.887,191.140 174.725,188.668 180.159 C 188.434 180.672,187.794 181.794,187.245 182.652 C 186.696 183.511,186.246 184.487,186.246 184.821 C 186.246 185.155,185.914 185.995,185.508 186.688 C 183.968 189.316,184.897 189.658,188.450 187.770 C 191.622 186.084,194.287 184.758,196.132 183.948 C 196.920 183.602,198.338 182.946,199.284 182.490 C 200.229 182.035,201.159 181.662,201.350 181.662 C 201.541 181.662,202.637 181.220,203.786 180.679 C 205.955 179.658,206.915 179.296,212.894 177.246 C 217.264 175.747,219.264 175.144,222.063 174.478 C 224.100 173.994,225.031 173.764,227.865 173.043 C 228.535 172.872,229.986 172.614,231.089 172.468 C 232.192 172.323,234.448 172.002,236.103 171.754 C 242.446 170.807,253.703 170.811,258.309 171.763 C 259.413 171.991,261.205 172.260,262.292 172.362 C 263.379 172.464,265.571 172.974,267.163 173.495 C 268.755 174.016,270.509 174.532,271.060 174.642 C 271.612 174.752,272.594 175.146,273.243 175.519 C 273.892 175.892,275.181 176.480,276.108 176.825 C 277.035 177.171,278.267 177.751,278.844 178.114 C 279.422 178.477,280.196 178.850,280.564 178.944 C 282.256 179.375,288.620 183.959,293.213 188.056 C 296.501 190.988,301.589 197.615,303.484 201.433 C 303.914 202.299,304.460 203.331,304.697 203.725 C 304.934 204.119,305.469 205.279,305.886 206.304 C 306.303 207.328,306.804 208.553,307.000 209.026 C 307.196 209.499,307.780 211.433,308.298 213.324 C 308.815 215.215,309.409 217.344,309.617 218.055 C 309.825 218.766,310.137 220.442,310.311 221.780 C 310.484 223.117,310.750 224.792,310.902 225.501 C 311.470 228.159,311.577 239.695,311.068 243.410 C 310.809 245.301,310.480 248.097,310.336 249.624 C 310.193 251.150,309.881 253.278,309.645 254.352 C 309.408 255.425,308.811 258.238,308.318 260.602 C 307.825 262.966,307.184 265.673,306.894 266.619 C 306.604 267.564,306.151 269.112,305.889 270.057 C 304.549 274.882,301.104 284.439,299.846 286.819 C 299.638 287.213,298.711 289.148,297.785 291.117 C 295.674 295.612,295.539 295.881,294.697 297.278 C 294.317 297.908,293.769 298.875,293.479 299.427 C 292.270 301.726,290.202 305.350,289.719 306.017 C 289.221 306.705,288.276 308.179,286.964 310.315 C 286.625 310.867,285.713 312.270,284.936 313.435 C 284.160 314.599,283.202 316.045,282.808 316.648 C 282.085 317.755,280.140 320.522,278.141 323.285 C 277.544 324.110,276.735 325.236,276.343 325.788 C 275.447 327.050,274.423 328.401,272.779 330.491 C 272.070 331.392,271.211 332.511,270.870 332.976 C 270.529 333.441,269.884 334.247,269.437 334.767 C 268.990 335.287,268.109 336.344,267.479 337.117 C 260.121 346.132,245.431 360.941,236.317 368.531 C 235.116 369.531,230.953 372.347,228.303 373.951 C 227.629 374.359,226.046 375.126,224.785 375.655 C 217.807 378.584,221.055 379.416,230.229 377.050 C 230.860 376.888,232.213 376.581,233.238 376.369 C 234.262 376.156,236.777 375.386,238.825 374.657 C 240.874 373.928,243.001 373.199,243.553 373.037 C 245.223 372.547,250.650 370.166,253.582 368.638 C 253.976 368.433,256.400 367.206,258.969 365.911 C 261.538 364.617,264.439 363.055,265.416 362.442 C 266.393 361.828,267.579 361.112,268.052 360.851 C 268.524 360.590,269.814 359.797,270.917 359.088 C 272.020 358.379,273.696 357.302,274.642 356.695 C 278.507 354.215,281.666 351.959,283.998 350.014 C 284.574 349.533,285.773 348.560,286.663 347.851 C 287.553 347.142,289.244 345.695,290.423 344.637 C 291.601 343.578,293.045 342.353,293.632 341.914 C 295.088 340.827,304.400 331.431,305.780 329.656 C 306.393 328.868,307.796 327.128,308.897 325.788 C 309.999 324.448,311.949 321.870,313.232 320.057 C 314.514 318.245,315.934 316.246,316.387 315.616 C 320.537 309.845,327.641 296.696,330.087 290.258 C 330.297 289.706,330.575 289.114,330.705 288.942 C 330.926 288.648,331.828 286.110,333.852 280.086 C 334.328 278.668,334.957 276.862,335.250 276.074 C 335.543 275.287,336.316 272.643,336.968 270.201 C 337.620 267.758,338.357 265.050,338.606 264.183 C 338.855 263.317,339.220 261.640,339.418 260.458 C 339.616 259.277,339.984 257.342,340.235 256.160 C 341.040 252.374,342.054 246.083,342.383 242.837 C 342.558 241.103,342.905 237.686,343.153 235.244 C 343.961 227.290,344.094 223.054,344.137 203.868 C 344.192 179.803,344.641 167.570,345.844 157.450 C 346.143 154.928,346.460 151.511,346.548 149.857 C 346.636 148.202,346.906 145.688,347.148 144.269 C 347.390 142.851,347.707 140.659,347.853 139.398 C 347.999 138.138,348.315 135.393,348.556 133.300 C 348.797 131.207,349.193 128.563,349.438 127.426 C 349.682 126.289,350.068 124.246,350.295 122.886 C 350.522 121.526,350.774 120.237,350.856 120.021 C 350.938 119.804,351.192 118.403,351.421 116.905 C 351.650 115.408,352.166 112.765,352.569 111.032 C 352.971 109.298,353.475 107.042,353.690 106.017 C 353.904 104.993,354.211 103.832,354.372 103.438 C 354.533 103.044,355.009 101.175,355.429 99.284 C 355.849 97.393,356.328 95.458,356.492 94.986 C 356.657 94.513,357.287 92.438,357.892 90.374 C 358.498 88.310,359.177 86.183,359.402 85.646 C 359.627 85.109,360.295 83.252,360.886 81.519 C 363.054 75.159,364.538 71.329,366.344 67.435 C 366.574 66.939,366.762 66.454,366.762 66.358 C 366.762 65.470,375.036 49.763,377.300 46.353 C 377.729 45.707,378.338 44.756,378.653 44.239 C 380.089 41.887,382.275 38.872,384.520 36.148 C 385.863 34.518,387.238 32.802,387.575 32.335 C 387.912 31.868,388.373 31.332,388.600 31.144 C 388.826 30.956,389.684 29.939,390.507 28.884 C 391.329 27.828,392.623 26.406,393.383 25.723 C 396.055 23.321,395.300 22.435,391.932 24.022 M251.003 36.535 C 249.191 36.738,247.362 37.039,246.940 37.204 C 246.519 37.370,245.121 37.705,243.836 37.949 C 242.550 38.193,240.546 38.845,239.382 39.397 C 238.218 39.949,237.192 40.401,237.102 40.401 C 233.533 40.401,219.991 51.595,216.619 57.331 C 216.225 58.001,215.496 59.152,214.999 59.887 C 212.339 63.822,209.637 71.717,208.575 78.653 C 205.578 98.237,216.919 119.568,234.957 128.272 C 236.139 128.843,237.686 129.591,238.395 129.936 C 239.577 130.510,240.862 130.944,245.272 132.259 C 251.667 134.165,262.369 134.215,268.481 132.366 C 269.506 132.056,271.034 131.675,271.878 131.519 C 273.752 131.173,282.869 126.683,285.210 124.953 C 286.119 124.281,287.724 122.998,288.776 122.101 C 289.827 121.204,291.072 120.174,291.541 119.813 C 292.010 119.451,292.604 118.836,292.860 118.446 C 293.116 118.056,293.901 117.131,294.604 116.390 C 296.553 114.338,301.146 107.262,301.146 106.311 C 301.146 106.192,301.403 105.768,301.717 105.369 C 302.324 104.597,304.443 97.947,305.300 94.126 C 305.896 91.464,306.013 79.474,305.466 76.934 C 304.856 74.094,304.333 72.040,303.900 70.774 C 303.657 70.064,303.199 68.646,302.882 67.622 C 302.302 65.748,300.386 61.792,299.110 59.836 C 298.733 59.257,297.992 58.070,297.464 57.198 C 296.936 56.325,296.162 55.239,295.745 54.783 C 295.327 54.327,294.417 53.322,293.723 52.550 C 291.106 49.641,289.337 47.851,289.079 47.851 C 288.933 47.851,288.267 47.361,287.601 46.761 C 286.067 45.382,283.819 43.796,282.041 42.842 C 275.515 39.338,273.822 38.668,268.338 37.420 C 262.135 36.009,257.738 35.784,251.003 36.535 " stroke="none" fill="#fc0404" fill-rule="evenodd"></path><path id="path3" d="M278.725 152.070 C 279.237 152.133,280.075 152.133,280.587 152.070 C 281.100 152.006,280.681 151.954,279.656 151.954 C 278.632 151.954,278.213 152.006,278.725 152.070 M344.193 192.550 C 344.193 193.102,344.252 193.327,344.324 193.052 C 344.396 192.776,344.396 192.324,344.324 192.049 C 344.252 191.773,344.193 191.999,344.193 192.550 M344.218 196.562 C 344.218 197.586,344.270 198.005,344.333 197.493 C 344.397 196.981,344.397 196.143,344.333 195.630 C 344.270 195.118,344.218 195.537,344.218 196.562 M344.220 202.722 C 344.221 203.825,344.273 204.241,344.335 203.647 C 344.397 203.052,344.396 202.150,344.333 201.641 C 344.270 201.133,344.219 201.619,344.220 202.722 M344.193 216.332 C 344.193 216.884,344.252 217.110,344.324 216.834 C 344.396 216.558,344.396 216.107,344.324 215.831 C 344.252 215.555,344.193 215.781,344.193 216.332 M311.247 238.252 C 311.250 238.883,311.309 239.107,311.377 238.750 C 311.446 238.394,311.443 237.878,311.372 237.604 C 311.300 237.330,311.244 237.622,311.247 238.252 " stroke="none" fill="#842c34" fill-rule="evenodd"></path><path id="path4" d="M392.107 27.006 L 390.974 28.223 392.192 27.091 C 392.862 26.468,393.410 25.920,393.410 25.873 C 393.410 25.656,393.160 25.873,392.107 27.006 M257.092 36.022 C 257.525 36.088,258.234 36.088,258.668 36.022 C 259.101 35.956,258.746 35.902,257.880 35.902 C 257.013 35.902,256.658 35.956,257.092 36.022 M252.654 36.306 C 253.010 36.374,253.526 36.372,253.800 36.300 C 254.074 36.228,253.782 36.172,253.152 36.175 C 252.521 36.179,252.297 36.237,252.654 36.306 M368.607 39.327 L 367.765 40.258 368.696 39.416 C 369.564 38.632,369.759 38.395,369.538 38.395 C 369.489 38.395,369.069 38.814,368.607 39.327 M363.022 44.054 L 362.034 45.129 363.109 44.141 C 364.109 43.222,364.315 42.980,364.096 42.980 C 364.048 42.980,363.565 43.463,363.022 44.054 M360.172 46.562 C 359.476 47.271,358.971 47.851,359.050 47.851 C 359.129 47.851,359.762 47.271,360.458 46.562 C 361.154 45.852,361.659 45.272,361.581 45.272 C 361.502 45.272,360.868 45.852,360.172 46.562 M286.819 45.935 C 286.819 45.984,287.239 46.403,287.751 46.866 L 288.682 47.708 287.840 46.777 C 287.056 45.908,286.819 45.714,286.819 45.935 M223.194 49.499 L 222.206 50.573 223.281 49.586 C 224.281 48.667,224.487 48.424,224.268 48.424 C 224.220 48.424,223.737 48.908,223.194 49.499 M291.106 49.642 C 291.808 50.390,292.421 51.003,292.467 51.003 C 292.682 51.003,292.454 50.746,291.189 49.558 L 289.828 48.281 291.106 49.642 M356.718 50.072 L 355.731 51.146 356.805 50.159 C 357.805 49.240,358.011 48.997,357.793 48.997 C 357.745 48.997,357.261 49.481,356.718 50.072 M344.824 62.536 L 343.983 63.467 344.914 62.625 C 345.782 61.841,345.977 61.605,345.756 61.605 C 345.706 61.605,345.287 62.024,344.824 62.536 M305.827 81.375 C 305.827 82.557,305.878 83.041,305.939 82.450 C 306.001 81.859,306.001 80.892,305.939 80.301 C 305.878 79.710,305.827 80.193,305.827 81.375 M207.835 85.244 C 207.836 86.504,207.886 86.984,207.947 86.310 C 208.007 85.637,208.006 84.605,207.945 84.018 C 207.883 83.431,207.834 83.983,207.835 85.244 M305.825 88.968 C 305.826 90.072,305.878 90.488,305.940 89.893 C 306.002 89.299,306.001 88.396,305.937 87.888 C 305.874 87.379,305.823 87.865,305.825 88.968 M293.822 117.264 L 292.980 118.195 293.911 117.353 C 294.779 116.569,294.974 116.332,294.753 116.332 C 294.703 116.332,294.284 116.751,293.822 117.264 M222.779 119.771 C 223.874 120.874,224.834 121.777,224.913 121.777 C 224.992 121.777,224.161 120.874,223.066 119.771 C 221.971 118.668,221.011 117.765,220.932 117.765 C 220.853 117.765,221.685 118.668,222.779 119.771 M289.810 121.275 L 288.968 122.206 289.900 121.365 C 290.412 120.902,290.831 120.483,290.831 120.433 C 290.831 120.212,290.595 120.407,289.810 121.275 M256.948 134.013 C 257.303 134.081,257.883 134.081,258.238 134.013 C 258.592 133.945,258.302 133.889,257.593 133.889 C 256.884 133.889,256.594 133.945,256.948 134.013 M346.485 149.570 C 346.485 150.122,346.544 150.347,346.616 150.072 C 346.688 149.796,346.688 149.345,346.616 149.069 C 346.544 148.793,346.485 149.019,346.485 149.570 M244.635 149.780 C 245.309 149.841,246.341 149.840,246.927 149.778 C 247.514 149.717,246.963 149.667,245.702 149.668 C 244.441 149.669,243.961 149.720,244.635 149.780 M269.126 151.773 C 269.402 151.846,269.853 151.846,270.129 151.773 C 270.405 151.701,270.179 151.642,269.628 151.642 C 269.076 151.642,268.850 151.701,269.126 151.773 M273.286 152.070 C 273.801 152.134,274.575 152.133,275.005 152.067 C 275.436 152.002,275.014 151.950,274.069 151.951 C 273.123 151.953,272.771 152.006,273.286 152.070 M281.880 152.065 C 282.237 152.134,282.752 152.131,283.026 152.059 C 283.300 151.988,283.009 151.932,282.378 151.935 C 281.748 151.938,281.524 151.997,281.880 152.065 M345.358 161.891 C 345.358 162.758,345.412 163.112,345.477 162.679 C 345.543 162.246,345.543 161.537,345.477 161.103 C 345.412 160.670,345.358 161.024,345.358 161.891 M345.077 168.481 C 345.077 169.506,345.129 169.925,345.193 169.413 C 345.257 168.900,345.257 168.062,345.193 167.550 C 345.129 167.038,345.077 167.457,345.077 168.481 M194.254 171.562 L 193.266 172.636 194.341 171.649 C 195.341 170.730,195.547 170.487,195.328 170.487 C 195.281 170.487,194.797 170.971,194.254 171.562 M241.905 171.258 C 242.181 171.330,242.633 171.330,242.908 171.258 C 243.184 171.186,242.958 171.127,242.407 171.127 C 241.855 171.127,241.630 171.186,241.905 171.258 M238.181 171.544 C 238.456 171.616,238.908 171.616,239.183 171.544 C 239.459 171.472,239.234 171.413,238.682 171.413 C 238.130 171.413,237.905 171.472,238.181 171.544 M344.241 187.536 C 344.241 189.900,344.285 190.829,344.339 189.600 C 344.393 188.372,344.393 186.437,344.339 185.302 C 344.284 184.167,344.240 185.172,344.241 187.536 M344.208 199.570 C 344.210 200.358,344.266 200.647,344.332 200.211 C 344.398 199.775,344.396 199.131,344.328 198.778 C 344.260 198.426,344.206 198.782,344.208 199.570 M344.193 211.175 C 344.193 211.726,344.252 211.952,344.324 211.676 C 344.396 211.400,344.396 210.949,344.324 210.673 C 344.252 210.398,344.193 210.623,344.193 211.175 M343.934 225.931 C 343.935 227.034,343.987 227.451,344.049 226.856 C 344.111 226.262,344.110 225.359,344.046 224.850 C 343.983 224.342,343.932 224.828,343.934 225.931 M311.286 233.668 C 311.287 235.716,311.332 236.517,311.388 235.447 C 311.443 234.376,311.442 232.700,311.387 231.722 C 311.331 230.743,311.286 231.619,311.286 233.668 M342.766 239.112 C 342.769 239.742,342.828 239.966,342.896 239.610 C 342.965 239.253,342.962 238.738,342.890 238.464 C 342.819 238.190,342.762 238.481,342.766 239.112 M311.253 240.401 C 311.253 241.110,311.309 241.400,311.377 241.046 C 311.445 240.691,311.445 240.111,311.377 239.756 C 311.309 239.402,311.253 239.692,311.253 240.401 M306.861 328.295 L 305.874 329.370 306.948 328.382 C 307.539 327.839,308.023 327.356,308.023 327.308 C 308.023 327.089,307.780 327.295,306.861 328.295 M271.472 331.877 L 270.630 332.808 271.562 331.966 C 272.074 331.504,272.493 331.085,272.493 331.035 C 272.493 330.814,272.256 331.009,271.472 331.877 M265.168 339.613 L 264.327 340.544 265.258 339.703 C 265.770 339.240,266.189 338.821,266.189 338.772 C 266.189 338.550,265.953 338.745,265.168 339.613 M295.827 339.900 L 294.986 340.831 295.917 339.989 C 296.785 339.205,296.980 338.968,296.758 338.968 C 296.709 338.968,296.290 339.388,295.827 339.900 M290.674 344.484 L 289.542 345.702 290.759 344.569 C 291.892 343.516,292.109 343.266,291.892 343.266 C 291.845 343.266,291.297 343.814,290.674 344.484 M258.588 347.063 L 256.590 349.140 258.668 347.142 C 260.597 345.287,260.876 344.986,260.666 344.986 C 260.622 344.986,259.687 345.920,258.588 347.063 M286.804 347.779 L 285.817 348.854 286.891 347.866 C 287.891 346.947,288.097 346.705,287.879 346.705 C 287.831 346.705,287.347 347.188,286.804 347.779 M238.521 366.547 L 237.679 367.479 238.610 366.637 C 239.478 365.852,239.673 365.616,239.452 365.616 C 239.403 365.616,238.984 366.035,238.521 366.547 M221.291 377.242 L 220.487 377.979 221.418 377.331 C 221.931 376.975,222.350 376.643,222.350 376.594 C 222.350 376.368,222.033 376.561,221.291 377.242 M220.889 378.598 C 221.017 378.725,221.817 378.788,222.667 378.737 L 224.212 378.645 222.434 378.506 C 221.457 378.429,220.761 378.471,220.889 378.598 " stroke="none" fill="#a41d24" fill-rule="evenodd"></path></g></svg>