<svg xmlns="http://www.w3.org/2000/svg" viewBox="0 0 371.35 364.19"><g id="Layer_2" data-name="Layer 2"><g id="Layer_1-2" data-name="Layer 1"><circle cx="183.13" cy="182.09" r="182.09"/><path d="M191.82,215.16c7.27.06,12.82-6.77,13.38-13.64.66-8.22-4.42-16.6-10.64-21.63-3-2.46-6.81-4.38-10.82-4.13a11.26,11.26,0,0,0-8,4.14c-4,4.87-4.71,12.12-3,18,3.71,12.78,18.75,23.83,32.13,18.37,10.22-4.16,15.86-18.78,9.72-28.36-4-6.26-11.86-7.92-18.81-8.06a80.47,80.47,0,0,0-12.6.7,27,27,0,0,0-11.88,4.14c-10.68,7.43-10.56,24.5-1.74,33.29,5,5,12.17,7.44,19.2,7.46a32.1,32.1,0,0,0,10.77-1.82,24.17,24.17,0,0,0,9.7-5.92c5.59-6,3.77-15.15.16-21.72a33,33,0,0,0-15.38-14.08c-6.25-2.79-13.54-3.59-20.08-1.28a26.39,26.39,0,0,0-14,12.41c-3,5.56-4.2,12.25-2.45,18.4,1.88,6.59,7.06,11.7,13.2,14.5A32.66,32.66,0,0,0,192,227.79c8-1.95,15.07-6.4,21.19-11.75a50.5,50.5,0,0,0,8.48-8.93c2.08-3,3.88-6.7,3.31-10.44s-3.68-6.17-7-7.64a132.77,132.77,0,0,0-12.71-4.74c-8.39-2.73-17.32-4.49-26.13-3-7.42,1.29-14.68,4.89-19.1,11.15a25.85,25.85,0,0,0-3.54,21.12A25.52,25.52,0,0,0,170,230a28.23,28.23,0,0,0,21.2,1.69,29.93,29.93,0,0,0,19.37-32.11,27,27,0,0,0-10.39-16.78,30,30,0,0,0-18.66-6.38,25.65,25.65,0,0,0-17.82,7.88c-9.31,9.53-11.77,25.24-3.28,36.06,8.21,10.48,23.91,14.36,35.63,7.66a41.52,41.52,0,0,0,9.73-8.09,74.48,74.48,0,0,0,7.61-9.64c2-3.11,3.9-6.73,3.87-10.55a10.25,10.25,0,0,0-4.07-8c-3.3-2.62-7.71-3.87-11.86-4.28.07.27.14.54.22.81a222,222,0,0,0,44.83-27.57,221.62,221.62,0,0,0,43.4-46,224.64,224.64,0,0,0,13.95-22.58.44.44,0,0,0-.6-.6,271.94,271.94,0,0,0-99.85,100.77c-.17.31.12.78.5.64a90.24,90.24,0,0,0,14.79-7,206.91,206.91,0,0,0,21.38-14.44,227.85,227.85,0,0,0,26.29-23.37,120.31,120.31,0,0,0,18.88-25.56,86.71,86.71,0,0,0,10.5-33.71.45.45,0,0,0-.75-.31C289.32,95.64,282,100.93,274.67,106a197.45,197.45,0,0,0-21,16.06c-13.29,12.06-24.32,26.36-34.37,41.17-5.7,8.4-11.11,17-16.5,25.6a.44.44,0,0,0,.6.6,145,145,0,0,0,39.77-40.18,150.9,150.9,0,0,0,21.95-52,142.26,142.26,0,0,0,3.1-31.75c0-.3-.38-.58-.66-.38a186.25,186.25,0,0,0-73.63,117c-.06.34.3.72.64.5a231.24,231.24,0,0,0,38.64-31.68,230.78,230.78,0,0,0,35.76-47.39,234.11,234.11,0,0,0,11.41-22.93c.16-.37-.19-.86-.6-.6A198.33,198.33,0,0,0,198,184.9c-.13.4.46.77.73.43a211,211,0,0,0,45.07-103,213.36,213.36,0,0,0,2.13-26.49.44.44,0,0,0-.75-.3,144.86,144.86,0,0,0-29.79,34.75,142.14,142.14,0,0,0-20.64,65.46,143.68,143.68,0,0,0,.63,25.23c.09.78.18,1.55.28,2.32,0,.29.36.59.66.38q13.57-9.69,26.5-20.23,14.74-12,28.55-25.13,14.22-13.5,27.37-28.06,11.87-13.15,22.8-27.11,4.89-6.22,9.56-12.6c.36-.49.72-1,1.07-1.46a7.4,7.4,0,0,0,1.08-1.5,2.74,2.74,0,0,0-.29-2.09c-.78-1.37-2.5-1.81-4-1.92a11.48,11.48,0,0,0-5.54,1c-2.41,1.08-4.78,2.26-7.13,3.49a147.08,147.08,0,0,0-13.52,8,178.65,178.65,0,0,0-24.37,19.69,252.44,252.44,0,0,0-21.48,23.47c-6.77,8.34-13.12,17-19.22,25.86s-12,17.89-17.73,27q-2.1,3.3-4.19,6.62c-.31.48.44.91.75.44a549.41,549.41,0,0,0,30.79-53.4,537.6,537.6,0,0,0,24.5-56.27c3.81-10.37,7.28-22,3.37-32.91a.44.44,0,0,0-.73-.19,199.78,199.78,0,0,0-38.65,48,204.59,204.59,0,0,0-22.47,57.43,197.55,197.55,0,0,0-4.59,34.33c0,.49.76.61.85.12,3.31-17.35,6.54-34.75,8.43-52.32,1.87-17.4,2.42-35,.13-52.45a144.29,144.29,0,0,0-6.61-28.33.44.44,0,0,0-.73-.19c-11.17,12.73-15.48,29.74-15.73,46.37-.29,19.21,4.92,37.83,9.93,56.2,3.05,11.21,6.05,22.46,7.78,34,.07.46.71.37.84,0q8.81-25.62,15.47-51.9,6.61-26.07,11.09-52.63,2.52-14.93,4.34-29.94c.05-.4-.49-.53-.74-.31-14.21,12.46-24.54,28.61-31.25,46.19-6.9,18.07-10.12,37.43-10.93,56.7a247.82,247.82,0,0,0,.86,32.81c.05.55.9.57.87,0q-1.18-28.58-2.38-57.17c-.69-16.54-1.51-34.05-10.47-48.53-4.21-6.8-10.08-12.65-17.43-16a.45.45,0,0,0-.6.15c-3.34,7.2-3.76,15.22-2.83,23A146,146,0,0,0,155,105.46a258.26,258.26,0,0,0,32.25,69.59.44.44,0,0,0,.79-.1l13.38-57.89q3.33-14.37,6.64-28.75c2.09-9,4.43-18,5.75-27.16,1.4-9.67,1.49-19.7-2.1-28.94a.43.43,0,0,0-.53-.3A48.48,48.48,0,0,0,189,48.3c-6,7.71-10.06,16.76-12.95,26a149.12,149.12,0,0,0-5.76,31.15,261,261,0,0,0-.4,42,179.53,179.53,0,0,0,2.24,20.17c.72,3.85,2.41,9,6.39,10.56a6,6,0,0,0,2.86.38.45.45,0,0,0,.44-.43q.94-35.34-.58-70.69c-.44-10.24-.72-20.58-2-30.75-1-7.79-2.68-15.64-6.05-22.78-3.54-7.49-9.17-13.82-17.07-16.75-.33-.12-.6.24-.53.53q6.24,28.05,12.47,56.09l12.39,55.7q3.51,15.77,7,31.54c.13.55,1,.32.85-.23l-12.48-56.09q-6.19-27.84-12.38-55.69l-7-31.55-.53.54c15.05,5.59,20.2,22.74,22.26,37.17,1.39,9.74,1.67,19.67,2.11,29.49q.79,17.27,1,34.54.22,19.47-.3,38.93l.44-.44c-4.86.47-7.16-5-8.11-8.9a72.78,72.78,0,0,1-1.35-9.06c-.4-3.31-.72-6.62-1-9.93a261.61,261.61,0,0,1-.11-40.47,162.27,162.27,0,0,1,5.06-31.45A88.2,88.2,0,0,1,187.56,51.8,49.79,49.79,0,0,1,208,34.11c1.12-.5,2.26-.94,3.41-1.35l-.54-.3c6.63,17.06.91,35.92-3,52.91q-6.59,28.56-13.19,57.11-3.74,16.13-7.46,32.24l.8-.1a258.27,258.27,0,0,1-22.76-42.82q-4.63-11.12-8.2-22.63a181,181,0,0,1-5.92-23.35c-1.5-8.82-1.7-18.19,2.15-26.46l-.6.16c14,6.32,21.62,20.93,24.68,35.31,1.83,8.62,2.31,17.44,2.69,26.2q.6,14,1.17,28.05l1.31,31.36h.87a227.68,227.68,0,0,1,1.7-58c3.09-18.57,9-36.86,19-52.93A107.73,107.73,0,0,1,224.4,45.36l-.75-.31q-3.27,26.85-8.73,53.34t-13,52.19q-4.24,14.46-9.14,28.72h.84c-3-20.06-9.87-39.23-14.17-59-3.69-17-5.24-34.88-.8-51.9A60.52,60.52,0,0,1,191.43,43.6l-.73-.19c5.68,16.41,8,33.74,8.07,51.06.1,17.6-2,35.15-4.78,52.5-1.58,9.72-3.39,19.4-5.24,29.08l.85.11A199,199,0,0,1,201.9,116a203.85,203.85,0,0,1,29.61-53.48A196.94,196.94,0,0,1,255.06,37l-.72-.19c3.52,9.77.92,20.25-2.38,29.7-3.36,9.65-7.25,19.15-11.28,28.53a548,548,0,0,1-27.12,54.54q-8.43,14.85-17.78,29.14l.75.44c11.25-17.82,22.65-35.61,35.51-52.32,12.65-16.44,26.81-31.94,43.41-44.46a151.6,151.6,0,0,1,26-15.92,15.84,15.84,0,0,1,6.35-2c1.52,0,4.07.17,4.54,2,.28,1.07-.74,1.94-1.32,2.75l-2.35,3.18q-2.32,3.14-4.71,6.24a507,507,0,0,1-47.42,53.51,507.32,507.32,0,0,1-54.64,46.46c-2,1.48-4,2.94-6.07,4.39l.65.38a143.14,143.14,0,0,1,4.09-57.05,141.53,141.53,0,0,1,13.66-32.39A144,144,0,0,1,244.43,57.3l1.34-1.14-.75-.31a211.65,211.65,0,0,1-7.44,52,210.14,210.14,0,0,1-39.49,76.88l.73.43A197.37,197.37,0,0,1,280.2,80.67l-.6-.6a230.49,230.49,0,0,1-24.41,43.22,229.52,229.52,0,0,1-40.56,43.38,229.92,229.92,0,0,1-20.53,15.09l.64.49A185.28,185.28,0,0,1,268,65.83l-.66-.38a144.35,144.35,0,0,1-10.23,55.25,150,150,0,0,1-30,47.45,141.23,141.23,0,0,1-24.13,20.53l.6.6c9.61-15.34,19.28-30.72,30.59-44.88a190,190,0,0,1,17.94-19.68,173,173,0,0,1,21-16.56c8.09-5.53,16.32-11.15,22.41-19l-.74-.31c-1.85,21.27-12.73,40.7-26.9,56.26a212.63,212.63,0,0,1-25.6,23.5,214.52,214.52,0,0,1-21.95,15.28,94.67,94.67,0,0,1-16.75,8.24l.49.64a270.55,270.55,0,0,1,77.27-86Q292,99,303.55,92.36l-.6-.6a221.58,221.58,0,0,1-29.89,42.63,220.51,220.51,0,0,1-48.72,40.72,221.71,221.71,0,0,1-23.25,12.46c-.44.19-.16.77.22.81,4,.41,8.45,1.65,11.6,4.32a9.44,9.44,0,0,1,3.38,8.51c-.46,3.79-2.61,7.27-4.78,10.31-4.49,6.31-10,12.73-16.94,16.35a25.7,25.7,0,0,1-18.36,1.76,28.44,28.44,0,0,1-15.44-10.15,24.41,24.41,0,0,1-4.6-17.64c1.52-12.7,11.89-24.09,25.06-24.49,12.74-.38,25.63,8.75,28.27,21.46s-5.29,27-17.42,31.68c-13.26,5.16-29.86-1.78-34.35-15.54a25.3,25.3,0,0,1,2.13-20.64c3.82-6.32,10.6-10.15,17.66-11.73,8.08-1.82,16.41-.65,24.27,1.62,4.23,1.22,8.36,2.75,12.47,4.34,3.45,1.34,7.57,2.73,9.24,6.36s.08,7.55-1.83,10.63a42.58,42.58,0,0,1-7.67,8.64c-5.72,5.26-12.33,9.78-19.79,12.14a32.7,32.7,0,0,1-20.58-.06c-6.31-2.18-12-6.67-14.59-13-4.63-11.43,2.09-25.34,12.75-30.68,12.35-6.18,27.55.33,35.08,11,4.06,5.73,7.24,14.46,3.6,21.13-1.84,3.39-5.29,5.62-8.71,7.19a30.87,30.87,0,0,1-10.08,2.65,27.82,27.82,0,0,1-19.2-5.13,21.84,21.84,0,0,1-8.39-16.11c-.37-5.92,1.47-12.14,5.88-16.27,5.83-5.47,14.63-5.94,22.19-6.18,7.05-.23,15.36.27,20.43,5.88,3.62,4,4.32,9.79,3.14,14.89a20.28,20.28,0,0,1-9.22,13c-5.61,3.2-12.67,2.66-18.35,0a27.84,27.84,0,0,1-13.65-14.34c-2.33-5.69-2.45-12.61.74-18a11.06,11.06,0,0,1,6.68-5.26c3.92-1,7.9.56,11.06,2.85a30.1,30.1,0,0,1,8.15,9.28,22.21,22.21,0,0,1,3.24,11.48c-.15,6.74-5.36,13.82-12.56,13.76-.56-.08-.56.79,0,.8Z" style="fill:#fff"/><path d="M168.86,177.16c8,1.11,10-9.63,9.63-15.48a105.47,105.47,0,0,0-2.3-14.77c-1-5-2.3-9.9-3.81-14.75a162.92,162.92,0,0,0-28.66-53.71A157.68,157.68,0,0,0,119,53.9c-.3-.23-.91,0-.73.42q11.1,27.92,22.18,55.83l11,27.68L157,151.78c1.46,3.66,2.86,7.36,4.54,10.92,3.23,6.83,7.79,13.64,15.3,16.11a.44.44,0,0,0,.5-.64L148.69,122c-4.23-8.28-8.16-16.8-13-24.75-3.9-6.43-8.49-12.7-14.39-17.43s-13.2-7.43-20.84-5.86a.44.44,0,0,0-.26.64,345.14,345.14,0,0,0,25.83,43.8,344.09,344.09,0,0,0,36.48,44.12q9.54,9.75,19.83,18.71c.29.26.9,0,.72-.42q-10.8-26.47-22.36-52.62-11.91-27-24.64-53.59-6.89-14.41-14-28.7a.44.44,0,0,0-.8.11c-5.32,18.42-.82,37.76,6.62,54.92,7.62,17.58,18.69,33.35,27.5,50.31,5,9.53,9.16,19.47,11.56,30l.72-.43c-11.63-14.92-23.37-29.8-36.27-43.68-12.62-13.59-26.4-26.25-42-36.36A147.4,147.4,0,0,0,61.73,86.58a.44.44,0,0,0-.53.31c-1.27,7.76,2.32,14.8,7.35,20.49,6,6.75,13.6,11.73,20.89,16.91l53.19,37.8,30,21.33c.37.26.8-.24.6-.6-9.67-17.32-19.42-34.62-30.42-51.14-10.72-16.11-22.66-31.54-36.71-44.91A170.88,170.88,0,0,0,80.56,66.59c-.41-.26-.75.23-.6.6a353.52,353.52,0,0,0,26.49,50.19,354.42,354.42,0,0,0,33.83,44.91q10.56,11.93,22.19,22.87c.41.38,1-.22.62-.62a484,484,0,0,0-42-36.77,482.79,482.79,0,0,0-45.66-31.53Q62,108,48,100.73a.44.44,0,0,0-.66.38c.73,17.72,13.84,31.12,27.63,40.66,8,5.54,16.68,10.07,25.36,14.47q15.36,7.77,31.21,14.53,17.67,7.51,35.85,13.73c.34.12.73-.33.49-.64a222.83,222.83,0,0,0-45.47-44.62A226.94,226.94,0,0,0,66,109a218.92,218.92,0,0,0-34.85-9.56.43.43,0,0,0-.42.72A261.54,261.54,0,0,0,73.5,139.68a263.25,263.25,0,0,0,50.72,29.26,257.52,257.52,0,0,0,30.59,11.13c.5.15.71-.52.33-.8-16.12-12.06-32.4-24-49.67-34.41C88.65,134.73,70.76,126,51.71,121a135.57,135.57,0,0,0-32.42-4.6.43.43,0,0,0-.3.74c15.09,15.32,33,27.54,52,37.38,19.23,9.94,39.56,17.56,60.1,24.3,11.74,3.84,23.56,7.4,35.39,10.92.47.14.79-.58.34-.8-19.86-9.65-39.81-19.22-60.42-27.2-20.17-7.81-41-14.11-62.54-17a178.24,178.24,0,0,0-36.72-1.18c-.39,0-.66.62-.23.82a558.09,558.09,0,0,0,66.89,25.16A556.68,556.68,0,0,0,143.76,186q4.91.82,9.84,1.56a35.58,35.58,0,0,0,7.06.55c3.8-.2,8.17-1.49,9.17-5.65a.44.44,0,0,0-.2-.49,241.92,241.92,0,0,0-64.4-21.1,246.78,246.78,0,0,0-67.51-2.7,239.83,239.83,0,0,0-37.41,6.7.44.44,0,0,0,0,.84,519.88,519.88,0,0,0,60.07,14.45,520.33,520.33,0,0,0,61.23,7.22q17.37,1,34.78.84a.44.44,0,0,0,0-.87,313.28,313.28,0,0,0-91.5,5c-8.52,1.74-17,3.85-25.32,6.3a.44.44,0,0,0,.11.86c16.56,1.92,33.15,3.77,49.83,4.34,16.25.55,32.64-.11,48.62-3.31a138.22,138.22,0,0,0,26.45-8,.45.45,0,0,0,0-.85,462.12,462.12,0,0,0-58-13.74,464.67,464.67,0,0,0-59-6.15q-16.74-.66-33.48-.12a.46.46,0,0,0-.44.44c0,6.92,7.33,10.1,13.09,11.49a138.41,138.41,0,0,0,13.76,2.09l16.11,2.2,64.42,8.8,36.23,4.95c.54.07.8-.73.24-.85a182,182,0,0,0-48-3.1,184.1,184.1,0,0,0-47.18,9.52,178.93,178.93,0,0,0-24.94,10.72c-.46.24-.13.89.33.8,26.2-5.12,52.43-10.13,78.79-14.33,8.32-1.33,16.67-2.58,25-3.55a134.77,134.77,0,0,1,15.68-1.17,21.78,21.78,0,0,1,4.19.31c.7.15,1.44.37,1.66.79a.92.92,0,0,1-.07.39,2.86,2.86,0,0,1-.64.8,15.89,15.89,0,0,1-3.12,2.15,108.94,108.94,0,0,1-13.12,6.06c-7.4,3-14.9,5.76-22.42,8.44-23.79,8.45-47.86,16.14-71.95,23.71l-11.37,3.55a.44.44,0,0,0,.24.85A285.9,285.9,0,0,0,89,235.13a287.89,287.89,0,0,0,45.33-19.64q12.38-6.68,24-14.57c.32-.22.24-.86-.22-.82q-25.83,2.33-51.39,6.75T56,217.85Q41.67,221.57,27.57,226a.43.43,0,0,0,.11.85A269.12,269.12,0,0,0,82,227.1a514.43,514.43,0,0,0,53.54-8c10.17-2,20.29-4.15,30.41-6.32.55-.11.32-.95-.23-.84-15.29,3.2-30.6,6.59-45.42,11.59C106,228.3,92.05,234.66,80.05,243.9a90.86,90.86,0,0,0-17.53,17.78.44.44,0,0,0,.5.64c13.25-4.86,26.49-9.77,39.38-15.52a210.25,210.25,0,0,0,36.86-20.53,137.8,137.8,0,0,0,17.94-15.21c.37-.37-.09-.89-.53-.69a220.67,220.67,0,0,0-86.75,72c-.31.43.34.81.69.53q34.38-27,68.55-54.23,9.72-7.76,19.4-15.52l-.68-.53q-25.41,34.54-51.62,68.5-7.4,9.61-14.88,19.16a.44.44,0,0,0,.53.69A148.15,148.15,0,0,0,127,273.88a144.3,144.3,0,0,0,30.88-49.28,147.21,147.21,0,0,0,6.06-21.49c.08-.4-.42-.76-.73-.42-20.47,21.7-41.11,43.25-61.65,64.9Q92.83,276.76,84.15,286c-.4.42.19,1,.62.62,22.52-17.46,44.92-35.09,67.39-52.62q9.59-7.49,19.21-15c.44-.34-.18-1-.62-.61-22.52,17.46-44.92,35.09-67.39,52.62Q93.78,278.51,84.15,286l.62.62c20.46-21.71,41.1-43.26,61.65-64.9q8.7-9.18,17.39-18.38l-.73-.42a142.54,142.54,0,0,1-15.88,42.47,146,146,0,0,1-37.9,43.22,146.57,146.57,0,0,1-17.83,11.68l.53.69q26.48-33.84,52.15-68.27,7.28-9.76,14.49-19.57c.32-.43-.33-.81-.69-.53Q123.81,239.95,89.43,267,79.72,274.68,70,282.31l.69.53a219.88,219.88,0,0,1,86.44-71.72l-.53-.69C136.76,230.49,111,242.91,85,253.1c-7.37,2.9-14.79,5.63-22.22,8.36.16.22.32.43.49.64,9-12.07,21-21.35,34.27-28.22,13.62-7,28.34-11.69,43.15-15.45,8.36-2.12,16.79-4,25.23-5.71-.07-.28-.16-.56-.23-.85-17.78,3.81-35.57,7.59-53.52,10.48a364.4,364.4,0,0,1-53.95,5.08,247.3,247.3,0,0,1-30.54-1.51c0,.28.07.57.11.85q24.71-7.68,50-13.33t50.9-9.16q14.69-2,29.46-3.33c-.08-.28-.15-.54-.22-.82a284,284,0,0,1-43.28,24,284.75,284.75,0,0,1-46.89,16.22q-13.53,3.39-27.36,5.45c.08.28.16.56.23.84,26.08-8.11,52.13-16.35,77.92-25.35,8.25-2.88,16.47-5.83,24.59-9a154.58,154.58,0,0,0,15-6.61,28.35,28.35,0,0,0,4-2.42,4.53,4.53,0,0,0,1.75-2c.57-1.93-2.46-2.25-3.68-2.38a68.43,68.43,0,0,0-13,.44c-7.61.72-15.19,1.78-22.74,2.92-25.19,3.78-50.25,8.5-75.25,13.33l-11.68,2.26.33.8a181.12,181.12,0,0,1,44.81-16.27,183.94,183.94,0,0,1,47.72-4.09,179.43,179.43,0,0,1,26.94,3.31l.24-.85-62.41-8.52-62.41-8.52c-6.56-.9-18.12-3-18.15-11.64l-.43.43a462.2,462.2,0,0,1,117.9,11.34q16.32,3.74,32.34,8.64v-.85c-15.09,6.36-31.24,9.65-47.53,10.88s-32.95.48-49.34-1c-9.28-.82-18.55-1.87-27.8-2.94,0,.28.07.57.11.85a313.2,313.2,0,0,1,91-12.62q12.81.14,25.58,1.32v-.87A519.18,519.18,0,0,1,95,184.2a518.82,518.82,0,0,1-61-10.43q-16.83-3.93-33.37-9v.85a241.64,241.64,0,0,1,66.87-7.78,246,246,0,0,1,66.46,10.77,239.73,239.73,0,0,1,35.32,14c-.06-.16-.13-.33-.2-.49-1,4.22-5.9,5.05-9.62,5a47.52,47.52,0,0,1-6.94-.76q-4.23-.65-8.43-1.35-17.08-2.86-34-6.79a558.36,558.36,0,0,1-66.31-19.85q-18.42-6.8-36.33-14.88c-.07.28-.14.54-.22.82,21.59-1.61,43.22,1.17,64.11,6.65C92.56,156.6,113,164.77,133,173.79c11.25,5.07,22.36,10.44,33.47,15.82l.33-.79c-20.76-6.18-41.52-12.46-61.75-20.25-20.06-7.71-39.65-16.94-57.47-29a183.5,183.5,0,0,1-27.93-23.11c-.11.25-.2.5-.31.75,19.68.34,38.9,5.42,56.87,13.28,18.19,7.94,35.13,18.48,51.41,29.78,9.18,6.38,18.17,13,27.13,19.73.11-.27.22-.53.34-.8a260.31,260.31,0,0,1-53.66-22.61,264,264,0,0,1-47.2-33.77A259.14,259.14,0,0,1,31.37,99.5l-.42.73a221.76,221.76,0,0,1,60.14,20.61,226.07,226.07,0,0,1,52,36.65,218.45,218.45,0,0,1,24.1,26.76l.49-.64a520.32,520.32,0,0,1-62.11-25.8C89,149.65,71.43,141,59.19,126.77c-6.24-7.25-10.55-16-10.95-25.7l-.66.37A486.22,486.22,0,0,1,95.29,130a483.93,483.93,0,0,1,44.21,33.91q11.85,10.23,23,21.21l.62-.62a351.12,351.12,0,0,1-38-42A355,355,0,0,1,94.52,95.21Q87,81.29,80.76,66.71l-.6.6c16.31,10.47,30.45,23.91,42.78,38.79,12.51,15.1,23.23,31.6,33.22,48.45,5.61,9.46,11,19.06,16.37,28.67l.6-.59-51.74-36.78L95.72,127.61c-7.66-5.44-15.77-10.57-22.67-17-6.52-6.06-12.5-14.15-11-23.55l-.54.3c17.38,6.61,33.1,16.8,47.19,28.84s26.77,26,38.67,40.37c6.73,8.12,13.24,16.42,19.72,24.74.29.36.82,0,.73-.43-4.16-18.23-13.72-34.49-23.1-50.45C135,113.92,125.31,97,121.44,78c-2.15-10.53-2.26-21.45.74-31.84l-.79.11q12.69,25.52,24.67,51.41,12.3,26.61,23.81,53.56,6.33,14.81,12.42,29.72l.73-.42a344,344,0,0,1-35.81-36.22,342.73,342.73,0,0,1-33.44-46.75Q106.93,86.07,101,74.09c-.09.21-.17.42-.26.64C116,71.6,127.51,85.45,134.6,97c4.69,7.64,8.49,15.84,12.55,23.82L161,147.88q7.81,15.35,15.64,30.68l.5-.64c-6.92-2.26-11.22-8.46-14.3-14.71-1.72-3.5-3.12-7.14-4.56-10.76q-2.67-6.75-5.35-13.48L131.27,84.56,119.15,54l-.73.43a159.21,159.21,0,0,1,38.42,44.44A160,160,0,0,1,176.66,154c.77,4.84,1.56,9.69.41,14.54-.92,3.83-3.3,8.37-7.93,7.72-.59,0-.83.8-.28.89Z" style="fill:#fff"/><path d="M160.91,213.11q1-2.66,1.94-5.29c.19-.53-.65-.76-.84-.23l-1.94,5.28c-.19.53.65.76.84.24Z" style="fill:#fff"/><path d="M158.26,213.43l8.92,3.55c.52.21.75-.64.23-.85l-8.92-3.54c-.52-.21-.75.63-.23.84Z" style="fill:#fff"/><path d="M166.89,221.72c-8.24-3.15-30.34,29.92-31.39,31.52a120.6,120.6,0,0,0-15.7,34.92,130.28,130.28,0,0,0-3.1,14.76c-.07.46.54.81.79.34,10.45-19.46,21-38.9,32.2-57.93,3.17-5.38,6.4-10.74,9.82-16a84.62,84.62,0,0,1,6.34-8.8,15.81,15.81,0,0,1,2-2.06,3.79,3.79,0,0,1,.71-.46,1.31,1.31,0,0,1,.42-.11c.14,0,.24.07.36.44a6,6,0,0,1,.06,2,48,48,0,0,1-1.88,8.7c-1.49,5.36-3.25,10.63-5.06,15.88-6.64,19.23-14.12,38.16-21.66,57.06q-1.89,4.74-3.8,9.48a.44.44,0,0,0,.64.49c10.29-7.6,17.72-18.17,22.63-29.91,5.15-12.31,7.71-25.59,9.2-38.81.85-7.6,1.33-15.24,1.64-22.89,0-.52-.7-.55-.86-.12a469,469,0,0,0-22.2,82.91q-2,11.67-3.41,23.43c0,.46.61.55.82.22a177.77,177.77,0,0,0,17.32-35.36,176,176,0,0,0,10-49.39,177.12,177.12,0,0,0-.16-22.22c0-.46-.78-.64-.86-.12q-5.85,39.36-8.81,79.07-.81,10.92-1.39,21.85a.44.44,0,0,0,.82.22,111.87,111.87,0,0,0,12.18-28.42,107.08,107.08,0,0,0,2.33-45.37,109.56,109.56,0,0,0-5.45-20.37.43.43,0,0,0-.85.12,568.18,568.18,0,0,0-3.22,70.23q.17,9.33.62,18.66a.44.44,0,0,0,.81.22,91.42,91.42,0,0,0,13.4-38.1,96.38,96.38,0,0,0-3.79-40.53,89.26,89.26,0,0,0-9.75-20.82c-.21-.33-.86-.23-.81.22q4.49,40,9,79.94,1.26,11.28,2.53,22.55a.44.44,0,0,0,.66.37c11.51-7,17.59-19.9,19-32.95,1.66-15.45-3.56-30.37-11.11-43.64-4.74-8.34-10.35-16.14-15.91-23.94-.22-.31-.87-.25-.82.22a352.18,352.18,0,0,0,18.62,80.91q4,11.06,8.69,21.84a.44.44,0,0,0,.76,0A86.84,86.84,0,0,0,207,282.83a84.08,84.08,0,0,0-19.56-50.41,85.28,85.28,0,0,0-12.58-12.26c-.25-.2-.79-.11-.74.31a317.56,317.56,0,0,0,25,94.07q4.77,10.86,10.33,21.34a.44.44,0,0,0,.79-.1c5.24-19.94,5.77-41.11.3-61.06a119.4,119.4,0,0,0-13.35-30.49,96.71,96.71,0,0,0-14-18.4c-.55-.55-4.92-5.16-5.7-2.94-.34,1,.36,2.45.69,3.34a82.1,82.1,0,0,0,3.48,7.72c2.25,4.54,4.63,9,7,13.46,9,16.58,18.53,32.9,28.08,49.17,1.65,2.8,3.29,5.6,4.95,8.41a.43.43,0,0,0,.79-.11,71.24,71.24,0,0,0-4.36-45.58,75.1,75.1,0,0,0-36.39-35.73.44.44,0,0,0-.6.6,426.51,426.51,0,0,0,21.62,37.11A424.35,424.35,0,0,0,231,299.71q7.72,9.36,16,18.25a.44.44,0,0,0,.75-.31,113,113,0,0,0-7.91-37.93,109.34,109.34,0,0,0-31.35-43.29,112.66,112.66,0,0,0-16.89-11.69c-.35-.19-.86.23-.6.6q12.82,17.39,26.83,33.84,14.57,17.13,30.35,33.15,8.12,8.24,16.53,16.17a.45.45,0,0,0,.75-.31,99.66,99.66,0,0,0-9.32-36.06,95.43,95.43,0,0,0-37.7-41.21,98.33,98.33,0,0,0-18.8-8.55.44.44,0,0,0-.42.73l61.7,57.4,17.43,16.23a.44.44,0,0,0,.73-.42,115.87,115.87,0,0,0-58.42-81.79,118.18,118.18,0,0,0-17.53-7.86.44.44,0,0,0-.49.64,423.57,423.57,0,0,1,24.72,39.53,421.8,421.8,0,0,1,21.91,46.24q4.67,11.64,8.64,23.55a.44.44,0,0,0,.86-.12,91.08,91.08,0,0,0-3.48-38.19,107,107,0,0,0-14.48-28.89A140.91,140.91,0,0,0,223.36,229c-4.05-3.94-8.32-7.62-12.73-11.16-.5-.4-1-.8-1.5-1.22-.11-.09-.27-.3-.4-.35s-.08-.12-.11-.12c.14,0-.12.51-.23.62s-.32-.14-.09.06a5.66,5.66,0,0,0,.48.31c1.62,1.12,3.15,2.39,4.68,3.63,3.31,2.66,6.57,5.36,9.84,8.06q7.92,6.55,15.81,13.19,11.34,9.51,22.65,19.09Q277,274.06,292.32,287l8.66,7.36a.44.44,0,0,0,.68-.53,247.36,247.36,0,0,0-28.61-40.57A246.31,246.31,0,0,0,205,198.56c-.35-.19-.87.23-.6.6a215.26,215.26,0,0,0,43,43.56,223.27,223.27,0,0,0,46,26.76q10.77,4.66,21.94,8.26a.44.44,0,0,0,.54-.54,101.69,101.69,0,0,0-17-30.28A115.26,115.26,0,0,0,277.6,227a154.37,154.37,0,0,0-45.79-22.52,126,126,0,0,0-17.44-4.15,56.51,56.51,0,0,0-5.8-.64,10.2,10.2,0,0,0-3.35.19c-3.15.95,3.28,4.74,4,5.18a192.71,192.71,0,0,0,23.74,12c23.45,10.4,48,18.55,73.26,23.1q3.7.67,7.41,1.24a.44.44,0,0,0,.34-.8,362.14,362.14,0,0,0-85.81-43.34q-12.85-4.47-26-8a.44.44,0,0,0-.33.8q25.63,15,51.88,29t53.05,26.81q15.09,7.23,30.35,14.11a.44.44,0,0,0,.65-.38c1.05-8.28-4.06-15.26-10.1-20.33-7.18-6-15.83-10.16-24-14.56-18.72-10-37.86-19.59-58.22-25.85a153.82,153.82,0,0,0-34.79-6.66c-.49,0-.59.73-.12.85q21.78,5.64,43.86,10t44.37,7.35q12.48,1.68,25,3c.46.05.56-.6.22-.81a187.8,187.8,0,0,0-50.81-22A192.28,192.28,0,0,0,222,184.3a202.75,202.75,0,0,0-21.89,1.4.45.45,0,0,0-.22.82,424.78,424.78,0,0,0,50.23,26.34,422.76,422.76,0,0,0,59.76,21.23q14.7,4,29.68,7c.38.07.8-.43.42-.73a315.2,315.2,0,0,0-95.39-52.74q-14.67-5.06-29.8-8.62a.44.44,0,0,0-.23.84q23.64,8.55,48,15t49.11,10.65q13.86,2.36,27.8,4a.44.44,0,0,0,.44-.44c-.24-6.8-7.08-10.23-12.79-12-4.23-1.28-8.65-2-13-2.81q-7.53-1.45-15.09-2.81-29.94-5.31-60.18-8.67-17.16-1.9-34.38-3.18a.44.44,0,0,0-.12.86A486.29,486.29,0,0,0,287.57,189q20.79.34,41.56-1.11c5.1-.36,10.33-.57,14.75-3.46,2.82-1.85,5.38-5.77,2.63-8.88-1.3-1.47-3.39-2.21-5.22-2.76a31.69,31.69,0,0,0-4.64-1c-2.26-.32-4.55-.48-6.83-.59-6.64-.34-13.32-.27-20-.13-18.11.36-36.21,1.41-54.29,2.58q-24.67,1.6-49.33,3.61l-4.39.35c-.56,0-.56.92,0,.88q22.82-1.86,45.66-3.43c17.89-1.22,35.79-2.3,53.72-2.89,7.32-.24,14.65-.4,22-.3a86.85,86.85,0,0,1,14.77,1c3.41.65,9.88,2.09,8.69,6.89-1,4.17-6.91,6-10.59,6.64a93.58,93.58,0,0,1-9.61.78c-3.42.22-6.85.4-10.27.55q-10.05.44-20.12.45a485.06,485.06,0,0,1-81.78-6.84c-3.24-.55-6.46-1.13-9.69-1.75,0,.29-.07.57-.11.86q29.64,2.19,59.12,6.26,29.28,4,58.27,9.95c6.53,1.34,16.87,4.1,17.16,12.34l.43-.43q-25-3-49.68-8.23-24.37-5.16-48.23-12.46-13.49-4.12-26.75-8.93c-.07.28-.15.56-.23.85a313.81,313.81,0,0,1,99.82,42.94q12.93,8.47,25,18.2l.42-.73a426.67,426.67,0,0,1-55-14.73,423.66,423.66,0,0,1-58.26-24.91q-13.34-6.93-26.18-14.8c-.08.27-.14.54-.22.81a199.78,199.78,0,0,1,42.2-.55,186.08,186.08,0,0,1,81.16,27.32c.07-.28.14-.55.22-.82a754.47,754.47,0,0,1-88.64-14.38q-12.23-2.73-24.36-5.88c0,.29-.07.57-.11.86,20.87,1.42,41,7.85,60,16.25,9.5,4.19,18.78,8.86,27.95,13.7,4.58,2.42,9.14,4.89,13.68,7.35a110.68,110.68,0,0,1,11.12,6.69c7.35,5.22,14.74,12.78,13.5,22.54l.66-.38q-27.09-12.22-53.66-25.56T231.33,206q-14.62-8.13-29.06-16.59c-.11.27-.23.53-.34.8A360.74,360.74,0,0,1,290.73,227q11.67,6.78,22.81,14.42c.11-.27.23-.53.34-.8a312,312,0,0,1-70.61-20.06,288.92,288.92,0,0,1-27.79-12.86,78.38,78.38,0,0,1-7.94-4.73,11.43,11.43,0,0,1-1.95-1.58c-.14-.15-.24-.35-.38-.5s0,0,0,0a2.75,2.75,0,0,1,.67-.22,8.5,8.5,0,0,1,1.44-.1,35.39,35.39,0,0,1,4.82.34,110,110,0,0,1,15.75,3.34,156.2,156.2,0,0,1,44,19.83c17.34,11.42,31.79,26.87,40.28,46,1.09,2.42,2.06,4.9,2.95,7.4l.54-.54a234.59,234.59,0,0,1-41.15-17.69,215.81,215.81,0,0,1-46.68-34.54,213.85,213.85,0,0,1-22.61-25.95l-.6.6a247,247,0,0,1,43,29.77,245.4,245.4,0,0,1,53.36,65.22l.69-.53q-16.47-14-33-28-12.36-10.46-24.74-20.88-8.65-7.29-17.36-14.53c-3.69-3.06-7.37-6.11-11.09-9.12-1.88-1.52-3.74-3.05-5.69-4.49a5.32,5.32,0,0,0-1.09-.73c-.7-.27-1,.34-.52.87a25.46,25.46,0,0,0,3.07,2.51c2,1.66,4.06,3.35,6,5.1a151.31,151.31,0,0,1,17.09,17.71,116.8,116.8,0,0,1,16.69,27,90.38,90.38,0,0,1,7.55,38.26c-.07,3-.3,6-.65,9l.85-.11a424.33,424.33,0,0,0-17.11-43.2A423.11,423.11,0,0,0,217.39,228q-6.67-10.77-14-21.13l-.49.64a115.37,115.37,0,0,1,75.33,89l.73-.43-61.7-57.4-17.43-16.23-.43.73a96.08,96.08,0,0,1,65.18,85l.75-.31q-15.24-14.36-29.49-29.72-15.27-16.48-29.32-34-7.58-9.47-14.77-19.23l-.6.6a108.65,108.65,0,0,1,53.67,74.26,113.32,113.32,0,0,1,2.05,17.9l.74-.31a427.05,427.05,0,0,1-28.71-34.43,423.28,423.28,0,0,1-25.89-39q-5.85-9.94-11.15-20.2l-.6.6a75.66,75.66,0,0,1,21.45,14.74,68.73,68.73,0,0,1,20.56,43.67,72.38,72.38,0,0,1-1.66,21.91l.8-.11c-10.17-17.23-20.28-34.51-30-52-4.43-8-9-16-12.65-24.44a18.24,18.24,0,0,1-1.54-4.45c0-.05,0-.33,0-.47s0,0,0,0-.06,0,0,0,.37.12.5.18a9.11,9.11,0,0,1,1.79,1.28c5,4.21,9,9.75,12.65,15.12a122.49,122.49,0,0,1,14,27.63c7.21,20.32,7.94,42.38,3.26,63.34-.36,1.62-.76,3.23-1.17,4.83l.79-.1a317.46,317.46,0,0,1-31.5-90q-2.34-12.43-3.67-25l-.75.31A85.25,85.25,0,0,1,197.81,250,83.64,83.64,0,0,1,204,305.19a84.64,84.64,0,0,1-5.51,16.43h.76a351,351,0,0,1-23.85-78.84q-2.07-11.68-3.34-23.47l-.82.22c9.46,13.27,19.27,26.78,24.22,42.49,4.15,13.18,4.29,27.87-1.64,40.56a37.22,37.22,0,0,1-14.23,16.28l.66.38q-4.5-40-9-79.93Q170,228,168.73,216.76l-.81.22a90.57,90.57,0,0,1,13.42,38,95.35,95.35,0,0,1-3.69,40,87.44,87.44,0,0,1-9.6,20.63l.82.22a565.85,565.85,0,0,1,.84-69.52q.71-9.7,1.76-19.38l-.86.12a106.13,106.13,0,0,1-2.18,80.34,112,112,0,0,1-6.8,13.15l.82.22q2.12-39.48,7.12-78.72,1.41-11,3.05-22l-.86-.11a176,176,0,0,1-2.31,43.36,175.38,175.38,0,0,1-15,45.89,180.45,180.45,0,0,1-9.69,17.28l.81.22a467.58,467.58,0,0,1,17.86-83.39q3.56-11.44,7.72-22.71l-.85-.12C169.74,233.68,168.72,247,166,260c-2.58,12.54-6.74,25-13.94,35.67a63.58,63.58,0,0,1-14.87,15.61l.64.5c8.36-20.77,16.65-41.59,24.11-62.7,2-5.77,4-11.58,5.76-17.46a70.48,70.48,0,0,0,2.44-10.13c.15-1.12.59-3.28-.44-4.16s-2.43.46-3.13,1.13a45.16,45.16,0,0,0-5.51,7c-3.17,4.57-6.09,9.31-9,14.06-10.66,17.66-20.55,35.8-30.36,53.94l-5,9.38.8.34a127.73,127.73,0,0,1,7.74-28.56,114.41,114.41,0,0,1,23.35-36.41c10.59-11.07,15.65-16.81,18.7-15.71,5.79,2.08,5.86,27.77-22.25,137.73C173.65,251.82,173.6,224.28,166.89,221.72Z" style="fill:#fff"/><path d="M215.16,205.16c17-6.73,35.46-7.36,53.5-7.72,9.28-.18,18.54-.35,27.8-1.06q14.25-1.09,28.34-3.53a301.67,301.67,0,0,0,31.54-7.2.44.44,0,0,0,0-.84,247,247,0,0,0-39.7-6.7,269.58,269.58,0,0,0-37.38-.6,296.6,296.6,0,0,0-31.61,3.35c-8.28,1.31-16.5,3-24.65,4.9-5.15,1.22-10.26,2.6-15.4,3.9a29.76,29.76,0,0,1-3.69.81,3.71,3.71,0,0,1-.47,0c-.16,0-.11,0-.1,0s.22.35.11.36c.13,0,.39-.32.55-.41a39.92,39.92,0,0,1,7.22-3.06c4.51-1.63,9.09-3.07,13.68-4.43a382.1,382.1,0,0,1,37.16-9c12.56-2.37,25.24-4.07,37.89-6l43.94-6.59,10.69-1.61c.45-.06.39-.74,0-.84-11.13-2.87-22.7-3.17-34.13-2.8-10.5.34-21,1-31.48,1.73-10,.75-20,1.77-29.91,3.44a170.71,170.71,0,0,0-28.85,7.27,114.09,114.09,0,0,0-26,13c-1,.71-2.05,1.43-3.06,2.17a.44.44,0,0,0,.23.81l35.55,2.73c11.64.89,23.28,1.89,34.93,2.64,11,.7,22.15,1,33.1-.72A80,80,0,0,0,321.05,185a143.61,143.61,0,0,0,15.07-6.95c10.42-5.41,20.77-10.94,31.15-16.41l3.87-2a.45.45,0,0,0-.22-.82c-11,.25-22.07.52-33.1,1s-22,1.06-33,2-21.77,2.24-32.56,4a298.05,298.05,0,0,0-31.83,7,232.54,232.54,0,0,0-30.64,10.91c-1.25.55-2.49,1.11-3.73,1.68l.53.69a93.15,93.15,0,0,1,24.77-14.3A245.44,245.44,0,0,1,258.9,163c9.36-2.53,18.76-4.92,28-8,9-3,18.06-6.56,26.09-11.7,7.64-4.89,14.86-11.68,17.5-20.62a27.53,27.53,0,0,0,.74-3.33.45.45,0,0,0-.42-.56c-8.16-.34-16,2.2-23.3,5.69-7.78,3.73-15.09,8.42-22.49,12.83L237,166l-27,16.13a.44.44,0,0,0,.33.8l32.53-10.53,32.69-10.58L308,151.29,324.46,146A96.81,96.81,0,0,0,338,141c3.8-1.89,7.43-4.55,9.54-8.31a14.77,14.77,0,0,0,1.65-11,10.16,10.16,0,0,0-1.11-2.58c-.31-.51-.95-1.69-1.57-1.84a4.45,4.45,0,0,0-1.48.24l-1.88.35c-1.21.23-2.41.46-3.61.71-4.91,1-9.79,2.09-14.64,3.3q-14.42,3.6-28.47,8.54t-27.52,11.1q-13.51,6.19-26.43,13.59t-25.05,16c-2,1.41-4,2.85-6,4.31a.43.43,0,0,0,.44.75c10-4.37,20.91-5.47,31.64-6.31q17.52-1.38,35-2.7c11.42-.88,22.89-1.53,34.28-2.83,10.42-1.18,20.85-3.17,30.47-7.48,8.28-3.72,15.94-9.15,21.4-16.47.69-.92,1.33-1.87,1.94-2.85.23-.36-.14-.68-.49-.64q-29.94,4.05-59.63,9.65Q277,152,247.81,159.11q-16.51,4-32.93,8.49c.14.25.29.49.43.73a128.79,128.79,0,0,1,21.1-14.94c7.5-4.35,15.29-8.17,23.11-11.89s15.69-7.34,23.4-11.3a170.53,170.53,0,0,0,21.9-13.09,93.51,93.51,0,0,0,18.25-17c.65-.8,1.28-1.62,1.91-2.45a.44.44,0,0,0-.27-.64c-8.16-1.69-16.22.84-23.35,4.78-7.83,4.33-14.72,10.17-21.79,15.61q-22.95,17.64-46.82,34.06-13.41,9.22-27.08,18c-.47.3,0,1.06.44.75Q230.17,154.8,253.4,138q11.55-8.32,22.87-16.95c7.11-5.42,14-11.26,21.52-16.08,7.9-5.05,17.16-9.06,26.7-7.09-.09-.21-.18-.42-.26-.64A89.35,89.35,0,0,1,306.18,115a158,158,0,0,1-21.45,13.24c-7.67,4-15.52,7.67-23.33,11.38s-15.66,7.47-23.23,11.73a137.7,137.7,0,0,0-21.12,14.3q-1.2,1-2.37,2a.44.44,0,0,0,.43.73q29.13-8,58.65-14.43,29.36-6.41,59-11.3,16.77-2.76,33.62-5c-.16-.22-.33-.43-.49-.64-5,7.89-12.46,13.8-20.74,17.9-9.44,4.68-19.86,6.91-30.25,8.21-11.27,1.41-22.67,2-34,2.9l-34.74,2.67c-10.51.81-21.23,1.6-31.22,5.22-1.19.43-2.37.91-3.53,1.42l.45.76a321.58,321.58,0,0,1,134.66-58l-.43-.11c2.84,3,3.15,7.4,2,11.22-1.31,4.27-4.42,7.47-8.17,9.76-4,2.43-8.52,3.86-13,5.3l-16.1,5.21L278.49,160l-32.2,10.42-32.21,10.42-4,1.31.33.79,47.69-28.45,23.56-14.06c7.54-4.5,15-9.22,22.76-13.32,8.14-4.29,17-7.73,26.37-7.33l-.42-.56c-1.48,9.51-8.34,16.91-16,22.2-7.85,5.42-16.87,9.13-25.86,12.21s-18.47,5.55-27.79,8a274.82,274.82,0,0,0-27.5,8.51,99.38,99.38,0,0,0-24.56,13.22c-.9.69-1.78,1.38-2.65,2.1-.41.34.11.88.53.69a224.93,224.93,0,0,1,30.54-11.46,286.66,286.66,0,0,1,31.56-7.38c10.79-1.91,21.66-3.3,32.57-4.33S323,161.28,334,160.8s21.87-.78,32.81-1l4.1-.1c-.07-.27-.14-.54-.22-.81l-31.22,16.46c-9.85,5.18-19.77,10.12-30.76,12.35s-22.15,2.21-33.22,1.62c-11.47-.61-22.93-1.66-34.38-2.53l-35.38-2.71-4.39-.34c.08.27.15.54.23.81a109.76,109.76,0,0,1,25.66-13.87,159.74,159.74,0,0,1,28.35-7.79,291.57,291.57,0,0,1,29.74-3.79c10.19-.83,20.4-1.39,30.61-1.84,11.45-.51,23.07-.64,34.35,1.65,1.37.28,2.73.59,4.07.94V159l-44.61,6.71c-13.66,2-27.35,3.95-41,6.24a377.87,377.87,0,0,0-37.33,8.29c-5.35,1.47-10.67,3-15.93,4.79-3.36,1.12-6.73,2.28-10,3.72-.55.25-3.5,1.29-2.86,2.35.39.63,1.67.24,2.21.14,4.06-.79,8.06-2,12.07-3.05,7.31-1.86,14.67-3.52,22.09-4.91a304.24,304.24,0,0,1,30.36-4.17,278,278,0,0,1,36.39-.79,249.62,249.62,0,0,1,41.12,5.23q4.6,1,9.18,2.15v-.85a302.74,302.74,0,0,1-56.71,10.46c-9.3.81-18.61,1.08-27.94,1.25-9.08.18-18.18.33-27.24,1.22a108,108,0,0,0-29.28,6.58c-.5.19-.28,1,.24.83Z" style="fill:#fff"/></g></g></svg>