<?xml version="1.0" encoding="utf-8"?>
<!-- Generator: Adobe Illustrator 27.2.0, SVG Export Plug-In . SVG Version: 6.00 Build 0)  -->
<svg version="1.1" id="Layer_1" xmlns="http://www.w3.org/2000/svg" xmlns:xlink="http://www.w3.org/1999/xlink" x="0px" y="0px"
	 viewBox="0 0 1920 4080" style="enable-background:new 0 0 1920 4080;" xml:space="preserve">
<style type="text/css">
	.st0{fill:none;stroke:#000000;stroke-width:0.5;stroke-miterlimit:10;}
</style>
<g>
	<g>
		<path d="M446.5,405.25c11.83,0.1,22.87-11.25,25.28-22.33c3.02-13.86-5.52-28.72-15.28-37.92c-4.86-4.59-10.91-8.46-17.68-9.24
			c-5.64-0.64-11.26,1.2-15.38,5.1c-7.81,7.39-9.73,19.91-7.63,30.05c4.73,22.87,30.21,42.61,53.77,35.23
			c18.39-5.76,28.96-30.42,19.99-47.63c-5.86-11.24-18.85-15.04-30.68-15.66c-7.17-0.37-14.47,0-21.6,0.76
			c-7.15,0.77-14.37,2.28-20.68,5.86c-19.87,11.27-21.49,40.86-7.1,57.16c8.11,9.19,20.3,13.89,32.37,14.42
			c12.35,0.55,26-3.07,35.42-11.36c11.02-9.69,9.18-25.32,3.23-37.32c-5.43-10.95-14.75-19.96-25.71-25.31
			c-10.64-5.2-23.13-7-34.58-3.54c-10.57,3.2-19.39,10.92-24.93,20.36c-5.5,9.37-7.99,20.79-5.49,31.48
			c2.68,11.5,11.19,20.67,21.6,25.84c11.03,5.48,23.88,6.86,35.89,4.35c13.97-2.92,26.54-10.43,37.31-19.59
			c5.34-4.54,10.65-9.47,14.87-15.1c3.82-5.1,7.32-11.55,6.79-18.14c-0.53-6.51-5.15-10.91-10.76-13.63
			c-6.94-3.35-14.46-5.87-21.76-8.31c-14.4-4.81-29.69-8.08-44.89-5.84c-12.89,1.91-25.64,7.81-33.64,18.39
			c-7.68,10.16-9.94,23.78-7.13,36.08c2.85,12.5,11.15,22.9,22.45,28.86c11.11,5.87,24.6,7.5,36.66,3.76
			c11.24-3.49,20.71-11.51,26.88-21.44c6.13-9.87,9.09-21.8,7.39-33.36c-1.7-11.58-8.35-21.92-17.45-29.13
			c-9.06-7.17-20.53-11.47-32.13-11.36c-11.56,0.11-22.45,4.94-30.61,13.07c-16.24,16.17-20.83,43.33-6.37,62.11
			c13.97,18.15,41.01,25.07,61.27,13.64c6.27-3.53,11.71-8.37,16.58-13.62c4.82-5.21,9.42-10.81,13.32-16.75
			c3.56-5.41,6.86-11.73,6.81-18.37c-0.04-5.5-2.74-10.37-7-13.74c-5.68-4.5-13.26-6.65-20.39-7.36c0.13,0.47,0.25,0.93,0.38,1.4
			c27.45-12.67,53.36-28.61,77.06-47.39c28.48-22.59,53.66-49.27,74.58-78.99c8.76-12.44,16.77-25.42,23.98-38.82
			c0.35-0.65-0.36-1.41-1.03-1.03c-25.66,14.92-49.91,32.26-72.3,51.76c-27.25,23.73-51.71,50.63-72.77,80
			c-9.57,13.34-18.42,27.18-26.54,41.45c-0.3,0.53,0.21,1.33,0.85,1.1c8.94-3.24,17.21-7.32,25.42-12.1
			c12.78-7.45,25.02-15.85,36.76-24.83c15.99-12.23,31.26-25.6,45.18-40.16c12.6-13.19,23.74-27.88,32.45-43.93
			c9.72-17.93,16.27-37.57,18.04-57.94c0.05-0.61-0.89-1.04-1.28-0.53c-9.48,12.17-22.05,21.26-34.66,29.92
			c-12.54,8.62-24.85,17.35-36.15,27.6c-22.84,20.73-41.81,45.31-59.08,70.76c-9.8,14.44-19.09,29.22-28.36,44.01
			c-0.39,0.62,0.4,1.45,1.03,1.03c27.1-18.19,50.29-41.9,68.35-69.06c18.02-27.1,30.98-57.61,37.73-89.46
			c3.8-17.92,5.63-36.26,5.33-54.58c-0.01-0.52-0.65-1-1.13-0.65c-22.82,16.62-43.44,36.22-61.14,58.22
			c-23.48,29.17-41.72,62.43-53.75,97.9c-4.97,14.66-8.86,29.67-11.66,44.89c-0.11,0.59,0.51,1.23,1.1,0.85
			c24.01-15.69,46.33-33.96,66.41-54.44c23.88-24.36,44.6-51.81,61.46-81.46c7.26-12.76,13.8-25.93,19.61-39.41
			c0.27-0.63-0.33-1.47-1.03-1.03c-23.52,14.99-45.21,32.85-64.4,53.11c-24.31,25.65-44.58,55.1-59.86,86.96
			c-6.29,13.11-11.73,26.62-16.31,40.42c-0.23,0.68,0.78,1.32,1.25,0.73c18.15-22.39,33.65-46.91,46.02-72.94
			c15.62-32.88,26.26-68.08,31.44-104.11c2.17-15.08,3.39-30.3,3.66-45.53c0.01-0.69-0.81-0.93-1.28-0.53
			c-8.24,6.98-16.01,14.5-23.27,22.5c-10.44,11.5-19.81,23.98-27.93,37.23c-10.22,16.68-18.42,34.58-24.37,53.21
			c-6.14,19.21-9.86,39.18-11.12,59.31c-0.9,14.45-0.54,28.98,1.09,43.36c0.15,1.33,0.31,2.66,0.49,3.98
			c0.06,0.5,0.61,1.02,1.13,0.65c15.55-11.09,30.75-22.68,45.55-34.76c16.89-13.78,33.26-28.2,49.07-43.2
			c16.29-15.46,31.98-31.55,47.03-48.23c13.6-15.07,26.68-30.61,39.2-46.59c5.59-7.13,11.07-14.35,16.43-21.65
			c0.61-0.84,1.23-1.67,1.84-2.51c0.57-0.78,1.51-1.69,1.85-2.59c0.41-1.07,0.05-2.62-0.5-3.58c-1.34-2.35-4.3-3.11-6.81-3.31
			c-3.25-0.26-6.55,0.39-9.51,1.71c-4.15,1.86-8.23,3.88-12.26,5.99c-7.99,4.19-15.74,8.81-23.24,13.81
			c-14.96,9.97-28.9,21.42-41.89,33.84c-13.19,12.6-25.41,26.19-36.91,40.34c-11.64,14.33-22.56,29.24-33.04,44.44
			c-10.5,15.23-20.55,30.76-30.47,46.37c-2.41,3.79-4.81,7.59-7.21,11.39c-0.52,0.82,0.77,1.56,1.3,0.76
			c19.33-29.58,37.01-60.23,52.91-91.79c15.82-31.4,29.99-63.7,42.12-96.71c6.55-17.82,12.51-37.9,5.78-56.57
			c-0.19-0.54-0.82-0.73-1.25-0.33c-26.28,23.83-48.68,51.83-66.42,82.54c-17.74,30.7-30.86,64.1-38.62,98.71
			c-4.35,19.39-7.01,39.16-7.9,59.01c-0.04,0.83,1.31,1.04,1.47,0.2c5.69-29.82,11.24-59.72,14.48-89.92
			c3.21-29.92,4.16-60.25,0.22-90.15c-2.18-16.56-5.88-32.9-11.35-48.7c-0.17-0.5-0.86-0.78-1.25-0.33
			c-19.21,21.88-26.61,51.12-27.04,79.7c-0.51,33.03,8.45,65.02,17.06,96.6c5.25,19.27,10.4,38.61,13.37,58.39
			c0.12,0.79,1.23,0.63,1.45,0c10.08-29.36,18.95-59.13,26.59-89.21c7.58-29.87,13.94-60.06,19.06-90.45
			c2.88-17.1,5.36-34.26,7.46-51.46c0.09-0.7-0.85-0.91-1.28-0.53c-24.41,21.4-42.18,49.17-53.71,79.38
			c-11.86,31.06-17.38,64.33-18.78,97.45c-0.79,18.81-0.22,37.66,1.48,56.4c0.09,0.95,1.54,0.98,1.5,0
			c-1.37-32.75-2.73-65.51-4.1-98.26c-1.19-28.44-2.59-58.52-17.99-83.41c-7.24-11.7-17.32-21.75-29.96-27.46
			c-0.34-0.15-0.84-0.13-1.03,0.27c-5.75,12.37-6.46,26.16-4.87,39.54c1.63,13.73,5.29,27.23,9.17,40.47
			c7.92,27.02,18.42,53.3,31.3,78.34c7.29,14.18,15.35,27.95,24.12,41.26c0.34,0.51,1.22,0.48,1.37-0.18
			c7.66-33.16,15.33-66.33,22.99-99.49c3.81-16.47,7.61-32.94,11.42-49.41c3.58-15.48,7.61-30.95,9.88-46.69
			c2.4-16.62,2.56-33.86-3.61-49.73c-0.14-0.36-0.51-0.67-0.92-0.52c-15.25,5.37-28.13,15.44-37.98,28.17
			c-10.26,13.25-17.29,28.8-22.26,44.74c-5.43,17.41-8.26,35.41-9.9,53.54c-2.17,24.01-2.4,48.19-0.69,72.24
			c0.82,11.53,1.74,23.29,3.86,34.67c1.23,6.61,4.14,15.4,10.98,18.15c1.58,0.63,3.24,0.82,4.92,0.65c0.41-0.04,0.74-0.31,0.75-0.75
			c1.08-40.49,0.76-81.02-0.99-121.49c-0.76-17.6-1.24-35.37-3.5-52.86c-1.72-13.39-4.61-26.87-10.4-39.14
			c-6.08-12.88-15.76-23.76-29.33-28.8c-0.57-0.21-1.04,0.41-0.92,0.92c7.15,32.13,14.29,64.27,21.44,96.4
			c7.1,31.91,14.2,63.82,21.29,95.73c4.02,18.07,8.04,36.15,12.06,54.22c0.21,0.94,1.66,0.54,1.45-0.4
			c-7.15-32.13-14.29-64.27-21.44-96.4c-7.1-31.91-14.2-63.82-21.29-95.73c-4.02-18.07-8.04-36.15-12.06-54.22
			c-0.31,0.31-0.62,0.62-0.92,0.92c25.88,9.62,34.73,39.1,38.27,63.9c2.39,16.74,2.86,33.8,3.63,50.68
			c0.91,19.78,1.48,39.57,1.71,59.37c0.26,22.3,0.09,44.6-0.51,66.9c0.25-0.25,0.5-0.5,0.75-0.75c-8.35,0.81-12.3-8.62-13.94-15.29
			c-1.25-5.08-1.71-10.4-2.32-15.58c-0.68-5.68-1.24-11.37-1.7-17.07c-1.86-23.13-1.92-46.41-0.18-69.56
			c1.37-18.24,3.77-36.39,8.69-54.04c4.41-15.82,10.7-31.32,20-44.93c8.86-12.96,20.64-23.95,35.06-30.41
			c1.92-0.86,3.87-1.62,5.85-2.32c-0.31-0.17-0.62-0.35-0.92-0.52c11.39,29.32,1.55,61.74-5.19,90.95
			c-7.56,32.72-15.12,65.44-22.68,98.15c-4.27,18.47-8.54,36.95-12.81,55.42c0.46-0.06,0.91-0.12,1.37-0.18
			c-15.31-23.24-28.44-47.91-39.13-73.6c-5.3-12.73-10-25.72-14.09-38.89c-4.08-13.15-7.86-26.55-10.17-40.14
			c-2.58-15.15-2.92-31.25,3.69-45.47c-0.34,0.09-0.68,0.18-1.03,0.27c24.03,10.86,37.17,35.98,42.42,60.7
			c3.15,14.8,3.97,29.96,4.62,45.03c0.69,16.07,1.34,32.13,2.01,48.2c0.75,17.97,1.5,35.94,2.25,53.91c0.5,0,1,0,1.5,0
			c-3.01-33.14-2.55-66.77,2.92-99.63c5.31-31.91,15.47-63.35,32.58-90.96c9.6-15.48,21.36-29.56,35.07-41.58
			c-0.43-0.18-0.85-0.35-1.28-0.53c-3.75,30.75-8.75,61.34-15.01,91.67c-6.22,30.19-13.68,60.12-22.35,89.7
			c-4.86,16.57-10.09,33.03-15.7,49.36c0.48,0,0.96,0,1.45,0c-5.17-34.47-16.97-67.43-24.36-101.42
			c-6.35-29.22-9.01-59.95-1.37-89.21c4.08-15.63,11.25-30.41,21.95-42.6c-0.42-0.11-0.84-0.22-1.25-0.33
			c9.76,28.21,13.72,58,13.88,87.77c0.16,30.25-3.39,60.4-8.22,90.22c-2.71,16.71-5.83,33.35-9.01,49.98
			c0.49,0.07,0.98,0.13,1.47,0.2c1.58-35.31,8.84-70.28,21.13-103.42c12.22-32.95,29.42-64.08,50.89-91.92
			c12.17-15.78,25.73-30.48,40.49-43.86c-0.42-0.11-0.84-0.22-1.25-0.33c6.06,16.79,1.58,34.81-4.08,51.05
			c-5.78,16.59-12.47,32.91-19.4,49.04c-13.78,32.08-29.35,63.39-46.6,93.74c-9.67,17.01-19.86,33.71-30.57,50.08
			c0.43,0.25,0.86,0.5,1.3,0.76c19.33-30.64,38.92-61.2,61.03-89.93c21.74-28.25,46.07-54.89,74.61-76.42
			c13.97-10.54,28.91-19.81,44.72-27.36c3.54-1.69,6.92-3.34,10.92-3.48c2.6-0.09,6.98,0.28,7.79,3.38
			c0.48,1.84-1.26,3.33-2.27,4.72c-1.34,1.83-2.68,3.65-4.03,5.47c-2.67,3.59-5.37,7.17-8.09,10.72
			c-24.96,32.53-52.23,63.29-81.51,91.98c-29.37,28.78-60.77,55.49-93.91,79.85c-3.46,2.54-6.94,5.06-10.44,7.55
			c0.38,0.22,0.75,0.43,1.13,0.65c-1.74-13.43-2.39-26.99-1.91-40.52c0.68-19.45,3.67-38.8,8.94-57.54
			c5.47-19.44,13.37-38.18,23.47-55.66c7.99-13.82,17.33-26.85,27.83-38.86c7.46-8.53,15.49-16.56,24.05-23.98
			c0.76-0.66,1.52-1.31,2.29-1.96c-0.43-0.18-0.85-0.35-1.28-0.53c-0.53,30.18-4.83,60.27-12.8,89.39
			c-9.35,34.14-23.76,66.86-42.59,96.83c-7.71,12.26-16.15,24.06-25.27,35.31c0.42,0.24,0.84,0.49,1.25,0.73
			c9.16-27.63,21.85-54.06,37.73-78.46c18.73-28.79,41.85-54.68,68.33-76.56c10.75-8.88,22.05-17.09,33.81-24.58
			c-0.34-0.34-0.68-0.68-1.03-1.03c-11.27,26.17-25.34,51.12-41.95,74.28c-19.88,27.73-43.39,52.85-69.71,74.55
			c-11.27,9.29-23.06,17.95-35.29,25.94c0.37,0.28,0.73,0.56,1.1,0.85c5.59-30.39,15.57-59.94,29.63-87.46
			c16.37-32.05,38.19-61.23,64.27-86.02c10.06-9.56,20.74-18.46,31.96-26.63c-0.38-0.22-0.75-0.43-1.13-0.65
			c0.53,32.44-5.67,64.82-17.59,94.97c-11.89,30.09-29.46,57.97-51.61,81.55c-12.46,13.26-26.36,25.14-41.47,35.28
			c0.34,0.34,0.68,0.68,1.03,1.03c16.52-26.36,33.13-52.79,52.57-77.13c9.53-11.93,19.73-23.34,30.84-33.82
			c11.21-10.58,23.4-19.76,36.1-28.46c13.89-9.51,28.05-19.17,38.51-32.58c-0.43-0.18-0.85-0.35-1.28-0.53
			c-3.17,36.55-21.87,69.95-46.22,96.7c-13.38,14.7-28.42,28.07-44.01,40.38c-12.03,9.5-24.6,18.35-37.73,26.27
			c-9.26,5.58-18.61,10.48-28.79,14.16c0.28,0.37,0.56,0.73,0.85,1.1c15.61-27.44,33.98-53.3,54.8-77.04
			c23.21-26.46,49.43-50.28,78.01-70.83c12.34-8.88,25.12-17.15,38.27-24.8c-0.34-0.34-0.68-0.68-1.03-1.03
			c-14.17,26.34-31.43,50.99-51.37,73.28c-24.35,27.21-52.63,50.85-83.73,69.98c-12.88,7.93-26.24,15.07-39.97,21.41
			c-0.75,0.34-0.28,1.33,0.38,1.4c7,0.7,14.68,2.88,20.08,7.54c4.25,3.68,6.36,8.88,5.67,14.5c-0.81,6.61-4.57,12.66-8.38,17.96
			c-7.76,10.82-17.17,21.84-29.2,27.99c-9.72,4.97-21.05,5.65-31.52,2.85c-10.37-2.78-20.02-8.91-26.46-17.57
			c-6.54-8.79-9.11-19.75-7.71-30.58c2.84-21.92,20.91-41.33,43.68-41.66c22.03-0.32,43.99,15.74,48.1,37.79
			c4.12,22.08-9.97,46.21-31,53.88c-23.13,8.44-51.46-4.21-58.54-28.24c-3.43-11.65-2.03-24.83,4.56-35.13
			c6.89-10.76,18.84-17.1,31.1-19.58c14.14-2.86,28.62-0.51,42.27,3.6c7.24,2.18,14.33,4.86,21.37,7.61
			c5.94,2.32,12.75,5.19,14.72,11.88c1.87,6.36-1.28,13.06-4.8,18.23c-3.73,5.48-8.67,10.16-13.6,14.56
			c-10.03,8.95-21.65,16.52-34.68,20.18c-11.53,3.24-23.85,2.96-35.06-1.39c-10.57-4.1-19.96-12.15-23.81-23.03
			c-7.07-20.01,5.26-43.87,24.21-52.16c21.62-9.46,47.34,2.53,59.61,21.27c6.72,10.26,11.66,25.86,3.82,36.84
			c-3.81,5.33-9.97,8.88-15.95,11.25c-5.56,2.21-11.5,3.47-17.48,3.72c-11.67,0.49-23.77-2.86-32.63-10.68
			c-8.09-7.14-12.36-17.62-12.41-28.34c-0.05-10.2,3.8-20.66,11.94-27.14c10.75-8.55,26.28-9.02,39.41-9.16
			c11.86-0.12,25.93,1.59,33.51,11.91c5.48,7.46,5.96,17.46,3.38,26.1c-2.67,8.94-8.73,17.17-17.3,21.19
			c-10.2,4.78-22.43,2.9-32.02-2.41c-10.11-5.6-18.26-15.06-21.93-26.06c-3.29-9.86-2.66-22.08,3.81-30.58
			c3.27-4.29,8.15-7.07,13.6-7.26c7.07-0.24,13.62,3.57,18.73,8.15c9.71,8.72,18.46,23.23,15.82,36.79
			c-2.07,10.61-12.61,21.77-23.92,21.67C445.53,403.74,445.53,405.24,446.5,405.25L446.5,405.25z"/>
	</g>
</g>
<g>
	<g>
		<path d="M449.82,334.4c-3.06,1.02-6.13,2.04-9.19,3.06c-0.91,0.3-0.52,1.75,0.4,1.45c3.06-1.02,6.13-2.04,9.19-3.06
			C451.13,335.55,450.74,334.1,449.82,334.4L449.82,334.4z"/>
	</g>
</g>
<g>
	<g>
		<path d="M410.72,338.72c1.02-1.02,2.04-2.04,3.06-3.06c0.28-0.28,0.3-0.79,0-1.06c-0.3-0.27-0.76-0.3-1.06,0
			c-1.02,1.02-2.04,2.04-3.06,3.06c-0.28,0.28-0.3,0.79,0,1.06C409.96,339,410.43,339.02,410.72,338.72L410.72,338.72z"/>
	</g>
</g>
<g>
	<g>
		<path d="M410.19,338.94c0.97,0,0.97-1.5,0-1.5C409.23,337.44,409.22,338.94,410.19,338.94L410.19,338.94z"/>
	</g>
</g>
<g>
	<g>
		<path d="M409.75,338.06c13.72,1.92,17.15-16.54,16.54-26.6c-0.51-8.49-2.22-17.07-3.94-25.38c-1.77-8.55-3.96-17.02-6.56-25.36
			c-10.41-33.51-27.24-64.99-49.25-92.31c-12.55-15.58-26.81-29.76-42.49-42.2c-0.51-0.4-1.56-0.05-1.25,0.73
			c12.71,31.98,25.41,63.97,38.12,95.95c6.3,15.86,12.6,31.71,18.9,47.57c3.18,8,6.35,15.99,9.53,23.99
			c2.5,6.29,4.91,12.64,7.8,18.76c5.55,11.74,13.39,23.45,26.3,27.69c0.66,0.22,1.13-0.55,0.85-1.1
			c-16.41-32.19-32.82-64.38-49.23-96.57c-7.26-14.23-14.01-28.88-22.29-42.55c-6.69-11.05-14.59-21.82-24.73-29.95
			c-10.24-8.2-22.69-12.77-35.82-10.08c-0.5,0.1-0.65,0.7-0.45,1.1c12.93,26.14,27.77,51.33,44.41,75.28
			c18.74,26.97,39.74,52.37,62.7,75.84c10.92,11.17,22.3,21.89,34.07,32.16c0.5,0.44,1.56,0.03,1.25-0.73
			c-12.38-30.33-25.19-60.48-38.43-90.44c-13.66-30.91-27.78-61.62-42.35-92.11c-7.89-16.51-15.91-32.95-24.05-49.32
			c-0.3-0.6-1.2-0.41-1.37,0.18c-9.16,31.67-1.42,64.91,11.37,94.41c13.1,30.21,32.13,57.31,47.27,86.46
			c8.5,16.38,15.74,33.46,19.86,51.49c0.42-0.24,0.84-0.49,1.25-0.73c-20-25.65-40.18-51.23-62.34-75.08
			c-21.7-23.35-45.39-45.12-72.21-62.49c-14.98-9.71-30.9-17.93-47.59-24.28c-0.35-0.13-0.86,0.15-0.92,0.52
			c-2.18,13.34,3.99,25.45,12.63,35.22c10.26,11.6,23.39,20.16,35.91,29.06c30.47,21.66,60.95,43.31,91.42,64.97
			c17.19,12.22,34.39,24.44,51.58,36.66c0.64,0.46,1.37-0.41,1.03-1.03c-16.62-29.76-33.38-59.5-52.28-87.89
			c-18.43-27.69-38.95-54.21-63.09-77.19c-13.54-12.89-28.19-24.59-43.92-34.69c-0.7-0.45-1.29,0.4-1.03,1.03
			c12.83,29.92,28.06,58.8,45.53,86.27c17.29,27.21,36.76,53.05,58.14,77.19c12.11,13.67,24.85,26.78,38.15,39.3
			c0.7,0.66,1.75-0.38,1.06-1.06c-22.83-22.43-46.94-43.55-72.19-63.2c-25.1-19.54-51.31-37.65-78.47-54.19
			c-15.43-9.4-31.17-18.29-47.17-26.66c-0.48-0.25-1.15,0.05-1.13,0.65c1.25,30.46,23.79,53.49,47.49,69.89
			c13.78,9.53,28.66,17.31,43.59,24.87c17.6,8.91,35.49,17.24,53.64,24.97c20.24,8.62,40.8,16.49,61.61,23.61
			c0.58,0.2,1.25-0.58,0.85-1.1c-22.19-29.17-48.61-55-78.15-76.7c-29.66-21.78-62.41-39.36-96.98-51.98
			c-19.47-7.11-39.51-12.61-59.89-16.43c-0.75-0.14-1.23,0.67-0.73,1.25c21.88,25.3,46.6,48.09,73.54,67.92
			c27.08,19.92,56.37,36.84,87.18,50.29c17.1,7.47,34.67,13.86,52.57,19.13c0.87,0.26,1.22-0.89,0.58-1.37
			c-27.72-20.73-55.69-41.27-85.37-59.15c-28.92-17.41-59.67-32.38-92.41-41.06c-18.18-4.82-36.89-7.59-55.71-7.91
			c-0.66-0.01-0.98,0.82-0.53,1.28c25.93,26.33,56.67,47.35,89.39,64.33c33.26,17.26,68.44,30.54,103.99,42.25
			c20.13,6.63,40.43,12.75,60.75,18.79c0.8,0.24,1.35-0.99,0.58-1.37c-34.12-16.58-68.37-33.04-103.74-46.83
			c-34.9-13.6-71.04-24.64-108.25-29.63c-20.88-2.8-42-3.64-63.01-2.07c-0.66,0.05-1.12,1.06-0.38,1.4
			c37.35,16.85,75.76,31.32,114.96,43.25c39.39,12,79.56,21.45,120.17,28.27c5.63,0.95,11.27,1.84,16.91,2.68
			c4.04,0.6,8.05,1.16,12.15,0.95c6.52-0.34,14.04-2.56,15.75-9.71c0.07-0.3-0.04-0.7-0.34-0.85
			c-34.95-17.23-72.32-29.41-110.68-36.26c-38.23-6.83-77.39-8.45-116.04-4.64c-21.7,2.13-43.21,5.98-64.3,11.51
			c-0.73,0.19-0.69,1.24,0,1.45c34.22,10.42,69.13,18.55,104.38,24.58c35.27,6.03,70.89,9.99,106.62,11.94
			c20.12,1.1,40.28,1.55,60.43,1.36c0.98-0.01,0.95-1.41,0-1.5c-53.5-4.94-107.8-1.42-160.38,9.42
			c-14.67,3.02-29.21,6.65-43.58,10.87c-0.86,0.25-0.61,1.38,0.2,1.47c28.66,3.33,57.38,6.44,86.23,7.37
			c28.42,0.92,57.07-0.25,85.01-5.8c15.65-3.11,31.01-7.66,45.72-13.85c0.65-0.27,0.77-1.21,0-1.45
			c-32.88-10.06-66.43-17.87-100.34-23.51c-33.86-5.63-68.08-9.12-102.38-10.46c-19.39-0.76-38.8-0.82-58.2-0.18
			c-0.4,0.01-0.75,0.33-0.75,0.75c0.04,11.9,12.6,17.36,22.49,19.75c7.73,1.86,15.79,2.52,23.66,3.59
			c9.23,1.26,18.45,2.52,27.68,3.78c36.91,5.04,73.81,10.08,110.72,15.12c20.76,2.84,41.52,5.67,62.28,8.51
			c0.93,0.13,1.37-1.25,0.4-1.45c-27.12-5.44-54.93-7.21-82.53-5.33c-27.59,1.89-54.93,7.37-81.09,16.35
			c-14.73,5.05-29.07,11.23-42.87,18.44c-0.79,0.41-0.22,1.53,0.58,1.37c45.02-8.81,90.1-17.42,135.41-24.64
			c14.31-2.28,28.65-4.43,43.05-6.1c8.92-1.03,17.94-2.03,26.94-2c2.39,0.01,4.85,0.04,7.21,0.53c1.19,0.25,2.47,0.63,2.84,1.35
			c0.01,0.03,0.02,0.4-0.12,0.68c-0.28,0.56-0.62,0.9-1.1,1.37c-1.55,1.5-3.5,2.63-5.36,3.7c-7.17,4.11-14.91,7.3-22.55,10.42
			c-12.71,5.18-25.6,9.9-38.53,14.5c-40.89,14.53-82.26,27.74-123.66,40.75c-6.51,2.05-13.03,4.08-19.54,6.11
			c-0.94,0.29-0.54,1.59,0.4,1.45c28.22-4.21,56.06-10.87,83.12-19.92c26.87-8.98,52.97-20.29,77.91-33.75
			c14.18-7.66,27.98-16.03,41.34-25.05c0.56-0.38,0.42-1.47-0.38-1.4c-29.59,2.65-59.06,6.51-88.33,11.59
			c-29.34,5.09-58.47,11.4-87.28,18.91c-16.37,4.27-32.63,8.92-48.79,13.95c-0.85,0.26-0.62,1.38,0.2,1.47
			c30.99,3.52,62.27,3.24,93.31,0.48c30.92-2.75,61.58-7.86,92.02-13.83c17.47-3.42,34.87-7.13,52.27-10.86
			c0.94-0.2,0.54-1.64-0.4-1.45c-26.29,5.5-52.59,11.33-78.06,19.92c-24.55,8.28-48.52,19.21-69.13,35.09
			c-11.39,8.78-21.56,19-30.13,30.56c-0.38,0.52,0.26,1.32,0.85,1.1c22.77-8.35,45.53-16.79,67.69-26.67
			c22.09-9.85,43.64-21.19,63.35-35.28c10.98-7.85,21.34-16.55,30.84-26.15c0.63-0.64-0.16-1.52-0.91-1.18
			c-23.19,10.75-45.26,23.86-65.8,39.07c-20.5,15.17-39.48,32.39-56.53,51.35c-9.55,10.61-18.48,21.77-26.77,33.39
			c-0.54,0.75,0.57,1.39,1.18,0.91c39.4-30.91,78.67-61.97,117.82-93.2c11.13-8.88,22.25-17.77,33.35-26.67
			c-0.39-0.3-0.79-0.61-1.18-0.91c-29.12,39.58-58.69,78.83-88.71,117.73c-8.49,11.01-17.03,21.98-25.59,32.93
			c-0.5,0.64,0.11,1.62,0.91,1.18c22.28-12.4,42.69-28.16,60.28-46.63c23.13-24.29,41.46-53.21,53.08-84.7
			c4.44-12.02,7.85-24.38,10.41-36.93c0.14-0.69-0.71-1.31-1.25-0.73c-35.18,37.31-70.65,74.35-105.96,111.55
			c-9.98,10.51-19.94,21.04-29.89,31.58c-0.68,0.72,0.32,1.64,1.06,1.06c38.72-30.01,77.21-60.31,115.83-90.44
			c10.99-8.58,22-17.14,33.02-25.69c0.76-0.59-0.31-1.65-1.06-1.06c-38.72,30.01-77.21,60.31-115.83,90.44
			c-10.99,8.58-22,17.14-33.02,25.69c0.35,0.35,0.71,0.71,1.06,1.06c35.18-37.31,70.65-74.35,105.96-111.55
			c9.98-10.51,19.94-21.04,29.89-31.58c-0.42-0.24-0.84-0.49-1.25-0.73c-5.24,25.63-14.27,50.29-27.3,73
			c-16.5,28.77-38.8,54.15-65.14,74.29c-9.71,7.42-19.96,14.13-30.64,20.07c0.3,0.39,0.61,0.79,0.91,1.18
			c30.33-38.77,60.21-77.88,89.63-117.34c8.34-11.18,16.64-22.39,24.91-33.63c0.55-0.74-0.57-1.4-1.18-0.91
			c-39.13,31.36-78.38,62.56-117.77,93.6c-11.13,8.77-22.26,17.53-33.41,26.27c0.39,0.3,0.79,0.61,1.18,0.91
			c14.73-20.66,31.56-39.81,50.14-57.09c18.67-17.36,39.08-32.84,60.85-46.11c12.14-7.4,24.69-14.1,37.58-20.08
			c-0.3-0.39-0.61-0.79-0.91-1.18c-34.09,34.47-78.44,55.82-123.02,73.34c-12.66,4.98-25.42,9.68-38.19,14.37
			c0.28,0.37,0.56,0.73,0.85,1.1c15.39-20.75,36.05-36.69,58.9-48.5c23.4-12.1,48.7-20.1,74.16-26.56
			c14.37-3.64,28.86-6.79,43.37-9.82c-0.13-0.48-0.27-0.96-0.4-1.45c-30.55,6.54-61.13,13.04-91.99,18.01
			c-30.67,4.95-61.64,8.38-92.72,8.72c-17.54,0.2-35.07-0.61-52.5-2.59c0.07,0.49,0.13,0.98,0.2,1.47
			c28.3-8.81,56.95-16.47,85.88-22.92c28.93-6.45,58.12-11.71,87.48-15.74c16.83-2.31,33.72-4.22,50.64-5.73
			c-0.13-0.47-0.25-0.93-0.38-1.4c-23.54,15.9-48.44,29.74-74.38,41.32c-25.99,11.61-52.99,20.94-80.59,27.87
			c-15.51,3.89-31.21,7.01-47.03,9.37c0.13,0.48,0.27,0.96,0.4,1.45c44.81-13.95,89.59-28.11,133.91-43.58
			c14.18-4.95,28.31-10.02,42.28-15.54c8.73-3.45,17.51-6.99,25.83-11.36c2.35-1.24,4.7-2.54,6.83-4.15
			c1.13-0.86,2.58-1.96,3.01-3.4c0.99-3.33-4.23-3.88-6.32-4.09c-7.39-0.75-15.03,0.06-22.39,0.75
			c-13.08,1.23-26.11,3.06-39.09,5.01c-43.3,6.5-86.36,14.62-129.34,22.91c-6.7,1.29-13.39,2.59-20.08,3.9
			c0.19,0.46,0.39,0.91,0.58,1.37c24.29-12.69,50.25-22.07,77.01-27.96c26.88-5.91,54.53-8.29,82.02-7.03
			c15.56,0.71,31.04,2.62,46.31,5.68c0.13-0.48,0.27-0.96,0.4-1.45c-35.75-4.88-71.51-9.77-107.26-14.65s-71.51-9.77-107.26-14.65
			c-11.29-1.54-31.16-5.14-31.2-20.01c-0.25,0.25-0.5,0.5-0.75,0.75c34.23-1.12,68.53-0.06,102.63,3.13
			c34.31,3.21,68.43,8.58,102.05,16.16c18.79,4.24,37.42,9.17,55.84,14.81c0-0.48,0-0.96,0-1.45
			c-26.23,11.05-54.36,16.66-82.66,18.79c-28.59,2.15-57.33,0.92-85.86-1.53c-16.05-1.38-32.05-3.17-48.05-5.03
			c0.07,0.49,0.13,0.98,0.2,1.47c51.42-15.09,105.14-22.67,158.72-22.4c14.97,0.08,29.94,0.79,44.84,2.17c0-0.5,0-1,0-1.5
			c-35.65,0.32-71.32-1.35-106.79-5.04c-35.72-3.72-71.23-9.48-106.25-17.43c-19.51-4.43-38.86-9.54-57.99-15.37
			c0,0.48,0,0.96,0,1.45c37.45-9.83,76.22-14.26,114.92-13.36c38.69,0.91,77.25,7.12,114.24,18.5c20.83,6.41,41.14,14.47,60.7,24.1
			c-0.11-0.28-0.23-0.56-0.34-0.85c-1.74,7.26-10.15,8.68-16.53,8.66c-4.02-0.02-7.98-0.71-11.94-1.31
			c-4.84-0.74-9.67-1.51-14.49-2.32c-19.57-3.29-39.03-7.18-58.36-11.68c-38.65-9-76.74-20.4-113.97-34.12
			c-21.11-7.78-41.93-16.31-62.44-25.56c-0.13,0.47-0.25,0.93-0.38,1.4c37.21-2.77,74.47,2.14,110.45,11.65
			c36.63,9.69,71.91,23.87,106.38,39.47c19.3,8.73,38.37,17.95,57.43,27.2c0.19-0.46,0.39-0.91,0.58-1.37
			c-35.9-10.68-71.78-21.6-106.73-35.14c-34.47-13.36-68.15-29.32-98.8-50.13c-17.2-11.68-33.34-24.89-47.94-39.71
			c-0.18,0.43-0.35,0.85-0.53,1.28c33.82,0.58,66.85,9.32,97.74,22.82c31.27,13.66,60.39,31.77,88.36,51.19
			c15.79,10.96,31.24,22.4,46.63,33.91c0.19-0.46,0.39-0.91,0.58-1.37c-32.08-9.45-63.05-22.52-92.22-38.87
			c-29.06-16.28-56.33-35.77-81.12-58.03c-13.92-12.51-27.05-25.89-39.29-40.05c-0.24,0.42-0.49,0.84-0.73,1.25
			c35.94,6.74,70.82,18.76,103.36,35.43c32.54,16.67,62.73,37.9,89.33,62.98c15.04,14.17,28.91,29.56,41.42,46.01
			c0.28-0.37,0.56-0.73,0.85-1.1c-36.49-12.47-72.17-27.28-106.75-44.35c-28.41-14.02-58.63-28.93-79.67-53.36
			c-10.72-12.46-18.14-27.55-18.82-44.17c-0.38,0.22-0.75,0.43-1.13,0.65c28.24,14.78,55.63,31.17,82,49.08
			c26.42,17.95,51.8,37.42,75.98,58.29c13.58,11.72,26.77,23.88,39.57,36.45c0.35-0.35,0.71-0.71,1.06-1.06
			c-23.66-22.27-45.52-46.43-65.3-72.21c-19.66-25.63-37.28-52.83-52.63-81.26c-8.62-15.96-16.5-32.32-23.65-48.99
			c-0.34,0.34-0.68,0.68-1.03,1.03c28.02,17.99,52.32,41.09,73.52,66.67c21.5,25.96,39.92,54.32,57.09,83.27
			c9.65,16.27,18.92,32.77,28.14,49.29c0.34-0.34,0.68-0.68,1.03-1.03c-29.64-21.07-59.29-42.13-88.93-63.2
			c-14.7-10.45-29.41-20.9-44.11-31.35c-13.17-9.36-27.1-18.17-38.97-29.19c-11.21-10.41-21.48-24.32-18.84-40.48
			c-0.31,0.17-0.62,0.35-0.92,0.52c29.86,11.35,56.89,28.87,81.1,49.57c24.38,20.85,46.02,44.71,66.46,69.38
			c11.57,13.96,22.77,28.22,33.91,42.52c0.49,0.63,1.4-0.07,1.25-0.73c-7.16-31.33-23.58-59.29-39.71-86.72
			c-16.7-28.4-33.42-57.46-40.08-90.12c-3.69-18.11-3.88-36.88,1.28-54.73c-0.46,0.06-0.91,0.12-1.37,0.18
			c14.55,29.25,28.7,58.71,42.41,88.37c14.09,30.48,27.74,61.17,40.93,92.05c7.25,16.97,14.36,34.01,21.34,51.09
			c0.42-0.24,0.84-0.49,1.25-0.73c-22.01-19.2-42.61-40.01-61.54-62.25c-21.37-25.11-40.62-52.02-57.48-80.36
			c-7.83-13.17-15.14-26.64-21.93-40.37c-0.15,0.37-0.3,0.73-0.45,1.1c26.18-5.37,45.99,18.43,58.18,38.25
			c8.07,13.12,14.59,27.22,21.58,40.94c7.91,15.51,15.82,31.03,23.72,46.54c8.96,17.58,17.92,35.16,26.89,52.74
			c0.28-0.37,0.56-0.73,0.85-1.1c-11.88-3.9-19.28-14.54-24.57-25.29c-2.96-6.01-5.36-12.27-7.83-18.5
			c-3.07-7.72-6.14-15.45-9.21-23.17c-12.38-31.17-24.76-62.34-37.15-93.51c-6.94-17.48-13.89-34.97-20.83-52.45
			c-0.42,0.24-0.84,0.49-1.25,0.73c26.55,21.06,48.94,47.13,66.02,76.39c17,29.14,28.73,61.36,34.07,94.69
			c1.33,8.32,2.69,16.66,0.7,24.99c-1.58,6.59-5.67,14.4-13.63,13.28C409.21,336.48,408.8,337.92,409.75,338.06L409.75,338.06z"/>
	</g>
</g>
<g>
	<g>
		<path d="M396.09,399.85c1.11-3.03,2.22-6.06,3.33-9.09c0.33-0.91-1.12-1.3-1.45-0.4c-1.11,3.03-2.22,6.06-3.33,9.09
			C394.31,400.36,395.76,400.75,396.09,399.85L396.09,399.85z"/>
	</g>
</g>
<g>
	<g>
		<path d="M391.52,400.41c5.11,2.03,10.22,4.06,15.33,6.09c0.9,0.36,1.29-1.09,0.4-1.45c-5.11-2.03-10.22-4.06-15.33-6.09
			C391.03,398.6,390.64,400.05,391.52,400.41L391.52,400.41z"/>
	</g>
</g>
<g>
	<g>
		<path d="M406.36,414.65c-21.31,14.36-39.76,32.75-53.96,54.18c-12.18,18.37-21.18,38.77-26.97,60.02
			c-2.27,8.34-4.04,16.82-5.34,25.37c-0.12,0.78,0.93,1.39,1.37,0.58c17.95-33.45,36.05-66.86,55.33-99.57
			c5.45-9.25,11-18.45,16.88-27.43c3.4-5.19,6.87-10.42,10.91-15.13c1.07-1.25,2.19-2.51,3.48-3.53c0.28-0.22,0.78-0.59,1.22-0.79
			c0.21-0.1,0.58-0.2,0.73-0.2c0.23-0.01,0.41,0.12,0.61,0.77c0.3,0.99,0.21,2.3,0.11,3.5c-0.43,5.06-1.87,10.09-3.23,14.96
			c-2.56,9.2-5.59,18.26-8.71,27.28c-11.41,33.05-24.26,65.6-37.22,98.07c-2.17,5.44-4.35,10.87-6.54,16.3
			c-0.24,0.59,0.59,1.22,1.1,0.85c17.7-13.07,30.46-31.23,38.9-51.41c8.86-21.17,13.26-43.98,15.81-66.7
			c1.47-13.07,2.29-26.21,2.82-39.35c0.04-0.89-1.2-0.95-1.47-0.2c-17.03,46.21-29.84,93.95-38.16,142.49
			c-2.29,13.37-4.24,26.8-5.86,40.27c-0.09,0.79,1.04,0.95,1.4,0.38c12.14-19.07,22.15-39.49,29.78-60.78
			c9.76-27.28,15.55-55.95,17.17-84.88c0.71-12.73,0.61-25.49-0.28-38.2c-0.05-0.78-1.34-1.09-1.47-0.2
			c-6.71,45.1-11.78,90.44-15.14,135.91c-0.93,12.51-1.72,25.02-2.39,37.55c-0.04,0.77,1.03,0.99,1.4,0.38
			c9.18-15.22,16.28-31.7,20.94-48.85c6.89-25.35,8.27-52.06,4-77.98c-1.97-11.94-5.13-23.67-9.36-35.01
			c-0.3-0.81-1.38-0.65-1.47,0.2c-4.33,40.08-6.19,80.42-5.53,120.72c0.18,10.69,0.53,21.38,1.06,32.07
			c0.04,0.74,0.99,1.02,1.4,0.38c12.54-19.75,20.24-42.3,23.02-65.49c2.8-23.32,0.63-47.28-6.51-69.66
			c-4.02-12.59-9.63-24.64-16.75-35.78c-0.36-0.57-1.49-0.41-1.4,0.38c5.15,45.8,10.29,91.59,15.44,137.39
			c1.45,12.92,2.9,25.83,4.35,38.75c0.06,0.54,0.6,0.97,1.13,0.65c19.79-12.01,30.23-34.21,32.63-56.64
			c2.84-26.55-6.12-52.2-19.1-75.01c-8.15-14.33-17.79-27.73-27.35-41.14c-0.38-0.53-1.49-0.44-1.4,0.38
			c5.17,47.42,15.85,94.16,32,139.05c4.56,12.68,9.56,25.19,14.94,37.55c0.22,0.5,1.07,0.48,1.3,0
			c9.52-20.88,14.13-44.16,13.29-67.09c-1.14-31.16-12.65-61.68-32.8-85.52c-6.42-7.59-13.66-14.36-21.45-20.52
			c-0.44-0.35-1.36-0.19-1.28,0.53c2.81,26.38,7.06,52.56,13.67,78.27c7.16,27.84,16.72,55.1,28.26,81.42
			c5.45,12.44,11.38,24.68,17.74,36.68c0.3,0.57,1.21,0.43,1.37-0.18c9-34.26,9.91-70.66,0.51-104.95
			c-5.06-18.44-13-36.09-22.95-52.4c-6.86-11.24-14.66-22.31-24.04-31.62c-0.95-0.95-8.46-8.87-9.79-5.05
			c-0.59,1.69,0.61,4.21,1.18,5.74c1.69,4.54,3.83,8.92,5.98,13.26c3.86,7.81,7.96,15.49,12.12,23.14
			c15.5,28.5,31.84,56.54,48.26,84.51c2.83,4.82,5.66,9.63,8.5,14.45c0.32,0.54,1.22,0.46,1.37-0.18c6.04-26.1,3.69-53.92-7.5-78.35
			c-9.69-21.13-25.73-38.87-45.05-51.67c-5.57-3.69-11.41-6.98-17.49-9.73c-0.67-0.31-1.39,0.32-1.03,1.03
			c11.31,21.86,23.7,43.16,37.15,63.77c14.95,22.91,31.19,44.97,48.62,66.06c8.86,10.72,18.02,21.17,27.48,31.37
			c0.44,0.47,1.3,0.11,1.28-0.53c-0.75-22.29-5.33-44.47-13.59-65.2c-11.48-28.8-30.1-54.52-53.88-74.41
			c-9.04-7.56-18.77-14.29-29.03-20.08c-0.61-0.34-1.49,0.39-1.03,1.03c14.69,19.91,30.06,39.32,46.1,58.16
			c16.69,19.62,34.1,38.62,52.17,56.97c9.3,9.44,18.78,18.7,28.42,27.79c0.44,0.42,1.32,0.15,1.28-0.53
			c-1.37-21.41-6.85-42.58-16.02-61.98c-13.94-29.47-36.73-54.27-64.8-70.82c-10.21-6.02-21.06-10.95-32.3-14.7
			c-0.71-0.24-1.27,0.75-0.73,1.25c35.35,32.89,70.69,65.78,106.04,98.67c9.99,9.3,19.98,18.59,29.97,27.89
			c0.58,0.54,1.38-0.01,1.25-0.73c-4.66-26.63-14.75-52.31-29.53-74.95c-17.81-27.29-42.35-49.92-70.88-65.63
			c-9.65-5.31-19.73-9.83-30.12-13.5c-0.6-0.21-1.22,0.57-0.85,1.1c15.39,21.85,29.59,44.54,42.48,67.95
			c14.15,25.69,26.74,52.24,37.66,79.47c5.35,13.34,10.3,26.84,14.86,40.47c0.28,0.84,1.38,0.62,1.47-0.2
			c2.62-22.06,0.72-44.45-5.97-65.65c-5.6-17.74-14.27-34.41-24.9-49.64c-8.82-12.64-18.97-24.33-30.02-35.06
			c-6.96-6.77-14.31-13.09-21.88-19.17c-0.86-0.69-1.74-1.38-2.58-2.1c-0.19-0.16-0.46-0.51-0.69-0.61
			c-0.05-0.02-0.14-0.19-0.18-0.19c0.24-0.01-0.22,0.87-0.4,1.06c-0.22,0.24-0.56-0.24-0.16,0.1c0.24,0.2,0.56,0.35,0.82,0.53
			c2.8,1.93,5.42,4.12,8.06,6.25c5.68,4.56,11.29,9.2,16.9,13.84c9.08,7.52,18.13,15.09,27.17,22.67
			c13,10.91,25.98,21.85,38.94,32.81c17.52,14.81,35.03,29.65,52.52,44.51c4.96,4.21,9.92,8.43,14.88,12.64
			c0.63,0.53,1.62-0.13,1.18-0.91c-14.01-24.81-30.49-48.2-49.17-69.72c-22.82-26.29-48.91-49.72-77.47-69.63
			c-12.71-8.86-25.91-17.02-39.51-24.44c-0.61-0.33-1.5,0.39-1.03,1.03c20.95,28.32,45.85,53.59,73.93,74.86
			c24.37,18.46,51.03,33.85,79.07,46c12.33,5.34,24.92,10.07,37.71,14.19c0.52,0.17,1.11-0.39,0.92-0.92
			c-6.74-18.88-16.56-36.54-29.27-52.05c-10.61-12.95-23.04-24.33-36.54-34.19c-23.68-17.3-50.69-30.14-78.7-38.72
			c-9.82-3-19.83-5.54-29.98-7.12c-3.3-0.51-6.62-0.95-9.96-1.1c-1.85-0.09-3.95-0.23-5.76,0.32c-5.42,1.64,5.64,8.15,6.88,8.91
			c12.92,8.02,26.91,14.47,40.79,20.62c40.32,17.87,82.48,31.88,125.93,39.71c4.23,0.76,8.48,1.47,12.73,2.12
			c0.83,0.13,1.31-0.87,0.58-1.37c-22.81-15.63-46.65-29.74-71.33-42.2c-24.64-12.43-50.1-23.23-76.16-32.3
			c-14.72-5.12-29.63-9.67-44.69-13.67c-0.82-0.22-1.32,0.94-0.58,1.37c29.38,17.22,59.11,33.84,89.18,49.83
			c30.07,15.99,60.47,31.35,91.18,46.07c17.29,8.29,34.67,16.37,52.15,24.26c0.56,0.25,1.05-0.06,1.13-0.65
			c1.8-14.24-6.98-26.23-17.36-34.95c-12.35-10.37-27.21-17.46-41.34-25.02c-32.17-17.22-65.08-33.68-100.06-44.43
			c-19.45-5.98-39.48-10.07-59.8-11.45c-0.85-0.06-1.01,1.26-0.2,1.47c24.95,6.46,50.09,12.18,75.37,17.15
			c25.29,4.97,50.72,9.18,76.26,12.63c14.3,1.93,28.62,3.63,42.98,5.09c0.78,0.08,0.96-1.04,0.38-1.4
			c-27.07-16.78-56.54-29.59-87.33-37.75c-28.61-7.58-58.24-11.15-87.83-10.86c-12.57,0.12-25.14,0.94-37.62,2.42
			c-0.71,0.08-1.06,0.98-0.38,1.4c27.73,16.99,56.58,32.14,86.32,45.28c33.27,14.7,67.63,26.91,102.72,36.48
			c16.85,4.6,33.87,8.58,51.01,11.96c0.66,0.13,1.37-0.74,0.73-1.25c-24.47-19.74-50.65-37.35-78.17-52.54
			c-27.42-15.14-56.16-27.91-85.78-38.1c-16.82-5.79-33.92-10.73-51.22-14.82c-0.95-0.22-1.3,1.12-0.4,1.45
			c27.09,9.79,54.61,18.38,82.46,25.73c27.85,7.35,56.03,13.45,84.42,18.29c15.87,2.71,31.8,5.01,47.78,6.93
			c0.39,0.05,0.76-0.38,0.75-0.75c-0.41-11.69-12.16-17.59-21.98-20.56c-7.27-2.2-14.87-3.37-22.31-4.82
			c-8.63-1.68-17.27-3.29-25.93-4.83c-34.31-6.09-68.82-11.07-103.45-14.91c-19.66-2.18-39.36-4-59.09-5.46
			c-0.84-0.06-1.03,1.31-0.2,1.47c47.14,8.99,95.03,13.92,143.01,14.7c23.83,0.39,47.67-0.25,71.44-1.91
			c8.77-0.61,17.75-0.97,25.35-5.95c4.84-3.18,9.25-9.91,4.53-15.25c-2.25-2.54-5.83-3.81-8.98-4.76c-2.6-0.78-5.28-1.34-7.97-1.72
			c-3.89-0.56-7.82-0.83-11.74-1.03c-11.42-0.57-22.89-0.45-34.32-0.22c-31.13,0.63-62.25,2.43-93.32,4.44
			c-28.28,1.83-56.54,3.93-84.79,6.2c-2.51,0.2-5.03,0.4-7.54,0.61c-0.96,0.08-0.96,1.58,0,1.5c26.14-2.12,52.3-4.11,78.47-5.89
			c30.75-2.09,61.53-3.95,92.34-4.96c12.58-0.41,25.18-0.7,37.77-0.52c8.43,0.12,17.09,0.18,25.4,1.76
			c5.86,1.11,16.97,3.59,14.93,11.83c-1.78,7.18-11.87,10.36-18.2,11.42c-5.41,0.91-11.05,0.99-16.52,1.34
			c-5.88,0.38-11.77,0.69-17.65,0.95c-11.52,0.49-23.05,0.75-34.58,0.76c-47.08,0.06-94.16-3.86-140.57-11.75
			c-5.56-0.94-11.1-1.95-16.64-3c-0.07,0.49-0.13,0.98-0.2,1.47c33.97,2.51,67.87,6.09,101.61,10.76
			c33.56,4.64,66.96,10.35,100.16,17.11c11.22,2.29,28.99,7.04,29.49,21.21c0.25-0.25,0.5-0.5,0.75-0.75
			c-28.66-3.44-57.15-8.16-85.39-14.14c-27.93-5.92-55.6-13.07-82.9-21.42c-15.45-4.73-30.77-9.85-45.97-15.34
			c-0.13,0.48-0.27,0.96-0.4,1.45c30.58,7.24,60.52,17.14,89.37,29.59c28.6,12.34,56.13,27.15,82.19,44.21
			c14.82,9.71,29.16,20.15,42.95,31.28c0.24-0.42,0.49-0.84,0.73-1.25c-32.04-6.32-63.66-14.77-94.57-25.32
			c-34.39-11.74-67.88-26.06-100.13-42.81c-15.29-7.94-30.3-16.44-45-25.44c-0.13,0.47-0.25,0.93-0.38,1.4
			c24.07-2.84,48.41-3.23,72.54-0.95c32.62,3.07,64.76,11.09,94.94,23.85c15.42,6.52,30.31,14.27,44.54,23.1
			c0.13-0.47,0.25-0.93,0.38-1.4c-51.21-5.21-102.11-13.46-152.34-24.71c-14.01-3.14-27.97-6.51-41.87-10.11
			c-0.07,0.49-0.13,0.98-0.2,1.47c35.88,2.44,70.46,13.5,103.2,27.94c16.32,7.2,32.27,15.22,48.04,23.55
			c7.87,4.15,15.7,8.39,23.52,12.63c6.54,3.55,13.02,7.19,19.1,11.5c12.63,8.96,25.33,21.96,23.21,38.73
			c0.38-0.22,0.75-0.43,1.13-0.65c-31.04-14.01-61.8-28.65-92.23-43.93c-30.44-15.28-60.55-31.19-90.33-47.72
			c-16.76-9.31-33.41-18.81-49.95-28.51c-0.19,0.46-0.39,0.91-0.58,1.37c26.61,7.07,52.75,15.89,78.19,26.42
			c25.59,10.59,50.48,22.91,74.43,36.82c13.37,7.77,26.45,16.04,39.21,24.78c0.19-0.46,0.39-0.91,0.58-1.37
			c-41.76-6.41-82.29-18.52-121.37-34.47c-16.23-6.63-32.31-13.81-47.76-22.12c-4.65-2.5-9.32-5.08-13.65-8.12
			c-1.16-0.82-2.38-1.66-3.34-2.71c-0.24-0.26-0.41-0.6-0.65-0.86c-0.11-0.12,0.03,0.01-0.08,0.06c0.11-0.05,0.58-0.28,1.15-0.38
			c0.78-0.14,1.65-0.16,2.48-0.17c2.76-0.03,5.54,0.25,8.28,0.59c9.15,1.14,18.21,3.26,27.08,5.74
			c26.68,7.43,52.46,18.84,75.6,34.08c29.8,19.62,54.64,46.19,69.24,78.99c1.86,4.17,3.54,8.42,5.07,12.72
			c0.31-0.31,0.62-0.62,0.92-0.92c-24.47-7.89-48.21-18.01-70.73-30.41c-29.24-16.11-56.33-36.04-80.22-59.36
			c-14.13-13.79-27.12-28.73-38.87-44.6c-0.34,0.34-0.68,0.68-1.03,1.03c26.35,14.39,51.17,31.54,73.89,51.16
			c25.7,22.19,48.69,47.5,68.33,75.2c8.42,11.88,16.23,24.2,23.39,36.89c0.39-0.3,0.79-0.61,1.18-0.91
			c-18.88-16.05-37.77-32.08-56.68-48.09c-14.16-11.98-28.33-23.95-42.52-35.88c-9.93-8.35-19.87-16.68-29.85-24.97
			c-6.33-5.26-12.66-10.5-19.05-15.68c-3.23-2.61-6.44-5.25-9.79-7.71c-0.57-0.42-1.2-1-1.87-1.26c-1.2-0.47-1.73,0.58-0.89,1.5
			c1.49,1.64,3.56,2.93,5.27,4.31c3.52,2.85,6.99,5.76,10.38,8.76c10.58,9.35,20.46,19.5,29.38,30.45
			c11.52,14.15,21.42,29.71,28.69,46.47c8.99,20.72,13.55,43.15,12.98,65.76c-0.13,5.15-0.52,10.29-1.13,15.4
			c0.49-0.07,0.98-0.13,1.47-0.2c-8.44-25.26-18.25-50.05-29.41-74.24c-12.32-26.71-26.27-52.67-41.74-77.69
			c-7.64-12.34-15.65-24.45-24-36.32c-0.28,0.37-0.56,0.73-0.85,1.1c22.03,7.77,42.7,19.47,60.7,34.36
			c26.44,21.86,46.88,50.58,58.95,82.68c4.39,11.66,7.68,23.73,9.83,36c0.42-0.24,0.84-0.49,1.25-0.73
			c-35.35-32.89-70.69-65.78-106.04-98.67c-9.99-9.3-19.98-18.59-29.97-27.89c-0.24,0.42-0.49,0.84-0.73,1.25
			c23.9,7.98,45.96,21.38,63.88,39.12c21.72,21.5,36.79,49,43.88,78.68c2.22,9.28,3.66,18.73,4.27,28.25
			c0.43-0.18,0.85-0.35,1.28-0.53c-17.46-16.46-34.37-33.49-50.68-51.09c-17.5-18.88-34.31-38.39-50.39-58.49
			c-8.68-10.85-17.14-21.87-25.39-33.04c-0.34,0.34-0.68,0.68-1.03,1.03c20.93,11.81,39.6,27.53,54.65,46.28
			c18.93,23.58,31.75,51.71,37.59,81.35c2,10.14,3.17,20.43,3.52,30.76c0.43-0.18,0.85-0.35,1.28-0.53
			c-17.47-18.85-33.96-38.6-49.34-59.18c-16.06-21.48-30.92-43.85-44.51-66.97c-6.7-11.4-13.08-22.99-19.16-34.73
			c-0.34,0.34-0.68,0.68-1.03,1.03c13.62,6.18,26.17,14.91,36.86,25.35c20.37,19.91,33.13,46.59,35.35,75.05
			c0.98,12.61-0.01,25.34-2.86,37.65c0.46-0.06,0.91-0.12,1.37-0.18c-17.47-29.62-34.85-59.31-51.51-89.4
			c-7.61-13.75-15.48-27.56-21.73-42c-1.02-2.35-2.37-5.24-2.65-7.65c-0.01-0.09-0.01-0.56-0.02-0.81c0-0.06,0.07-0.05,0.01-0.06
			c-0.02,0-0.09-0.01-0.01,0.05c0.06,0.04,0.63,0.21,0.86,0.31c1.12,0.54,2.14,1.4,3.08,2.2c8.57,7.23,15.51,16.76,21.74,25.98
			c9.96,14.74,18.2,30.72,24.15,47.5c12.38,34.91,13.65,72.84,5.6,108.86c-0.62,2.78-1.3,5.55-2.02,8.3
			c0.46-0.06,0.91-0.12,1.37-0.18c-11.88-22.42-22.21-45.65-30.86-69.5c-9.92-27.34-17.66-55.45-22.76-84.09
			c-2.48-13.93-4.34-27.95-5.84-42.02c-0.43,0.18-0.85,0.35-1.28,0.53c16.78,13.26,30.61,29.71,39.95,49.03
			c14.08,29.12,17.39,62.58,10.23,94.04c-2.2,9.69-5.33,19.19-9.46,28.24c0.43,0,0.86,0,1.3,0c-18.91-43.37-32.73-88.91-40.99-135.5
			c-2.37-13.38-4.28-26.83-5.75-40.34c-0.47,0.13-0.93,0.25-1.4,0.38c16.25,22.8,33.12,46.03,41.62,73.03
			c7.13,22.65,7.38,47.9-2.81,69.71c-5.35,11.46-13.6,21.39-24.46,27.99c0.38,0.22,0.75,0.43,1.13,0.65
			c-5.15-45.8-10.29-91.59-15.44-137.39c-1.45-12.92-2.9-25.83-4.35-38.75c-0.47,0.13-0.93,0.25-1.4,0.38
			c12.55,19.65,20.32,42.15,23.07,65.28c2.74,23,0.65,46.58-6.34,68.67c-3.95,12.48-9.48,24.41-16.5,35.46
			c0.47,0.13,0.93,0.25,1.4,0.38c-1.95-39.81-1.49-79.73,1.44-119.48c0.82-11.12,1.83-22.23,3.03-33.31
			c-0.49,0.07-0.98,0.13-1.47,0.2c8.33,22.33,12.4,46.15,11.68,69.98c-0.71,23.42-6.06,46.63-15.43,68.11
			c-3.39,7.78-7.3,15.33-11.69,22.59c0.47,0.13,0.93,0.25,1.4,0.38c2.43-45.23,6.51-90.37,12.25-135.3
			c1.61-12.61,3.36-25.19,5.23-37.77c-0.49-0.07-0.98-0.13-1.47-0.2c1.74,24.89,0.44,49.97-3.97,74.53
			c-4.91,27.32-13.63,53.95-25.82,78.88c-4.99,10.2-10.56,20.11-16.65,29.69c0.47,0.13,0.93,0.25,1.4,0.38
			c5.84-48.58,16.12-96.61,30.68-143.32c4.09-13.12,8.53-26.14,13.28-39.04c-0.49-0.07-0.98-0.13-1.47-0.2
			c-0.92,22.79-2.68,45.64-7.28,68.01c-4.43,21.55-11.58,42.94-23.96,61.3c-6.95,10.31-15.55,19.45-25.56,26.84
			c0.37,0.28,0.73,0.56,1.1,0.85c14.37-35.69,28.62-71.47,41.44-107.75c3.51-9.93,6.92-19.91,9.9-30.02
			c1.68-5.7,3.37-11.5,4.19-17.41c0.27-1.93,1.01-5.64-0.76-7.15c-1.75-1.48-4.17,0.8-5.37,1.95c-3.66,3.5-6.61,7.84-9.48,11.98
			c-5.44,7.85-10.46,15.99-15.4,24.16c-18.32,30.36-35.31,61.53-52.17,92.71c-2.9,5.37-5.8,10.74-8.68,16.12
			c0.46,0.19,0.91,0.39,1.37,0.58c2.55-16.8,6.96-33.32,13.3-49.09c9.31-23.15,22.89-44.53,40.14-62.57
			c9.7-10.14,20.51-19.17,32.14-27.01C407.91,415.41,407.16,414.11,406.36,414.65L406.36,414.65z"/>
	</g>
</g>
<g>
	<g>
		<path d="M489.33,386.19c29.2-11.56,60.94-12.65,91.95-13.26c15.94-0.31,31.87-0.61,47.78-1.83c16.32-1.26,32.57-3.28,48.7-6.07
			c18.28-3.15,36.38-7.29,54.22-12.37c0.7-0.2,0.73-1.26,0-1.45c-22.38-5.71-45.23-9.51-68.24-11.51
			c-21.35-1.85-42.84-2.15-64.24-1.04c-18.2,0.94-36.34,2.9-54.33,5.76c-14.23,2.26-28.36,5.1-42.37,8.42
			c-8.86,2.1-17.64,4.48-26.47,6.71c-2.02,0.51-4.52,1.2-6.35,1.4c-0.27,0.03-0.53,0.04-0.8,0.05c-0.27,0.01-0.19-0.04-0.17,0
			c0.06,0.14,0.37,0.6,0.18,0.62c0.23-0.03,0.68-0.55,0.95-0.71c3.8-2.32,8.26-3.75,12.42-5.26c7.75-2.81,15.61-5.28,23.51-7.61
			c21-6.2,42.34-11.39,63.86-15.44c21.59-4.07,43.39-7,65.12-10.27c25.18-3.78,50.35-7.56,75.53-11.34
			c6.13-0.92,12.25-1.84,18.38-2.76c0.76-0.11,0.67-1.27,0-1.45c-19.14-4.92-39.02-5.45-58.67-4.81c-18.04,0.58-36.1,1.64-54.1,2.98
			c-17.21,1.28-34.39,3.04-51.41,5.91c-16.82,2.84-33.5,6.77-49.59,12.49c-15.75,5.59-30.91,12.91-44.74,22.32
			c-1.77,1.21-3.52,2.45-5.25,3.72c-0.6,0.44-0.39,1.34,0.38,1.4c20.37,1.56,40.74,3.12,61.11,4.69
			c20.01,1.53,40.02,3.25,60.04,4.53c18.94,1.21,38.07,1.68,56.89-1.23c9.46-1.46,18.75-3.85,27.71-7.24
			c8.9-3.37,17.45-7.57,25.89-11.95c17.91-9.29,35.7-18.8,53.54-28.2c2.22-1.17,4.44-2.34,6.65-3.51c0.66-0.35,0.35-1.41-0.38-1.4
			c-18.96,0.43-37.93,0.89-56.88,1.66c-18.91,0.76-37.81,1.82-56.66,3.47c-18.73,1.63-37.41,3.85-55.96,6.92
			c-18.43,3.05-36.72,6.97-54.71,12.02c-17.95,5.05-35.58,11.24-52.65,18.75c-2.15,0.95-4.29,1.91-6.42,2.9
			c0.3,0.39,0.61,0.79,0.91,1.18c12.71-10.51,27.32-18.42,42.58-24.57c15.36-6.19,31.31-10.74,47.27-15.06
			c16.08-4.35,32.24-8.46,48.06-13.7c15.5-5.14,31.05-11.28,44.85-20.12c13.13-8.4,25.54-20.07,30.07-35.44
			c0.55-1.88,0.97-3.79,1.27-5.72c0.08-0.49-0.19-0.93-0.72-0.95c-14.02-0.59-27.54,3.77-40.05,9.77
			c-13.36,6.42-25.93,14.47-38.65,22.06c-27.49,16.4-54.98,32.8-82.47,49.21c-15.5,9.24-30.99,18.49-46.49,27.73
			c-0.71,0.42-0.25,1.64,0.58,1.37c18.64-6.03,37.27-12.06,55.91-18.09c18.73-6.06,37.46-12.12,56.18-18.18
			c18.64-6.03,37.27-12.06,55.91-18.09c9.41-3.05,18.82-6.09,28.23-9.14c7.83-2.53,15.83-4.85,23.23-8.53
			c6.53-3.25,12.77-7.81,16.4-14.28c3.18-5.65,4.63-12.66,2.84-19c-0.44-1.54-1.07-3.05-1.91-4.42c-0.54-0.89-1.63-2.91-2.71-3.17
			c-0.69-0.17-1.85,0.29-2.54,0.42c-1.08,0.2-2.16,0.4-3.23,0.6c-2.07,0.39-4.14,0.79-6.21,1.21c-8.43,1.69-16.82,3.59-25.16,5.67
			c-16.52,4.14-32.85,9.04-48.92,14.68c-16.05,5.64-31.84,12.01-47.31,19.09c-15.49,7.09-30.65,14.88-45.42,23.36
			c-14.77,8.48-29.15,17.64-43.06,27.45c-3.45,2.43-6.86,4.9-10.25,7.41c-0.78,0.58-0.13,1.68,0.76,1.3
			c17.12-7.51,35.95-9.4,54.39-10.85c20.07-1.58,40.15-3.09,60.22-4.64c19.63-1.51,39.35-2.63,58.92-4.86
			c17.9-2.04,35.84-5.45,52.36-12.87c14.24-6.39,27.4-15.71,36.79-28.3c1.18-1.58,2.29-3.21,3.34-4.89c0.39-0.62-0.25-1.18-0.85-1.1
			c-34.3,4.64-68.48,10.16-102.49,16.57c-33.83,6.37-67.49,13.62-100.94,21.73c-18.93,4.59-37.8,9.46-56.59,14.6
			c0.24,0.42,0.49,0.84,0.73,1.25c11.1-9.87,23.43-18.24,36.27-25.68c12.89-7.47,26.27-14.04,39.71-20.43
			c13.45-6.4,26.98-12.62,40.22-19.43c13.01-6.69,25.77-13.94,37.65-22.5c11.61-8.36,22.36-17.97,31.36-29.12
			c1.12-1.38,2.21-2.79,3.28-4.22c0.28-0.38-0.01-1.01-0.45-1.1c-14.55-3.01-28.87,1.77-41.45,8.95
			c-13.56,7.74-25.56,17.97-37.91,27.44c-26.88,20.6-54.31,40.51-82.2,59.72c-15.49,10.67-31.13,21.12-46.94,31.31
			c-0.81,0.52-0.06,1.82,0.76,1.3c28.01-18.06,55.51-36.91,82.54-56.4c13.49-9.72,26.86-19.61,40.1-29.66
			c12.44-9.45,24.47-19.64,37.56-28.2c13.88-9.07,30.22-16.5,47.15-13.01c-0.15-0.37-0.3-0.73-0.45-1.1
			c-8.74,11.66-19.36,21.79-31.01,30.52c-11.58,8.68-24.09,16.04-36.88,22.76c-13.17,6.92-26.66,13.18-40.1,19.55
			c-13.47,6.38-26.91,12.85-39.91,20.16c-12.75,7.17-25.08,15.17-36.31,24.58c-1.37,1.15-2.73,2.32-4.07,3.51
			c-0.57,0.51,0.03,1.44,0.73,1.25c33.39-9.13,67.01-17.4,100.82-24.79c33.63-7.35,67.45-13.83,101.41-19.43
			c19.22-3.17,38.49-6.06,57.79-8.67c-0.28-0.37-0.56-0.73-0.85-1.1c-8.53,13.56-21.4,23.73-35.64,30.78
			c-16.22,8.03-34.13,11.87-51.99,14.1c-19.38,2.42-38.96,3.48-58.43,4.98c-19.9,1.53-39.8,3.06-59.7,4.6
			c-18.06,1.39-36.49,2.74-53.66,8.97c-2.05,0.74-4.07,1.56-6.06,2.44c0.25,0.43,0.5,0.86,0.76,1.3
			c26.57-19.66,54.91-36.9,84.57-51.5c29.75-14.64,60.81-26.6,92.69-35.7c17.84-5.09,35.93-9.27,54.19-12.53
			c-0.24-0.06-0.49-0.13-0.73-0.19c4.87,5.19,5.4,12.72,3.38,19.28c-2.26,7.34-7.59,12.84-14.04,16.77
			c-6.88,4.19-14.64,6.64-22.26,9.11c-9.23,2.99-18.45,5.97-27.68,8.96c-18.54,6-37.09,12-55.63,18
			c-18.45,5.97-36.9,11.94-55.35,17.91c-18.45,5.97-36.9,11.94-55.35,17.91c-2.31,0.75-4.61,1.49-6.92,2.24
			c0.19,0.46,0.39,0.91,0.58,1.37c27.32-16.3,54.65-32.61,81.97-48.91c13.5-8.05,26.99-16.1,40.49-24.16
			c12.96-7.73,25.76-15.85,39.11-22.89c14-7.38,29.25-13.29,45.32-12.61c-0.24-0.32-0.48-0.63-0.72-0.95
			c-2.54,16.34-14.32,29.06-27.48,38.15c-13.49,9.31-29,15.7-44.44,20.99c-15.69,5.37-31.75,9.54-47.76,13.84
			c-15.93,4.28-31.87,8.69-47.27,14.62c-14.96,5.76-29.42,13.01-42.22,22.73c-1.54,1.17-3.06,2.37-4.55,3.61
			c-0.7,0.58,0.19,1.51,0.91,1.18c16.98-7.86,34.56-14.38,52.49-19.7c17.81-5.29,35.96-9.43,54.25-12.68
			c18.54-3.29,37.23-5.67,55.97-7.44c18.75-1.77,37.55-2.93,56.36-3.76c18.79-0.83,37.6-1.33,56.4-1.77
			c2.35-0.06,4.7-0.11,7.05-0.16c-0.13-0.47-0.25-0.93-0.38-1.4c-17.89,9.43-35.78,18.86-53.67,28.29
			c-16.92,8.91-33.98,17.39-52.86,21.23c-18.77,3.81-38.07,3.8-57.11,2.78c-19.71-1.05-39.4-2.84-59.08-4.35
			c-20.27-1.55-40.55-3.11-60.82-4.66c-2.51-0.19-5.02-0.38-7.53-0.58c0.13,0.47,0.25,0.93,0.38,1.4
			c13.53-9.94,28.46-17.82,44.11-23.85c15.75-6.06,32.15-10.31,48.72-13.39c16.9-3.15,34-5.1,51.12-6.5
			c17.51-1.43,35.06-2.39,52.61-3.17c19.69-0.88,39.65-1.1,59.05,2.84c2.35,0.48,4.68,1.02,6.99,1.61c0-0.48,0-0.96,0-1.45
			c-25.56,3.84-51.12,7.68-76.68,11.52c-23.48,3.53-47.01,6.79-70.42,10.73c-21.61,3.63-43.02,8.45-64.15,14.25
			c-9.19,2.52-18.34,5.23-27.38,8.24c-5.78,1.92-11.57,3.91-17.14,6.39c-0.94,0.42-6.02,2.22-4.91,4.04
			c0.66,1.08,2.87,0.41,3.8,0.23c6.98-1.36,13.85-3.49,20.74-5.24c12.57-3.19,25.22-6.05,37.97-8.44
			c17.26-3.24,34.68-5.66,52.18-7.17c20.79-1.79,41.7-2.28,62.55-1.35c23.75,1.07,47.42,4.01,70.67,8.98
			c5.28,1.13,10.54,2.36,15.78,3.7c0-0.48,0-0.96,0-1.45c-31.83,9.06-64.51,15.1-97.48,17.97c-15.98,1.39-31.98,1.85-48.01,2.15
			c-15.62,0.3-31.26,0.57-46.82,2.1c-17.17,1.68-34.25,4.94-50.33,11.31C488.05,385.09,488.43,386.54,489.33,386.19L489.33,386.19z"
			/>
	</g>
</g>
<g>
	<g>
		<path d="M409.57,4062.51c27.59-122.43,54.88-246.07,59.79-371.9c2.39-61.25-0.75-122.85-12.18-183.14
			c-11.99-63.23-41.06-123.58-45.31-188.13c-4.2-63.85,12.68-126.48,20.63-189.37c7.45-58.96,4.64-118.29-3.27-177.05
			c-16.48-122.51-53.61-242.65-54.59-367.01c-0.96-122.43,47.86-231.45,86.3-345.15c17.99-53.2,33.02-108,36.6-164.28
			c3.78-59.48-5.68-118.68-19.25-176.42c-14.55-61.89-33.72-122.61-47.2-184.76c-14.36-66.22-22.61-133.75-24.69-201.48
			c-4.1-133.03,22.97-260.63,46.13-390.77c20.88-117.3,32.85-237.6-3.52-353.14c-31.05-98.62-88.67-196.52-42.41-300.43
			c10.27-23.07,24.13-44.21,40.43-63.45c0.62-0.73-0.44-1.8-1.06-1.06c-29.66,35.01-51.83,77.34-57.76,123.24
			c-5.74,44.52,4.86,88.46,19.18,130.36c16.92,49.47,38.1,97.43,50.43,148.39c15.21,62.88,16.1,128.49,10.5,192.66
			c-11.29,129.46-48.72,255.03-59.89,384.53c-11.06,128.25,1.17,256.83,33.08,381.38c32.12,125.4,72.21,248.1,45.07,378.59
			c-23.95,115.17-81.6,220.3-104.02,335.9c-22.69,117.02,1.21,234.68,23.71,349.73c12.2,62.34,24.12,125,27.97,188.51
			c3.96,65.55-5.78,128.28-16.01,192.78c-9.44,59.5-11.95,116.6,4.43,175.12c17.95,64.14,36.82,125.34,42.76,192.17
			c11.62,130.62-9.72,261.7-36.53,389.21c-6.64,31.59-13.69,63.09-20.79,94.58C407.91,4063.05,409.36,4063.45,409.57,4062.51
			L409.57,4062.51z"/>
	</g>
</g>
<g>
	<g>
		<path d="M434.85,399.12c-29.41,45.64-53.61,97.39-54.98,152.6c-0.66,26.54,4.04,53.58,15.85,77.5
			c11.21,22.71,27.9,42.17,39.49,64.7c61.01,118.62,30.14,263.2,14.36,388.96c-9.09,72.45-18.18,144.89-27.27,217.34
			c-8.78,70.01-19.32,140.18-21.75,210.78c-2.28,66.42,5.8,130.72,23.21,194.79c16.73,61.54,39.05,121.42,55.08,183.17
			c16.56,63.79,24.23,128.5,15.91,194.15c-7.94,62.61-27.23,123.09-47.57,182.6c-20.26,59.28-42.01,118.25-56.22,179.36
			c-13.24,56.9-17.82,114.56-14.66,172.88c6.6,121.55,40.47,239.37,55.17,359.87c7.32,60.02,9.85,121.22-0.22,181.08
			c-5.02,29.86-13.2,59.09-24.78,87.08c-10.03,24.24-25.27,49.97-20.45,77.21c4.39,24.82,24.21,42.47,37.4,62.73
			c12.65,19.43,19.89,41.95,24.61,64.5c12.25,58.5,9.61,120.05,5.13,179.26c-9.2,121.43-27.08,242.67-43.15,363.36
			c-3.03,22.78-6.12,45.56-9.26,68.33c-0.13,0.94,1.32,1.35,1.45,0.4c14.6-106.03,28.09-212.21,40.63-318.51
			c7.66-64.96,15.33-130.14,15.21-195.65c-0.08-46.97-2.89-97.33-21.9-141c-9.77-22.46-26.96-39.26-39.28-60.08
			c-21.23-35.9-1.65-68.67,12.18-102.81c20.9-51.61,29.7-107.08,30.33-162.58c1.35-118.68-30.42-234.72-48.91-351.14
			c-9.67-60.87-16.26-122.66-12.85-184.35c3.5-63.14,19.28-124.4,38.64-184.35c36.99-114.52,88.25-229.48,83.47-352.35
			c-4.94-127.17-66.42-242.72-89.07-366.48c-12.92-70.59-10.01-142.28-2.55-213.3c7.44-70.87,17.27-141.53,26.14-212.23
			c8.89-70.9,17.88-141.79,26.68-212.7c7.77-62.61,14.81-126.12,8.95-189.22c-5.19-55.87-21.86-107.8-53.21-154.45
			c-18.13-26.98-31.41-53.64-34.54-86.6c-3.04-32,2.73-64.24,13.45-94.38c10.03-28.22,24.38-54.58,40.56-79.69
			C436.67,399.06,435.37,398.31,434.85,399.12L434.85,399.12z"/>
	</g>
</g>
<g>
	<g>
		<path d="M407.78,420.3c-19.49,51.63-33.89,110.78-16.52,165.08c7.68,24.02,21.37,43.47,39.55,60.59
			c25.78,24.27,39.28,54.44,38.43,90.16c-1.51,63.69-34.81,121.87-35.9,185.88c-1.19,69.59,20.48,137.38,21.02,207.09
			c1.03,132.65-39.7,260.74-54.58,391.68c-6.96,61.24-8.05,123.68,4.5,184.29c13.81,66.7,47.02,125.84,72.6,188.3
			c26.34,64.32,45,141.35,13.85,207.5c-25.48,54.11-77.71,88.78-87.72,150.76c-5.08,31.44-1.87,63.43,0.44,94.97
			c2.52,34.53,2.74,68.99,0.54,103.55c-4.6,72.48-17.5,144.07-24.98,216.26c-7.08,68.37-7.27,136.08,3.83,204.03
			c11.22,68.67,30.06,135.79,42.15,204.29c12.47,70.6,12.98,139.7,5.45,210.84c-7.09,67-18.28,134.07-16.47,201.65
			c0.84,31.13,4.58,62.26,12.98,92.29c8.85,31.65,25.71,59.64,36.13,90.61c15.34,45.64-1.29,91.2-11.28,136.09
			c-17.35,77.96-27.53,157.47-35.76,236.84c-3.46,33.36-6.46,66.77-9.18,100.2c-0.08,0.96,1.42,0.96,1.5,0
			c8.26-101.4,18.41-203.15,37.9-303.11c4.59-23.54,10.01-46.86,15.65-70.17c7.04-29.09,13.34-58.79,6.08-88.5
			c-7.42-30.39-24.87-57.38-34.84-86.89c-44.77-132.5,5.87-273.59,4.65-408.7c-1.26-139.77-59.94-271.56-62.69-411.23
			c-2.8-142.56,40.33-281.87,30.08-424.76c-2.55-35.59-6.69-72.06,1.03-107.32c7.48-34.14,28.13-60.53,49.48-87.2
			c16.19-20.22,32.03-40.85,41.22-65.34c10.6-28.26,13.01-58.87,10.31-88.77c-5.67-62.64-33.36-119.39-58.91-175.87
			c-29.34-64.86-49.47-129.43-51.87-201.07c-4.42-131.97,36.11-260.08,52.51-389.98c7.88-62.46,9.52-124.92,0.28-187.33
			c-5.64-38.06-13.58-75.99-14.33-114.58c-0.7-35.93,7.5-69.89,17.18-104.2c14.54-51.55,32.49-109.99,1.01-159.05
			c-14.26-22.23-36.98-36.11-49.88-59.71c-16.65-30.48-20.35-65.82-16.79-99.94c3.19-30.56,12-60.18,22.82-88.82
			C409.56,419.8,408.12,419.4,407.78,420.3L407.78,420.3z"/>
	</g>
</g>
<line class="st0" x1="411.5" y1="405.5" x2="411.5" y2="405.5"/>
<path class="st0" d="M462.5,357.5"/>
<g>
	<g>
		<path d="M387.78,396.61c-14.23,16.98-33.4,28.54-52.34,39.52c-9.83,5.7-19.68,11.35-29.2,17.56c-9.99,6.51-19.68,13.49-29.02,20.9
			c-10.58,8.39-20.71,17.34-30.35,26.79c-0.54,0.53,0.01,1.45,0.73,1.25c15.32-4.12,30.29-9.44,44.81-15.82
			c13.25-5.82,26.12-12.53,38.52-20c10.75-6.47,21.17-13.51,31.21-21.04c8.11-6.08,15.99-12.48,23.62-19.15
			c5.3-4.63,10.46-9.4,15.58-14.22c1.56-1.46,3.1-2.94,4.7-4.36c0.92-0.82,1.51-1.27,2.42-1.89c-0.23,0.16-0.03-0.03-0.01,0.01
			c0.01,0.02-0.21,0.01-0.25-0.01c-0.18-0.1-0.22-0.26-0.4-0.39c-0.17-0.13,0.14-0.3-0.06,0c-0.38,0.55-1.04,1.7-1.59,2.43
			c-2.79,3.7-6,7.11-9.18,10.48c-11.26,11.93-23.36,23.12-35.85,33.75c-12.6,10.71-25.89,20.57-39.04,30.58
			c-15.55,11.84-31.1,23.69-46.65,35.53c-3.84,2.92-7.68,5.85-11.51,8.77c-0.64,0.48-0.31,1.61,0.58,1.37
			c13.59-3.63,26.15-10.15,38.19-17.3c11.11-6.61,22.06-13.52,32.91-20.54c20.4-13.21,40.47-27.56,56.86-45.66
			c9.05-10,16.85-21.13,22.66-33.32c0.33-0.7-0.33-1.34-1.03-1.03c-26.61,12.25-53.65,23.59-80.07,36.26
			c-11.58,5.55-23.03,11.62-33.27,19.43c-5.1,3.88-9.86,8.18-14.14,12.95c-4.55,5.08-8.59,10.61-12.45,16.22
			c-9.53,13.85-18.78,27.91-28.15,41.87c-0.43,0.64,0.4,1.39,1.03,1.03c23.49-13.71,46.98-27.48,69.58-42.64
			c22.32-14.96,43.83-31.3,63.09-50.09c10.73-10.46,20.7-21.68,29.68-33.69c-0.46-0.19-0.91-0.39-1.37-0.58
			c-8.65,21.17-24.81,37.89-41.05,53.49c-16.45,15.81-34.02,31.21-46.33,50.65c-7.4,11.69-13.16,26.58-8.22,40.31
			c0.17,0.47,0.65,0.68,1.1,0.45c17.37-8.72,26.88-27.13,36.44-43.1c12.17-20.34,24.34-40.69,36.52-61.03
			c6.88-11.49,13.75-22.98,20.63-34.48c0.43-0.72-0.59-1.53-1.18-0.91c-19.85,20.89-39.71,41.77-59.56,62.66
			c-9.87,10.38-19.74,20.77-29.61,31.15c-4.93,5.19-9.87,10.38-14.8,15.57c-4.1,4.31-8.32,8.67-11.32,13.86
			c-2.57,4.46-4.09,9.44-3.39,14.6c0.58,4.3,2.59,8.53,6.2,11.08c0.86,0.61,1.8,1.09,2.79,1.45c0.45,0.17,0.87,0.38,1.34,0.18
			c0.62-0.26,1.26-1.01,1.79-1.44c2.28-1.85,4.54-3.74,6.78-5.64c4.59-3.9,9.08-7.9,13.49-12c17.59-16.37,33.71-34.31,48.13-53.53
			c14.41-19.2,27.12-39.69,37.85-61.18c1.3-2.61,2.58-5.23,3.82-7.87c0.33-0.71-0.62-1.63-1.18-0.91
			c-7.87,10.1-18.38,17.57-28.96,24.58c-12.04,7.97-24.15,15.85-36.23,23.78c-11.7,7.67-23.55,15.17-35.03,23.17
			c-10.52,7.33-20.73,15.4-28.83,25.42c-8.4,10.38-14.62,22.82-15.55,36.3c-0.04,0.53,0.68,0.98,1.13,0.65
			c19.88-14.69,39.39-29.88,58.5-45.55c19.18-15.72,37.96-31.93,56.31-48.6c10.34-9.39,20.54-18.92,30.6-28.6
			c-0.42-0.24-0.84-0.49-1.25-0.73c-7.33,19.92-19.63,37.49-32.07,54.5c-12.38,16.93-25.42,33.67-34.66,52.6
			c-5,10.23-8.77,21.06-10.49,32.34c-0.08,0.53,0.32,1.11,0.92,0.92c19.11-6.07,27.33-26.87,34.78-43.58
			c10.37-23.27,21.39-46.24,33-68.92c6.5-12.7,13.19-25.31,20.09-37.8c0.47-0.85-0.83-1.6-1.3-0.76
			c-12.15,21.99-23.65,44.33-34.59,66.94c-5.43,11.21-10.71,22.5-15.84,33.85c-4.29,9.51-8.17,19.29-13.56,28.26
			c-5.4,9-12.69,17.29-22.98,20.56c0.31,0.31,0.62,0.62,0.92,0.92c3.14-20.59,13.1-39.11,24.59-56.19
			c11.88-17.65,25.44-34.12,36.82-52.11c6.23-9.85,11.77-20.18,15.8-31.14c0.27-0.74-0.75-1.22-1.25-0.73
			c-17.81,17.13-36.06,33.81-54.71,50.01c-18.6,16.17-37.62,31.86-57.01,47.08c-11.01,8.64-22.14,17.11-33.39,25.43
			c0.38,0.22,0.75,0.43,1.13,0.65c1.78-25.78,21.98-45.08,41.8-59.13c11.21-7.95,22.88-15.28,34.37-22.82
			c12.01-7.88,24.03-15.75,36.03-23.64c11.59-7.61,23.35-15.53,31.96-26.59c-0.39-0.3-0.79-0.61-1.18-0.91
			c-10.05,21.26-21.99,41.61-35.62,60.77c-13.73,19.29-29.17,37.37-46.06,53.96c-9.49,9.32-19.43,18.16-29.79,26.5
			c0.24-0.06,0.49-0.13,0.73-0.19c-4.53-1.4-7.34-5.47-8.37-9.94c-1.19-5.19,0.15-10.33,2.71-14.89c2.9-5.16,7.06-9.47,11.11-13.73
			c4.76-5.01,9.52-10.02,14.29-15.03c19.16-20.16,38.33-40.32,57.49-60.49c10.79-11.35,21.57-22.7,32.36-34.05
			c-0.39-0.3-0.79-0.61-1.18-0.91c-12.04,20.13-24.09,40.26-36.13,60.39c-6.06,10.14-12.13,20.27-18.19,30.41
			c-5.25,8.77-10.27,17.74-16.13,26.12c-5.97,8.54-13.16,16.42-22.59,21.16c0.37,0.15,0.73,0.3,1.1,0.45
			c-4.51-12.54,0.26-26.06,6.73-36.98c5.9-9.94,13.52-18.84,21.47-27.19c15.64-16.41,33.32-30.86,47.91-48.26
			c7.93-9.45,14.8-19.77,19.48-31.22c0.35-0.85-0.91-1.2-1.37-0.58c-16.04,21.45-35.35,40.24-56.21,56.98
			c-21.02,16.86-43.58,31.7-66.55,45.74c-12.91,7.89-25.97,15.54-39.05,23.16c0.34,0.34,0.68,0.68,1.03,1.03
			c8.4-12.51,16.78-25.04,25.2-37.54c7.55-11.21,15.5-21.99,26.02-30.61c9.9-8.11,21.16-14.39,32.61-20.02
			c12.47-6.13,25.19-11.77,37.88-17.44c15.29-6.84,30.62-13.59,45.84-20.59c-0.34-0.34-0.68-0.68-1.03-1.03
			c-10.36,21.72-26.91,39.53-45.47,54.55c-19.3,15.62-40.63,28.7-61.78,41.62c-13.38,8.17-27.24,15.89-42.48,19.96
			c0.19,0.46,0.39,0.91,0.58,1.37c15.88-12.1,31.76-24.19,47.64-36.29c14.09-10.73,28.38-21.26,42.15-32.42
			c13.18-10.69,25.81-22.12,37.76-34.17c4.19-4.23,8.33-8.54,12.21-13.06c1.17-1.37,2.33-2.76,3.39-4.23
			c0.51-0.71,1.22-1.56,1.4-2.44c0.32-1.51-1.15-1.44-2-0.87c-1.18,0.77-2.22,1.8-3.25,2.75c-4.29,3.93-8.48,7.96-12.78,11.88
			c-6.9,6.27-13.99,12.33-21.29,18.13c-9.5,7.54-19.35,14.64-29.52,21.24c-11.96,7.75-24.38,14.81-37.2,21.04
			c-14.46,7.03-29.43,13.01-44.79,17.77c-3.71,1.15-7.45,2.23-11.2,3.24c0.24,0.42,0.49,0.84,0.73,1.25
			c17.2-16.88,35.98-32.13,56.05-45.48c18.74-12.46,39.01-22.44,57.54-35.21c10.02-6.91,19.47-14.73,27.31-24.09
			C389.46,396.94,388.4,395.87,387.78,396.61L387.78,396.61z"/>
	</g>
</g>
</svg>
